%TF.GenerationSoftware,KiCad,Pcbnew,6.0.9*%
%TF.CreationDate,2022-11-22T21:59:45-08:00*%
%TF.ProjectId,hack_license,6861636b-5f6c-4696-9365-6e73652e6b69,rev?*%
%TF.SameCoordinates,Original*%
%TF.FileFunction,Copper,L2,Bot*%
%TF.FilePolarity,Positive*%
%FSLAX46Y46*%
G04 Gerber Fmt 4.6, Leading zero omitted, Abs format (unit mm)*
G04 Created by KiCad (PCBNEW 6.0.9) date 2022-11-22 21:59:45*
%MOMM*%
%LPD*%
G01*
G04 APERTURE LIST*
G04 Aperture macros list*
%AMRoundRect*
0 Rectangle with rounded corners*
0 $1 Rounding radius*
0 $2 $3 $4 $5 $6 $7 $8 $9 X,Y pos of 4 corners*
0 Add a 4 corners polygon primitive as box body*
4,1,4,$2,$3,$4,$5,$6,$7,$8,$9,$2,$3,0*
0 Add four circle primitives for the rounded corners*
1,1,$1+$1,$2,$3*
1,1,$1+$1,$4,$5*
1,1,$1+$1,$6,$7*
1,1,$1+$1,$8,$9*
0 Add four rect primitives between the rounded corners*
20,1,$1+$1,$2,$3,$4,$5,0*
20,1,$1+$1,$4,$5,$6,$7,0*
20,1,$1+$1,$6,$7,$8,$9,0*
20,1,$1+$1,$8,$9,$2,$3,0*%
G04 Aperture macros list end*
%ADD10C,0.100000*%
%TA.AperFunction,NonConductor*%
%ADD11C,0.100000*%
%TD*%
%TA.AperFunction,EtchedComponent*%
%ADD12C,0.500000*%
%TD*%
%TA.AperFunction,SMDPad,CuDef*%
%ADD13RoundRect,0.250000X0.325000X0.450000X-0.325000X0.450000X-0.325000X-0.450000X0.325000X-0.450000X0*%
%TD*%
%TA.AperFunction,SMDPad,CuDef*%
%ADD14RoundRect,0.125000X-0.375000X0.125000X-0.375000X-0.125000X0.375000X-0.125000X0.375000X0.125000X0*%
%TD*%
%TA.AperFunction,SMDPad,CuDef*%
%ADD15RoundRect,0.125000X-0.125000X-0.375000X0.125000X-0.375000X0.125000X0.375000X-0.125000X0.375000X0*%
%TD*%
%TA.AperFunction,SMDPad,CuDef*%
%ADD16RoundRect,0.237500X0.300000X0.237500X-0.300000X0.237500X-0.300000X-0.237500X0.300000X-0.237500X0*%
%TD*%
%TA.AperFunction,ViaPad*%
%ADD17C,0.800000*%
%TD*%
%TA.AperFunction,Conductor*%
%ADD18C,0.250000*%
%TD*%
G04 APERTURE END LIST*
D10*
D11*
X104035714Y-106732142D02*
X104071428Y-106696428D01*
X104142857Y-106660714D01*
X104214285Y-106660714D01*
X104285714Y-106696428D01*
X104321428Y-106732142D01*
X104357142Y-106803571D01*
X104357142Y-106875000D01*
X104321428Y-106946428D01*
X104285714Y-106982142D01*
X104214285Y-107017857D01*
X104142857Y-107017857D01*
X104071428Y-106982142D01*
X104035714Y-106946428D01*
X104035714Y-106660714D02*
X104035714Y-106946428D01*
X104000000Y-106982142D01*
X103964285Y-106982142D01*
X103892857Y-106946428D01*
X103857142Y-106875000D01*
X103857142Y-106696428D01*
X103928571Y-106589285D01*
X104035714Y-106517857D01*
X104178571Y-106482142D01*
X104321428Y-106517857D01*
X104428571Y-106589285D01*
X104500000Y-106696428D01*
X104535714Y-106839285D01*
X104500000Y-106982142D01*
X104428571Y-107089285D01*
X104321428Y-107160714D01*
X104178571Y-107196428D01*
X104035714Y-107160714D01*
X103928571Y-107089285D01*
X103535714Y-107089285D02*
X103535714Y-106339285D01*
X103464285Y-106803571D02*
X103250000Y-107089285D01*
X103250000Y-106589285D02*
X103535714Y-106875000D01*
X102607142Y-107089285D02*
X102607142Y-106696428D01*
X102642857Y-106625000D01*
X102714285Y-106589285D01*
X102857142Y-106589285D01*
X102928571Y-106625000D01*
X102607142Y-107053571D02*
X102678571Y-107089285D01*
X102857142Y-107089285D01*
X102928571Y-107053571D01*
X102964285Y-106982142D01*
X102964285Y-106910714D01*
X102928571Y-106839285D01*
X102857142Y-106803571D01*
X102678571Y-106803571D01*
X102607142Y-106767857D01*
X102321428Y-106589285D02*
X102142857Y-107089285D01*
X101964285Y-106589285D02*
X102142857Y-107089285D01*
X102214285Y-107267857D01*
X102250000Y-107303571D01*
X102321428Y-107339285D01*
X101857142Y-107160714D02*
X101285714Y-107160714D01*
X101107142Y-107089285D02*
X101107142Y-106339285D01*
X101035714Y-106803571D02*
X100821428Y-107089285D01*
X100821428Y-106589285D02*
X101107142Y-106875000D01*
X100500000Y-107089285D02*
X100500000Y-106589285D01*
X100500000Y-106339285D02*
X100535714Y-106375000D01*
X100500000Y-106410714D01*
X100464285Y-106375000D01*
X100500000Y-106339285D01*
X100500000Y-106410714D01*
X99821428Y-107089285D02*
X99821428Y-106339285D01*
X99821428Y-107053571D02*
X99892857Y-107089285D01*
X100035714Y-107089285D01*
X100107142Y-107053571D01*
X100142857Y-107017857D01*
X100178571Y-106946428D01*
X100178571Y-106732142D01*
X100142857Y-106660714D01*
X100107142Y-106625000D01*
X100035714Y-106589285D01*
X99892857Y-106589285D01*
X99821428Y-106625000D01*
X99357142Y-107089285D02*
X99428571Y-107053571D01*
X99464285Y-107017857D01*
X99500000Y-106946428D01*
X99500000Y-106732142D01*
X99464285Y-106660714D01*
X99428571Y-106625000D01*
X99357142Y-106589285D01*
X99250000Y-106589285D01*
X99178571Y-106625000D01*
X99142857Y-106660714D01*
X99107142Y-106732142D01*
X99107142Y-106946428D01*
X99142857Y-107017857D01*
X99178571Y-107053571D01*
X99250000Y-107089285D01*
X99357142Y-107089285D01*
X98464285Y-106589285D02*
X98464285Y-107089285D01*
X98785714Y-106589285D02*
X98785714Y-106982142D01*
X98750000Y-107053571D01*
X98678571Y-107089285D01*
X98571428Y-107089285D01*
X98500000Y-107053571D01*
X98464285Y-107017857D01*
X98214285Y-106589285D02*
X97928571Y-106589285D01*
X98107142Y-106339285D02*
X98107142Y-106982142D01*
X98071428Y-107053571D01*
X98000000Y-107089285D01*
X97928571Y-107089285D01*
X97357142Y-107089285D02*
X97357142Y-106696428D01*
X97392857Y-106625000D01*
X97464285Y-106589285D01*
X97607142Y-106589285D01*
X97678571Y-106625000D01*
X97357142Y-107053571D02*
X97428571Y-107089285D01*
X97607142Y-107089285D01*
X97678571Y-107053571D01*
X97714285Y-106982142D01*
X97714285Y-106910714D01*
X97678571Y-106839285D01*
X97607142Y-106803571D01*
X97428571Y-106803571D01*
X97357142Y-106767857D01*
X97000000Y-107089285D02*
X97000000Y-106589285D01*
X97000000Y-106339285D02*
X97035714Y-106375000D01*
X97000000Y-106410714D01*
X96964285Y-106375000D01*
X97000000Y-106339285D01*
X97000000Y-106410714D01*
%TO.C,G\u002A\u002A\u002A*%
G36*
X104043400Y-97533962D02*
G01*
X104147821Y-97533962D01*
X104189479Y-97534429D01*
X104234171Y-97543584D01*
X104252878Y-97576022D01*
X104260386Y-97646527D01*
X104268530Y-97759093D01*
X104698926Y-97766370D01*
X105129323Y-97773648D01*
X105129323Y-98009397D01*
X104698926Y-98016674D01*
X104268530Y-98023952D01*
X104260230Y-98110031D01*
X104257235Y-98149597D01*
X104264997Y-98182232D01*
X104299074Y-98194339D01*
X104372796Y-98196110D01*
X104493660Y-98196110D01*
X104493660Y-98646371D01*
X104705548Y-98646371D01*
X104705548Y-99070146D01*
X104917435Y-99070146D01*
X104917435Y-99520406D01*
X105129323Y-99520406D01*
X105129323Y-99758780D01*
X104890949Y-99758780D01*
X104890949Y-99546892D01*
X104679062Y-99546892D01*
X104679062Y-99126163D01*
X104453932Y-99109875D01*
X104438546Y-98672857D01*
X104228801Y-98672857D01*
X104228801Y-98249082D01*
X104016914Y-98249082D01*
X104016914Y-98010709D01*
X103354766Y-98010709D01*
X103354766Y-97772336D01*
X104016914Y-97772336D01*
X104016914Y-97679635D01*
X104016677Y-97652281D01*
X104008947Y-97607068D01*
X103978802Y-97589741D01*
X103910970Y-97586934D01*
X103805026Y-97586934D01*
X103805026Y-97110187D01*
X104043400Y-97110187D01*
X104043400Y-97533962D01*
G37*
G36*
X150049448Y-103387351D02*
G01*
X149254870Y-103387351D01*
X149254870Y-101268477D01*
X150049448Y-101268477D01*
X150049448Y-103387351D01*
G37*
G36*
X103169364Y-98010709D02*
G01*
X102295329Y-98010709D01*
X102295329Y-98251985D01*
X102043713Y-98235839D01*
X102027567Y-97984223D01*
X102268843Y-97984223D01*
X102268843Y-97772336D01*
X103169364Y-97772336D01*
X103169364Y-98010709D01*
G37*
G36*
X138739959Y-103387351D02*
G01*
X138448613Y-103387351D01*
X138448613Y-101268477D01*
X138739959Y-101268477D01*
X138739959Y-103387351D01*
G37*
G36*
X170364151Y-76689541D02*
G01*
X169172284Y-76689541D01*
X169172284Y-76451168D01*
X170364151Y-76451168D01*
X170364151Y-76689541D01*
G37*
G36*
X174502576Y-75491472D02*
G01*
X173767592Y-75484431D01*
X173751580Y-75206329D01*
X173489489Y-75206329D01*
X173489489Y-74914984D01*
X173198144Y-74914984D01*
X173198144Y-74862012D01*
X173515975Y-74862012D01*
X173807320Y-74862012D01*
X173807320Y-75153357D01*
X174893243Y-75153357D01*
X174893243Y-72080990D01*
X173807320Y-72080990D01*
X173807320Y-72372336D01*
X173515975Y-72372336D01*
X173515975Y-74862012D01*
X173198144Y-74862012D01*
X173198144Y-72319364D01*
X173489489Y-72319364D01*
X173489489Y-72028019D01*
X173751580Y-72028019D01*
X173759586Y-71888967D01*
X173767592Y-71749916D01*
X174502576Y-71742876D01*
X175237560Y-71735835D01*
X175237560Y-75498512D01*
X174502576Y-75491472D01*
G37*
G36*
X110135162Y-98460970D02*
G01*
X109923275Y-98460970D01*
X109923275Y-98672857D01*
X109711387Y-98672857D01*
X109711387Y-98884744D01*
X109446528Y-98884744D01*
X109446528Y-98649417D01*
X109559093Y-98641272D01*
X109596629Y-98638200D01*
X109648880Y-98626587D01*
X109671294Y-98596950D01*
X109679789Y-98535315D01*
X109680614Y-98525711D01*
X109691463Y-98465588D01*
X109720747Y-98439230D01*
X109785732Y-98429371D01*
X109818353Y-98426250D01*
X109863844Y-98413454D01*
X109883631Y-98379569D01*
X109891690Y-98308675D01*
X109899834Y-98196110D01*
X110135162Y-98196110D01*
X110135162Y-98460970D01*
G37*
G36*
X97766236Y-102433858D02*
G01*
X97978123Y-102433858D01*
X97978123Y-102857633D01*
X98190011Y-102857633D01*
X98190011Y-103307893D01*
X98375412Y-103307893D01*
X98375412Y-102857633D01*
X98587300Y-102857633D01*
X98587300Y-102436904D01*
X98699865Y-102428759D01*
X98812430Y-102420615D01*
X98819867Y-102096162D01*
X98827303Y-101771710D01*
X99064046Y-101771710D01*
X99064046Y-102460344D01*
X98852159Y-102460344D01*
X98852159Y-102910605D01*
X98640271Y-102910605D01*
X98640271Y-103331334D01*
X98415141Y-103347622D01*
X98408057Y-104003149D01*
X98400973Y-104658675D01*
X98163525Y-104658675D01*
X98163525Y-103334379D01*
X97925152Y-103334379D01*
X97925152Y-102913802D01*
X97825829Y-102905582D01*
X97726507Y-102897362D01*
X97718814Y-102678853D01*
X97711122Y-102460344D01*
X97501377Y-102460344D01*
X97501377Y-101771710D01*
X97766236Y-101771710D01*
X97766236Y-102433858D01*
G37*
G36*
X136832972Y-103387351D02*
G01*
X136038395Y-103387351D01*
X136038395Y-101268477D01*
X136832972Y-101268477D01*
X136832972Y-103387351D01*
G37*
G36*
X173780835Y-63420094D02*
G01*
X172588968Y-63420094D01*
X172588968Y-63181720D01*
X173780835Y-63181720D01*
X173780835Y-63420094D01*
G37*
G36*
X147877602Y-103387351D02*
G01*
X147586257Y-103387351D01*
X147586257Y-101268477D01*
X147877602Y-101268477D01*
X147877602Y-103387351D01*
G37*
G36*
X159902211Y-103387351D02*
G01*
X159584380Y-103387351D01*
X159584380Y-101268477D01*
X159902211Y-101268477D01*
X159902211Y-103387351D01*
G37*
G36*
X146871137Y-63420094D02*
G01*
X145679270Y-63420094D01*
X145679270Y-63181720D01*
X146871137Y-63181720D01*
X146871137Y-63420094D01*
G37*
G36*
X165437769Y-98381512D02*
G01*
X164855079Y-98381512D01*
X164855079Y-100553357D01*
X164643785Y-100553357D01*
X164636867Y-99474056D01*
X164629948Y-98394755D01*
X164331982Y-98387266D01*
X164034015Y-98379777D01*
X164034015Y-98169624D01*
X165437769Y-98169624D01*
X165437769Y-98381512D01*
G37*
G36*
X152803984Y-62890375D02*
G01*
X152803984Y-62599030D01*
X150870511Y-62599030D01*
X150870511Y-62892903D01*
X150704974Y-62885018D01*
X150539437Y-62877132D01*
X150535174Y-62254713D01*
X150870511Y-62254713D01*
X152803984Y-62254713D01*
X152803984Y-61168790D01*
X150870511Y-61168790D01*
X150870511Y-62254713D01*
X150535174Y-62254713D01*
X150532501Y-61864413D01*
X150525566Y-60851694D01*
X152234536Y-60837716D01*
X152242681Y-60725151D01*
X152250825Y-60612586D01*
X151665089Y-60612586D01*
X151665089Y-60321241D01*
X151373744Y-60321241D01*
X151373744Y-60029896D01*
X151108885Y-60029896D01*
X151108885Y-59765036D01*
X150817539Y-59765036D01*
X150817539Y-59712064D01*
X151161856Y-59712064D01*
X151423947Y-59712064D01*
X151431953Y-59851116D01*
X151439959Y-59990167D01*
X151579010Y-59998172D01*
X151718061Y-60006178D01*
X151718061Y-60268269D01*
X152247779Y-60268269D01*
X152247779Y-60003410D01*
X152512639Y-60003410D01*
X152512639Y-59473691D01*
X151161856Y-59473691D01*
X151161856Y-59712064D01*
X150817539Y-59712064D01*
X150817539Y-59473691D01*
X150523667Y-59473691D01*
X150539437Y-59142617D01*
X151393608Y-59135629D01*
X152247779Y-59128640D01*
X152247779Y-58573170D01*
X152565610Y-58573170D01*
X152565610Y-59126606D01*
X152704661Y-59134611D01*
X152843713Y-59142617D01*
X152851718Y-59281668D01*
X152859724Y-59420719D01*
X153119046Y-59420719D01*
X153135058Y-59698821D01*
X153272771Y-59706781D01*
X153410484Y-59714740D01*
X153418444Y-59852453D01*
X153426403Y-59990167D01*
X153711127Y-59997684D01*
X153995850Y-60005202D01*
X153995850Y-60321241D01*
X153360188Y-60321241D01*
X153360188Y-60029896D01*
X153095329Y-60029896D01*
X153095329Y-59765036D01*
X152856956Y-59765036D01*
X152856956Y-60027127D01*
X152717904Y-60035133D01*
X152578853Y-60043138D01*
X152570848Y-60182190D01*
X152562842Y-60321241D01*
X152274265Y-60321241D01*
X152274265Y-60559614D01*
X152856956Y-60559614D01*
X152856956Y-60850959D01*
X153413160Y-60850959D01*
X153413160Y-61115818D01*
X154260709Y-61115818D01*
X154260709Y-61460135D01*
X153360188Y-61460135D01*
X153360188Y-61165744D01*
X153247623Y-61173889D01*
X153135058Y-61182033D01*
X153128069Y-62036204D01*
X153126281Y-62254713D01*
X153121081Y-62890375D01*
X152803984Y-62890375D01*
G37*
G36*
X138951846Y-63420094D02*
G01*
X137759979Y-63420094D01*
X137759979Y-63181720D01*
X138951846Y-63181720D01*
X138951846Y-63420094D01*
G37*
G36*
X169383177Y-90859510D02*
G01*
X169385993Y-90621136D01*
X169622545Y-90621136D01*
X170364151Y-90621136D01*
X170364151Y-90276819D01*
X169622545Y-90276819D01*
X169622545Y-90621136D01*
X169385993Y-90621136D01*
X169390296Y-90256955D01*
X169392877Y-90038446D01*
X169622545Y-90038446D01*
X170364151Y-90038446D01*
X170364151Y-89879531D01*
X169622545Y-89879531D01*
X169622545Y-90038446D01*
X169392877Y-90038446D01*
X169397414Y-89654400D01*
X169999969Y-89647281D01*
X170602524Y-89640163D01*
X170602524Y-90859510D01*
X169383177Y-90859510D01*
G37*
G36*
X171661961Y-95600490D02*
G01*
X171873848Y-95600490D01*
X171873848Y-95706434D01*
X171874055Y-95737695D01*
X171880819Y-95789367D01*
X171907196Y-95809170D01*
X171966549Y-95812377D01*
X172007801Y-95813112D01*
X172043859Y-95823652D01*
X172057271Y-95858330D01*
X172059250Y-95931564D01*
X172059250Y-96050751D01*
X171847362Y-96050751D01*
X171847362Y-95838863D01*
X171741418Y-95838863D01*
X171710157Y-95838656D01*
X171658486Y-95831892D01*
X171638682Y-95805515D01*
X171635475Y-95746162D01*
X171635463Y-95739107D01*
X171630385Y-95680694D01*
X171604905Y-95657562D01*
X171542774Y-95653462D01*
X171450073Y-95653462D01*
X171450073Y-95229687D01*
X171661961Y-95229687D01*
X171661961Y-95600490D01*
G37*
G36*
X159293035Y-76690536D02*
G01*
X158087925Y-76676298D01*
X158071637Y-76451168D01*
X159293035Y-76451168D01*
X159293035Y-76690536D01*
G37*
G36*
X161094078Y-80718170D02*
G01*
X161094078Y-80980260D01*
X160802732Y-80980260D01*
X160802732Y-81271606D01*
X159902211Y-81271606D01*
X159902211Y-80980260D01*
X159610866Y-80980260D01*
X159610866Y-80715401D01*
X159346007Y-80715401D01*
X159346007Y-80662429D01*
X159663838Y-80662429D01*
X159955183Y-80662429D01*
X159955183Y-80953775D01*
X160749761Y-80953775D01*
X160749761Y-80662429D01*
X161041106Y-80662429D01*
X161041106Y-79870620D01*
X160902055Y-79862614D01*
X160763003Y-79854609D01*
X160754998Y-79715558D01*
X160746992Y-79576507D01*
X159957951Y-79576507D01*
X159949945Y-79715558D01*
X159941940Y-79854609D01*
X159802889Y-79862614D01*
X159663838Y-79870620D01*
X159663838Y-80662429D01*
X159346007Y-80662429D01*
X159346007Y-79814880D01*
X159610866Y-79814880D01*
X159610866Y-79523535D01*
X159902211Y-79523535D01*
X159902211Y-79285161D01*
X159610866Y-79285161D01*
X159610866Y-78993816D01*
X159346007Y-78993816D01*
X159346007Y-78967330D01*
X159663838Y-78967330D01*
X159955183Y-78967330D01*
X159955183Y-79232190D01*
X160749761Y-79232190D01*
X160749761Y-78970099D01*
X161027863Y-78954087D01*
X161042485Y-78146267D01*
X160749761Y-78146267D01*
X160749761Y-77854922D01*
X159955183Y-77854922D01*
X159955183Y-78146267D01*
X159663838Y-78146267D01*
X159663838Y-78967330D01*
X159346007Y-78967330D01*
X159346007Y-78093295D01*
X159610866Y-78093295D01*
X159610866Y-77828436D01*
X159902211Y-77828436D01*
X159902211Y-77537091D01*
X160802732Y-77537091D01*
X160802732Y-77828436D01*
X161094078Y-77828436D01*
X161094078Y-78090527D01*
X161233129Y-78098532D01*
X161372180Y-78106538D01*
X161372830Y-78146267D01*
X161379442Y-78550177D01*
X161386703Y-78993816D01*
X161094078Y-78993816D01*
X161094078Y-79285161D01*
X160802732Y-79285161D01*
X160802732Y-79523535D01*
X161094078Y-79523535D01*
X161094078Y-79814880D01*
X161386703Y-79814880D01*
X161379442Y-80258519D01*
X161372830Y-80662429D01*
X161372180Y-80702158D01*
X161094078Y-80718170D01*
G37*
G36*
X172377081Y-103387351D02*
G01*
X172085735Y-103387351D01*
X172085735Y-101268477D01*
X172377081Y-101268477D01*
X172377081Y-103387351D01*
G37*
G36*
X146632764Y-76552697D02*
G01*
X146632510Y-76569877D01*
X146626374Y-76636261D01*
X146614613Y-76672377D01*
X146607192Y-76674696D01*
X146555729Y-76679177D01*
X146462622Y-76682433D01*
X146335733Y-76684320D01*
X146182924Y-76684695D01*
X146012058Y-76683413D01*
X145427654Y-76676298D01*
X145419510Y-76563733D01*
X145411365Y-76451168D01*
X146632764Y-76451168D01*
X146632764Y-76552697D01*
G37*
G36*
X108360605Y-97772336D02*
G01*
X108572493Y-97772336D01*
X108572493Y-100209040D01*
X108334119Y-100209040D01*
X108334119Y-97798821D01*
X108095746Y-97798821D01*
X108095746Y-97322075D01*
X108360605Y-97322075D01*
X108360605Y-97772336D01*
G37*
G36*
X151307529Y-86330417D02*
G01*
X151301385Y-86330426D01*
X151242475Y-86335402D01*
X151219034Y-86360448D01*
X151214828Y-86421519D01*
X151214771Y-86434507D01*
X151208469Y-86488028D01*
X151180614Y-86511573D01*
X151115506Y-86520841D01*
X151101973Y-86522012D01*
X151043246Y-86533064D01*
X151017620Y-86562810D01*
X151007964Y-86628384D01*
X150999743Y-86727706D01*
X150393765Y-86727706D01*
X150393765Y-86621762D01*
X150393557Y-86590501D01*
X150386794Y-86538829D01*
X150360417Y-86519026D01*
X150301064Y-86515818D01*
X150294008Y-86515807D01*
X150235596Y-86510729D01*
X150212463Y-86485249D01*
X150208363Y-86423118D01*
X150208126Y-86395764D01*
X150200396Y-86350551D01*
X150170252Y-86333223D01*
X150102420Y-86330417D01*
X149996476Y-86330417D01*
X149996476Y-86303931D01*
X150234849Y-86303931D01*
X150327550Y-86303931D01*
X150334606Y-86303942D01*
X150393018Y-86309020D01*
X150416151Y-86334501D01*
X150420251Y-86396632D01*
X150420251Y-86489332D01*
X150976455Y-86489332D01*
X150976455Y-86398231D01*
X150976512Y-86385242D01*
X150982815Y-86331721D01*
X151010670Y-86308176D01*
X151075777Y-86298908D01*
X151175099Y-86290688D01*
X151175099Y-84569103D01*
X151075777Y-84560883D01*
X151061622Y-84559659D01*
X151003840Y-84549096D01*
X150980685Y-84521630D01*
X150976455Y-84461561D01*
X150976455Y-84370459D01*
X150420251Y-84370459D01*
X150420251Y-84463159D01*
X150420239Y-84470215D01*
X150415161Y-84528628D01*
X150389681Y-84551760D01*
X150327550Y-84555860D01*
X150234849Y-84555860D01*
X150234849Y-86303931D01*
X149996476Y-86303931D01*
X149996476Y-84529374D01*
X150102420Y-84529374D01*
X150133681Y-84529167D01*
X150185353Y-84522403D01*
X150205156Y-84496026D01*
X150208363Y-84436673D01*
X150208375Y-84429618D01*
X150213453Y-84371205D01*
X150238933Y-84348073D01*
X150301064Y-84343973D01*
X150328418Y-84343736D01*
X150373630Y-84336006D01*
X150390958Y-84305861D01*
X150393765Y-84238029D01*
X150393765Y-84132085D01*
X150999743Y-84132085D01*
X151007964Y-84231408D01*
X151009135Y-84244941D01*
X151020186Y-84303668D01*
X151049933Y-84329294D01*
X151115506Y-84338950D01*
X151129661Y-84340174D01*
X151187443Y-84350737D01*
X151210599Y-84378203D01*
X151214828Y-84438272D01*
X151214837Y-84444311D01*
X151219901Y-84502204D01*
X151245387Y-84525240D01*
X151307529Y-84529374D01*
X151400230Y-84529374D01*
X151400230Y-86330417D01*
X151307529Y-86330417D01*
G37*
G36*
X161809197Y-103387351D02*
G01*
X160802732Y-103387351D01*
X160802732Y-101268477D01*
X161809197Y-101268477D01*
X161809197Y-103387351D01*
G37*
G36*
X145281982Y-63420094D02*
G01*
X144090115Y-63420094D01*
X144090115Y-63181720D01*
X145281982Y-63181720D01*
X145281982Y-63420094D01*
G37*
G36*
X169039854Y-63420094D02*
G01*
X167847988Y-63420094D01*
X167847988Y-63181720D01*
X169039854Y-63181720D01*
X169039854Y-63420094D01*
G37*
G36*
X125543348Y-104213513D02*
G01*
X125498481Y-104217223D01*
X125450328Y-104229808D01*
X125430335Y-104263521D01*
X125422638Y-104334223D01*
X125418958Y-104379094D01*
X125407032Y-104426558D01*
X125375664Y-104444194D01*
X125310073Y-104446788D01*
X125274048Y-104447043D01*
X125226003Y-104454786D01*
X125208228Y-104484919D01*
X125205652Y-104552732D01*
X125205652Y-104658675D01*
X124517018Y-104658675D01*
X124517018Y-104446788D01*
X124305131Y-104446788D01*
X124305131Y-104208415D01*
X124093243Y-104208415D01*
X124093243Y-104181929D01*
X124331617Y-104181929D01*
X124543504Y-104181929D01*
X124543504Y-104393816D01*
X125179166Y-104393816D01*
X125179166Y-104181929D01*
X125391054Y-104181929D01*
X125391054Y-102248457D01*
X125179166Y-102248457D01*
X125179166Y-102036569D01*
X124543504Y-102036569D01*
X124543504Y-102248457D01*
X124331617Y-102248457D01*
X124331617Y-104181929D01*
X124093243Y-104181929D01*
X124093243Y-102225168D01*
X124192566Y-102216948D01*
X124226426Y-102213727D01*
X124272198Y-102200914D01*
X124292010Y-102167034D01*
X124300032Y-102096162D01*
X124303712Y-102051291D01*
X124315638Y-102003828D01*
X124347006Y-101986191D01*
X124412597Y-101983597D01*
X124448622Y-101983343D01*
X124496667Y-101975599D01*
X124514442Y-101945466D01*
X124517018Y-101877654D01*
X124517018Y-101771710D01*
X125205652Y-101771710D01*
X125205652Y-101877654D01*
X125205903Y-101914204D01*
X125213535Y-101962950D01*
X125243235Y-101980984D01*
X125310073Y-101983597D01*
X125351732Y-101984064D01*
X125396423Y-101993219D01*
X125415131Y-102025657D01*
X125422638Y-102096162D01*
X125426347Y-102141029D01*
X125438933Y-102189182D01*
X125472645Y-102209175D01*
X125543348Y-102216872D01*
X125655913Y-102225016D01*
X125655913Y-104205369D01*
X125543348Y-104213513D01*
G37*
G36*
X151638603Y-63283250D02*
G01*
X151638354Y-63300503D01*
X151632382Y-63366670D01*
X151620946Y-63402436D01*
X151612648Y-63404909D01*
X151559816Y-63409772D01*
X151465508Y-63413949D01*
X151337528Y-63417212D01*
X151183680Y-63419335D01*
X151011770Y-63420094D01*
X150420251Y-63420094D01*
X150420251Y-63181720D01*
X151638603Y-63181720D01*
X151638603Y-63283250D01*
G37*
G36*
X170099291Y-100156069D02*
G01*
X170068030Y-100156276D01*
X170016358Y-100163040D01*
X169996555Y-100189416D01*
X169993348Y-100248769D01*
X169993336Y-100255825D01*
X169988258Y-100314238D01*
X169962778Y-100337370D01*
X169900647Y-100341470D01*
X169872254Y-100341731D01*
X169827722Y-100349634D01*
X169810689Y-100380071D01*
X169807946Y-100448254D01*
X169807946Y-100555039D01*
X169496737Y-100547577D01*
X169185527Y-100540114D01*
X169177307Y-100440792D01*
X169176082Y-100426637D01*
X169165519Y-100368855D01*
X169138053Y-100345700D01*
X169077984Y-100341470D01*
X169071946Y-100341461D01*
X169014053Y-100336398D01*
X168991016Y-100310912D01*
X168986883Y-100248769D01*
X168986871Y-100241713D01*
X168981793Y-100183301D01*
X168956313Y-100160169D01*
X168894182Y-100156069D01*
X168801481Y-100156069D01*
X168801481Y-98381512D01*
X169012645Y-98381512D01*
X169026611Y-100116340D01*
X169125934Y-100124560D01*
X169140089Y-100125784D01*
X169197870Y-100136347D01*
X169221026Y-100163813D01*
X169225256Y-100223882D01*
X169225256Y-100314984D01*
X169781460Y-100314984D01*
X169781460Y-100222283D01*
X169781472Y-100215228D01*
X169786550Y-100156815D01*
X169812030Y-100133683D01*
X169874161Y-100129583D01*
X169966862Y-100129583D01*
X169966862Y-98381512D01*
X169874161Y-98381512D01*
X169867105Y-98381500D01*
X169808693Y-98376422D01*
X169785560Y-98350942D01*
X169781460Y-98288811D01*
X169781460Y-98196110D01*
X169225256Y-98196110D01*
X169225256Y-98288811D01*
X169225009Y-98316615D01*
X169217204Y-98361533D01*
X169186934Y-98378733D01*
X169118950Y-98381512D01*
X169012645Y-98381512D01*
X168801481Y-98381512D01*
X168801481Y-98355026D01*
X168894182Y-98355026D01*
X168901238Y-98355014D01*
X168959650Y-98349936D01*
X168982782Y-98324456D01*
X168986883Y-98262325D01*
X168986891Y-98256181D01*
X168991867Y-98197272D01*
X169016914Y-98173831D01*
X169077984Y-98169624D01*
X169090973Y-98169567D01*
X169144494Y-98163265D01*
X169168038Y-98135410D01*
X169177307Y-98070302D01*
X169185527Y-97970980D01*
X169496737Y-97963518D01*
X169807946Y-97956056D01*
X169807946Y-98062840D01*
X169808172Y-98095547D01*
X169815034Y-98146844D01*
X169841456Y-98166465D01*
X169900647Y-98169624D01*
X169907703Y-98169636D01*
X169966115Y-98174714D01*
X169989248Y-98200194D01*
X169993348Y-98262325D01*
X169993584Y-98289679D01*
X170001314Y-98334891D01*
X170031459Y-98352219D01*
X170099291Y-98355026D01*
X170205235Y-98355026D01*
X170205235Y-100156069D01*
X170099291Y-100156069D01*
G37*
G36*
X148592722Y-103387351D02*
G01*
X148301377Y-103387351D01*
X148301377Y-101268477D01*
X148592722Y-101268477D01*
X148592722Y-103387351D01*
G37*
G36*
X140673431Y-103387351D02*
G01*
X140117227Y-103387351D01*
X140117227Y-101268477D01*
X140673431Y-101268477D01*
X140673431Y-103387351D01*
G37*
G36*
X107671971Y-104658675D02*
G01*
X107671971Y-103572753D01*
X106797936Y-103572753D01*
X106797936Y-103334379D01*
X106586048Y-103334379D01*
X106586048Y-103122492D01*
X106374161Y-103122492D01*
X106374161Y-103096006D01*
X106612534Y-103096006D01*
X106824422Y-103096006D01*
X106824422Y-103307893D01*
X107671971Y-103307893D01*
X107671971Y-102036569D01*
X106824422Y-102036569D01*
X106824422Y-102248457D01*
X106612534Y-102248457D01*
X106612534Y-103096006D01*
X106374161Y-103096006D01*
X106374161Y-102225168D01*
X106473483Y-102216948D01*
X106507344Y-102213727D01*
X106553116Y-102200914D01*
X106572928Y-102167034D01*
X106580950Y-102096162D01*
X106584629Y-102051291D01*
X106596556Y-102003828D01*
X106627923Y-101986191D01*
X106693515Y-101983597D01*
X106729539Y-101983343D01*
X106777585Y-101975599D01*
X106795360Y-101945466D01*
X106797936Y-101877654D01*
X106797936Y-101771710D01*
X107936830Y-101771710D01*
X107936830Y-104658675D01*
X107671971Y-104658675D01*
G37*
G36*
X165437769Y-95838863D02*
G01*
X163054036Y-95838863D01*
X163054036Y-95626976D01*
X165437769Y-95626976D01*
X165437769Y-95838863D01*
G37*
G36*
X138713473Y-76690536D02*
G01*
X137508363Y-76676298D01*
X137500219Y-76563733D01*
X137492074Y-76451168D01*
X138713473Y-76451168D01*
X138713473Y-76690536D01*
G37*
G36*
X154843400Y-103387351D02*
G01*
X154313681Y-103387351D01*
X154313681Y-101268477D01*
X154843400Y-101268477D01*
X154843400Y-103387351D01*
G37*
G36*
X153201273Y-63420094D02*
G01*
X152009406Y-63420094D01*
X152009406Y-63181720D01*
X153201273Y-63181720D01*
X153201273Y-63420094D01*
G37*
G36*
X174999187Y-103387351D02*
G01*
X174495954Y-103387351D01*
X174495954Y-101268477D01*
X174999187Y-101268477D01*
X174999187Y-103387351D01*
G37*
G36*
X167212326Y-76552697D02*
G01*
X167212072Y-76569877D01*
X167205936Y-76636261D01*
X167194175Y-76672377D01*
X167186754Y-76674696D01*
X167135291Y-76679177D01*
X167042184Y-76682433D01*
X166915295Y-76684320D01*
X166762486Y-76684695D01*
X166591620Y-76683413D01*
X166007216Y-76676298D01*
X165999072Y-76563733D01*
X165990927Y-76451168D01*
X167212326Y-76451168D01*
X167212326Y-76552697D01*
G37*
G36*
X135800021Y-63421088D02*
G01*
X135197466Y-63413969D01*
X134594912Y-63406851D01*
X134586767Y-63294286D01*
X134578623Y-63181720D01*
X135800021Y-63181720D01*
X135800021Y-63421088D01*
G37*
G36*
X106162274Y-102248457D02*
G01*
X105500125Y-102248457D01*
X105500125Y-104658675D01*
X105235266Y-104658675D01*
X105235266Y-102248457D01*
X104599604Y-102248457D01*
X104599604Y-101983597D01*
X106162274Y-101983597D01*
X106162274Y-102248457D01*
G37*
G36*
X108387091Y-102221971D02*
G01*
X108598978Y-102221971D01*
X108598978Y-102854587D01*
X108711544Y-102862731D01*
X108824109Y-102870876D01*
X108831386Y-103301272D01*
X108838664Y-103731668D01*
X108994955Y-103731668D01*
X109002233Y-103301272D01*
X109009510Y-102870876D01*
X109122075Y-102862731D01*
X109234641Y-102854587D01*
X109234641Y-102225168D01*
X109433285Y-102208728D01*
X109440978Y-101990219D01*
X109448670Y-101771710D01*
X109711387Y-101771710D01*
X109711387Y-104658675D01*
X109446528Y-104658675D01*
X109446528Y-102910605D01*
X109261127Y-102910605D01*
X109261127Y-103784640D01*
X109049239Y-103784640D01*
X109049239Y-104446788D01*
X108784380Y-104446788D01*
X108784380Y-103784640D01*
X108572493Y-103784640D01*
X108572493Y-102910605D01*
X108387091Y-102910605D01*
X108387091Y-104658675D01*
X108122232Y-104658675D01*
X108122232Y-101771710D01*
X108387091Y-101771710D01*
X108387091Y-102221971D01*
G37*
G36*
X123669469Y-97798821D02*
G01*
X123457581Y-97798821D01*
X123457581Y-98222596D01*
X123192722Y-98222596D01*
X123192722Y-97772336D01*
X123404609Y-97772336D01*
X123404609Y-97322075D01*
X123669469Y-97322075D01*
X123669469Y-97798821D01*
G37*
G36*
X151718061Y-103387351D02*
G01*
X151426716Y-103387351D01*
X151426716Y-101268477D01*
X151718061Y-101268477D01*
X151718061Y-103387351D01*
G37*
G36*
X157703879Y-76689541D02*
G01*
X156512013Y-76689541D01*
X156512013Y-76451168D01*
X157703879Y-76451168D01*
X157703879Y-76689541D01*
G37*
G36*
X149625673Y-88873065D02*
G01*
X149996476Y-88873065D01*
X149996476Y-88472731D01*
X150109041Y-88480875D01*
X150221606Y-88489020D01*
X150229095Y-88786986D01*
X150236584Y-89084953D01*
X150605652Y-89084953D01*
X150605652Y-89296840D01*
X150234849Y-89296840D01*
X150234849Y-90674108D01*
X150022962Y-90674108D01*
X150022962Y-90886875D01*
X149327706Y-90879814D01*
X148632451Y-90872753D01*
X148624231Y-90773430D01*
X148623006Y-90759275D01*
X148612443Y-90701494D01*
X148584977Y-90678338D01*
X148524908Y-90674108D01*
X148433806Y-90674108D01*
X148433806Y-90064932D01*
X148672180Y-90064932D01*
X148672180Y-90647622D01*
X149996476Y-90647622D01*
X149996476Y-89111439D01*
X149625673Y-89111439D01*
X149625673Y-90091418D01*
X149413786Y-90091418D01*
X149413786Y-88926037D01*
X149016497Y-88926037D01*
X149016497Y-88820094D01*
X149016371Y-88797344D01*
X149010637Y-88741005D01*
X148987988Y-88718334D01*
X148937039Y-88714150D01*
X148857581Y-88714150D01*
X148857581Y-89667643D01*
X149254870Y-89667643D01*
X149254870Y-89879531D01*
X148831095Y-89879531D01*
X148831095Y-89786830D01*
X148830845Y-89758858D01*
X148823012Y-89714050D01*
X148792694Y-89696898D01*
X148724654Y-89694129D01*
X148618213Y-89694129D01*
X148625332Y-89091574D01*
X148632451Y-88489020D01*
X149042983Y-88473548D01*
X149042983Y-88687664D01*
X149413786Y-88687664D01*
X149413786Y-87893086D01*
X149625673Y-87893086D01*
X149625673Y-88873065D01*
G37*
G36*
X126026716Y-100420928D02*
G01*
X126026716Y-100209040D01*
X125602941Y-100209040D01*
X125602941Y-99944181D01*
X125867800Y-99944181D01*
X126026716Y-99944181D01*
X126026716Y-99546892D01*
X125867800Y-99546892D01*
X125867800Y-99944181D01*
X125602941Y-99944181D01*
X125602941Y-99282033D01*
X126291575Y-99282033D01*
X126291575Y-100420928D01*
X126026716Y-100420928D01*
G37*
G36*
X162180000Y-97216131D02*
G01*
X161941627Y-97216131D01*
X161941627Y-95441574D01*
X161597310Y-95441574D01*
X161597310Y-95653462D01*
X161014620Y-95653462D01*
X161014620Y-95838863D01*
X160617331Y-95838863D01*
X160617331Y-96050751D01*
X160193556Y-96050751D01*
X160193556Y-95812377D01*
X160590845Y-95812377D01*
X160590845Y-95626976D01*
X160958450Y-95626976D01*
X160966671Y-95527654D01*
X160974891Y-95428331D01*
X161272857Y-95420842D01*
X161570824Y-95413354D01*
X161570824Y-95229687D01*
X161941627Y-95229687D01*
X161941627Y-94249708D01*
X162180000Y-94249708D01*
X162180000Y-97216131D01*
G37*
G36*
X114770198Y-104658675D02*
G01*
X114770198Y-103572753D01*
X113899209Y-103572753D01*
X113891064Y-103460187D01*
X113887355Y-103415321D01*
X113874770Y-103367168D01*
X113841057Y-103347175D01*
X113770355Y-103339478D01*
X113725483Y-103335798D01*
X113678020Y-103323872D01*
X113660383Y-103292504D01*
X113657790Y-103226913D01*
X113657535Y-103190888D01*
X113649791Y-103142843D01*
X113619659Y-103125068D01*
X113551846Y-103122492D01*
X113445902Y-103122492D01*
X113445902Y-103096006D01*
X113710762Y-103096006D01*
X113922649Y-103096006D01*
X113922649Y-103307893D01*
X114770198Y-103307893D01*
X114770198Y-102036569D01*
X113922649Y-102036569D01*
X113922649Y-102248457D01*
X113710762Y-102248457D01*
X113710762Y-103096006D01*
X113445902Y-103096006D01*
X113445902Y-102221971D01*
X113550323Y-102221971D01*
X113591982Y-102221504D01*
X113636673Y-102212349D01*
X113655381Y-102179911D01*
X113662888Y-102109405D01*
X113666598Y-102064538D01*
X113679183Y-102016386D01*
X113712896Y-101996393D01*
X113783598Y-101988696D01*
X113828469Y-101985016D01*
X113875933Y-101973090D01*
X113893569Y-101941722D01*
X113896163Y-101876131D01*
X113896163Y-101771710D01*
X115008572Y-101771710D01*
X115008572Y-104658675D01*
X114770198Y-104658675D01*
G37*
G36*
X158683859Y-103387351D02*
G01*
X158154140Y-103387351D01*
X158154140Y-101268477D01*
X158683859Y-101268477D01*
X158683859Y-103387351D01*
G37*
G36*
X143454453Y-76689541D02*
G01*
X142262586Y-76689541D01*
X142262586Y-76451168D01*
X143454453Y-76451168D01*
X143454453Y-76689541D01*
G37*
G36*
X162709719Y-63420094D02*
G01*
X161517852Y-63420094D01*
X161517852Y-63181720D01*
X162709719Y-63181720D01*
X162709719Y-63420094D01*
G37*
G36*
X159160605Y-103387351D02*
G01*
X158869260Y-103387351D01*
X158869260Y-101268477D01*
X159160605Y-101268477D01*
X159160605Y-103387351D01*
G37*
G36*
X118557685Y-102248457D02*
G01*
X117895537Y-102248457D01*
X117895537Y-104658675D01*
X117657164Y-104658675D01*
X117657164Y-102248457D01*
X116995016Y-102248457D01*
X116995016Y-101983597D01*
X118557685Y-101983597D01*
X118557685Y-102248457D01*
G37*
G36*
X137124317Y-76689541D02*
G01*
X135932451Y-76689541D01*
X135932451Y-76451168D01*
X137124317Y-76451168D01*
X137124317Y-76689541D01*
G37*
G36*
X138024839Y-103387351D02*
G01*
X137468634Y-103387351D01*
X137468634Y-101268477D01*
X138024839Y-101268477D01*
X138024839Y-103387351D01*
G37*
G36*
X163371867Y-80715401D02*
G01*
X163371867Y-80980260D01*
X163107008Y-80980260D01*
X163107008Y-81271606D01*
X162209255Y-81271606D01*
X162201249Y-81132555D01*
X162193243Y-80993503D01*
X162054192Y-80985498D01*
X161915141Y-80977492D01*
X161915141Y-80718170D01*
X161637039Y-80702158D01*
X161637039Y-80662429D01*
X161968113Y-80662429D01*
X162230204Y-80662429D01*
X162238210Y-80801481D01*
X162246215Y-80940532D01*
X162631789Y-80947832D01*
X162690120Y-80948723D01*
X162821338Y-80949055D01*
X162929265Y-80946997D01*
X163004014Y-80942821D01*
X163035700Y-80936796D01*
X163041601Y-80924051D01*
X163050523Y-80869078D01*
X163054036Y-80790445D01*
X163054036Y-80662429D01*
X163318895Y-80662429D01*
X163318895Y-78146267D01*
X163056804Y-78146267D01*
X163048798Y-78007216D01*
X163040793Y-77868165D01*
X162246215Y-77868165D01*
X162238210Y-78007216D01*
X162230204Y-78146267D01*
X161968113Y-78146267D01*
X161968113Y-80662429D01*
X161637039Y-80662429D01*
X161637039Y-78106538D01*
X161776090Y-78098532D01*
X161915141Y-78090527D01*
X161915141Y-77831204D01*
X162054192Y-77823198D01*
X162193243Y-77815193D01*
X162209255Y-77537091D01*
X163107008Y-77537091D01*
X163107008Y-77828436D01*
X163371867Y-77828436D01*
X163371867Y-78093295D01*
X163663212Y-78093295D01*
X163663212Y-80715401D01*
X163371867Y-80715401D01*
G37*
G36*
X120782503Y-103970042D02*
G01*
X120967904Y-103970042D01*
X120967904Y-103519781D01*
X121179792Y-103519781D01*
X121179792Y-103099052D01*
X121292357Y-103090907D01*
X121404922Y-103082763D01*
X121412615Y-102864254D01*
X121420307Y-102645745D01*
X121630052Y-102645745D01*
X121630052Y-102221971D01*
X121841940Y-102221971D01*
X121841940Y-101771710D01*
X122106799Y-101771710D01*
X122106799Y-104658675D01*
X121841940Y-104658675D01*
X121841940Y-102698717D01*
X121656538Y-102698717D01*
X121656538Y-103122492D01*
X121444651Y-103122492D01*
X121444651Y-103572753D01*
X121232764Y-103572753D01*
X121232764Y-103996527D01*
X121023019Y-103996527D01*
X121007633Y-104433545D01*
X120895068Y-104441690D01*
X120850197Y-104445369D01*
X120802733Y-104457296D01*
X120785097Y-104488663D01*
X120782503Y-104554255D01*
X120782503Y-104658675D01*
X120544130Y-104658675D01*
X120544130Y-101771710D01*
X120782503Y-101771710D01*
X120782503Y-103970042D01*
G37*
G36*
X153360188Y-100553357D02*
G01*
X153360188Y-100341470D01*
X153254244Y-100341470D01*
X153222983Y-100341263D01*
X153171311Y-100334499D01*
X153151508Y-100308122D01*
X153148301Y-100248769D01*
X153148289Y-100241713D01*
X153143211Y-100183301D01*
X153117731Y-100160169D01*
X153055600Y-100156069D01*
X152962899Y-100156069D01*
X152962899Y-100129583D01*
X153201273Y-100129583D01*
X153293973Y-100129583D01*
X153301029Y-100129594D01*
X153359442Y-100134672D01*
X153382574Y-100160152D01*
X153386674Y-100222283D01*
X153386674Y-100314984D01*
X154128280Y-100314984D01*
X154128280Y-98196110D01*
X153386674Y-98196110D01*
X153386674Y-98288811D01*
X153386662Y-98295867D01*
X153381585Y-98354279D01*
X153356104Y-98377412D01*
X153293973Y-98381512D01*
X153201273Y-98381512D01*
X153201273Y-100129583D01*
X152962899Y-100129583D01*
X152962899Y-98355026D01*
X153055600Y-98355026D01*
X153061744Y-98355017D01*
X153120654Y-98350041D01*
X153144094Y-98324994D01*
X153148301Y-98263924D01*
X153148358Y-98250936D01*
X153154660Y-98197415D01*
X153182515Y-98173870D01*
X153247623Y-98164602D01*
X153261156Y-98163430D01*
X153319883Y-98152379D01*
X153345509Y-98122633D01*
X153355165Y-98057059D01*
X153363386Y-97957737D01*
X154366653Y-97957737D01*
X154366653Y-100553357D01*
X153360188Y-100553357D01*
G37*
G36*
X168933911Y-61698509D02*
G01*
X169172284Y-61698509D01*
X169172284Y-61142304D01*
X169435351Y-61142304D01*
X169442869Y-60857581D01*
X169450386Y-60572857D01*
X169589437Y-60564851D01*
X169728488Y-60556846D01*
X169728488Y-60003410D01*
X170019834Y-60003410D01*
X170019834Y-59420719D01*
X170311179Y-59420719D01*
X170311179Y-58864515D01*
X170629010Y-58864515D01*
X170629010Y-62599030D01*
X170311179Y-62599030D01*
X170311179Y-60056381D01*
X170072805Y-60056381D01*
X170072805Y-60612586D01*
X169781460Y-60612586D01*
X169781460Y-61166022D01*
X169642409Y-61174028D01*
X169503358Y-61182033D01*
X169495840Y-61466757D01*
X169488323Y-61751481D01*
X169225256Y-61751481D01*
X169225256Y-62307685D01*
X168933911Y-62307685D01*
X168933911Y-62599030D01*
X168589594Y-62599030D01*
X168589594Y-58864515D01*
X168933911Y-58864515D01*
X168933911Y-61698509D01*
G37*
G36*
X168218791Y-98063681D02*
G01*
X168218998Y-98094942D01*
X168225762Y-98146614D01*
X168252138Y-98166417D01*
X168311491Y-98169624D01*
X168318547Y-98169636D01*
X168376960Y-98174714D01*
X168400092Y-98200194D01*
X168404192Y-98262325D01*
X168404429Y-98289679D01*
X168412159Y-98334891D01*
X168442304Y-98352219D01*
X168510136Y-98355026D01*
X168616080Y-98355026D01*
X168616080Y-100156069D01*
X168510136Y-100156069D01*
X168478874Y-100156276D01*
X168427203Y-100163040D01*
X168407400Y-100189416D01*
X168404192Y-100248769D01*
X168404181Y-100255825D01*
X168399103Y-100314238D01*
X168373622Y-100337370D01*
X168311491Y-100341470D01*
X168284138Y-100341707D01*
X168238925Y-100349437D01*
X168221597Y-100379582D01*
X168218791Y-100447414D01*
X168218791Y-100553357D01*
X167609615Y-100553357D01*
X167609615Y-100341470D01*
X167503671Y-100341470D01*
X167472409Y-100341263D01*
X167420738Y-100334499D01*
X167400934Y-100308122D01*
X167397727Y-100248769D01*
X167397716Y-100241713D01*
X167392638Y-100183301D01*
X167367157Y-100160169D01*
X167305026Y-100156069D01*
X167212326Y-100156069D01*
X167212326Y-99520406D01*
X167422478Y-99520406D01*
X167437456Y-100116340D01*
X167536778Y-100124560D01*
X167550933Y-100125784D01*
X167608715Y-100136347D01*
X167631871Y-100163813D01*
X167636100Y-100223882D01*
X167636100Y-100314984D01*
X168192305Y-100314984D01*
X168192305Y-100222283D01*
X168192316Y-100215228D01*
X168197394Y-100156815D01*
X168222875Y-100133683D01*
X168285006Y-100129583D01*
X168377706Y-100129583D01*
X168377706Y-98381512D01*
X168285006Y-98381512D01*
X168277950Y-98381500D01*
X168219537Y-98376422D01*
X168196405Y-98350942D01*
X168192305Y-98288811D01*
X168192305Y-98196110D01*
X167636100Y-98196110D01*
X167636100Y-98287212D01*
X167636043Y-98300201D01*
X167629741Y-98353722D01*
X167601886Y-98377266D01*
X167536778Y-98386534D01*
X167437456Y-98394755D01*
X167421892Y-98778801D01*
X167212326Y-98778801D01*
X167212326Y-98355026D01*
X167305026Y-98355026D01*
X167311171Y-98355017D01*
X167370080Y-98350041D01*
X167393521Y-98324994D01*
X167397727Y-98263924D01*
X167397785Y-98250936D01*
X167404087Y-98197415D01*
X167431942Y-98173870D01*
X167497049Y-98164602D01*
X167510583Y-98163430D01*
X167569310Y-98152379D01*
X167594936Y-98122633D01*
X167604592Y-98057059D01*
X167612812Y-97957737D01*
X168218791Y-97957737D01*
X168218791Y-98063681D01*
G37*
G36*
X155796893Y-103387351D02*
G01*
X155267174Y-103387351D01*
X155267174Y-101268477D01*
X155796893Y-101268477D01*
X155796893Y-103387351D01*
G37*
G36*
X168827967Y-89482242D02*
G01*
X168827967Y-91018425D01*
X169410657Y-91018425D01*
X169410657Y-91256799D01*
X168801481Y-91256799D01*
X168801481Y-91150855D01*
X168801274Y-91119593D01*
X168794510Y-91067922D01*
X168768133Y-91048118D01*
X168708780Y-91044911D01*
X168616080Y-91044911D01*
X168616080Y-88899551D01*
X168825547Y-88899551D01*
X168833378Y-89078331D01*
X168841210Y-89257111D01*
X169200263Y-89264447D01*
X169235401Y-89265075D01*
X169364372Y-89265767D01*
X169471270Y-89263853D01*
X169545806Y-89259634D01*
X169577687Y-89253411D01*
X169586304Y-89225071D01*
X169593353Y-89157349D01*
X169596059Y-89067296D01*
X169596059Y-88899551D01*
X168825547Y-88899551D01*
X168616080Y-88899551D01*
X168616080Y-88661178D01*
X168824448Y-88661178D01*
X169599577Y-88661178D01*
X169591197Y-88588342D01*
X169582816Y-88515506D01*
X168841210Y-88515506D01*
X168824448Y-88661178D01*
X168616080Y-88661178D01*
X168616080Y-88290375D01*
X169807946Y-88290375D01*
X169807946Y-89482242D01*
X168827967Y-89482242D01*
G37*
G36*
X172562482Y-80715401D02*
G01*
X172562482Y-80977492D01*
X172423431Y-80985498D01*
X172284380Y-80993503D01*
X172276374Y-81132555D01*
X172268369Y-81271606D01*
X171370616Y-81271606D01*
X171370616Y-80980260D01*
X171105756Y-80980260D01*
X171105756Y-80715401D01*
X170814411Y-80715401D01*
X170814411Y-80662429D01*
X171131724Y-80662429D01*
X171420819Y-80662429D01*
X171428825Y-80801481D01*
X171436830Y-80940532D01*
X171822405Y-80947832D01*
X171880735Y-80948723D01*
X172011954Y-80949055D01*
X172119880Y-80946997D01*
X172194629Y-80942821D01*
X172226315Y-80936796D01*
X172232217Y-80924051D01*
X172241139Y-80869078D01*
X172244651Y-80790445D01*
X172244651Y-80662429D01*
X172509510Y-80662429D01*
X172509510Y-78146267D01*
X172247419Y-78146267D01*
X172239414Y-78007216D01*
X172231408Y-77868165D01*
X171436830Y-77868165D01*
X171420912Y-78143591D01*
X171283199Y-78151550D01*
X171145485Y-78159510D01*
X171138604Y-79410970D01*
X171131724Y-80662429D01*
X170814411Y-80662429D01*
X170814411Y-78093295D01*
X171105756Y-78093295D01*
X171105756Y-77828436D01*
X171370616Y-77828436D01*
X171370616Y-77537091D01*
X172268369Y-77537091D01*
X172276374Y-77676142D01*
X172284380Y-77815193D01*
X172423431Y-77823198D01*
X172562482Y-77831204D01*
X172562482Y-78093295D01*
X172853827Y-78093295D01*
X172853827Y-80715401D01*
X172562482Y-80715401D01*
G37*
G36*
X149837560Y-84554125D02*
G01*
X149539594Y-84561614D01*
X149241627Y-84569103D01*
X149234708Y-85648404D01*
X149227790Y-86727706D01*
X149017091Y-86727706D01*
X149010172Y-85648404D01*
X149003254Y-84569103D01*
X148718530Y-84561585D01*
X148433806Y-84554068D01*
X148433806Y-84343973D01*
X149837560Y-84343973D01*
X149837560Y-84554125D01*
G37*
G36*
X174707842Y-100553357D02*
G01*
X174707842Y-99361491D01*
X173966236Y-99361491D01*
X173966236Y-99944181D01*
X173782569Y-99944181D01*
X173775081Y-100242148D01*
X173767592Y-100540114D01*
X173655026Y-100548259D01*
X173542461Y-100556403D01*
X173542461Y-99917695D01*
X173727863Y-99917695D01*
X173727863Y-99335005D01*
X173833806Y-99335005D01*
X173855259Y-99334892D01*
X173912306Y-99329288D01*
X173935416Y-99307086D01*
X173939750Y-99257146D01*
X173939746Y-99254566D01*
X173933734Y-99204132D01*
X173905804Y-99180785D01*
X173840428Y-99171067D01*
X173826894Y-99169895D01*
X173768167Y-99158844D01*
X173742542Y-99129098D01*
X173732885Y-99063524D01*
X173731661Y-99049369D01*
X173721098Y-98991587D01*
X173693632Y-98968432D01*
X173633563Y-98964202D01*
X173542461Y-98964202D01*
X173542461Y-98937716D01*
X173780835Y-98937716D01*
X173873535Y-98937716D01*
X173900889Y-98937953D01*
X173946102Y-98945683D01*
X173963430Y-98975828D01*
X173966236Y-99043660D01*
X173966236Y-99149604D01*
X174707842Y-99149604D01*
X174707842Y-98196110D01*
X173966236Y-98196110D01*
X173966236Y-98288811D01*
X173966224Y-98295867D01*
X173961147Y-98354279D01*
X173935666Y-98377412D01*
X173873535Y-98381512D01*
X173780835Y-98381512D01*
X173780835Y-98937716D01*
X173542461Y-98937716D01*
X173542461Y-98355026D01*
X173635162Y-98355026D01*
X173641306Y-98355017D01*
X173700216Y-98350041D01*
X173723656Y-98324994D01*
X173727863Y-98263924D01*
X173727920Y-98250936D01*
X173734222Y-98197415D01*
X173762077Y-98173870D01*
X173827185Y-98164602D01*
X173840718Y-98163430D01*
X173899445Y-98152379D01*
X173925071Y-98122633D01*
X173934727Y-98057059D01*
X173942948Y-97957737D01*
X174946215Y-97957737D01*
X174946215Y-100553357D01*
X174707842Y-100553357D01*
G37*
G36*
X126503462Y-98222596D02*
G01*
X125391054Y-98222596D01*
X125391054Y-97984223D01*
X126503462Y-97984223D01*
X126503462Y-98222596D01*
G37*
G36*
X164298874Y-63421088D02*
G01*
X163696319Y-63413969D01*
X163093765Y-63406851D01*
X163085620Y-63294286D01*
X163077476Y-63181720D01*
X164298874Y-63181720D01*
X164298874Y-63421088D01*
G37*
G36*
X172794234Y-74591916D02*
G01*
X172933285Y-74599921D01*
X172933285Y-75497674D01*
X172616766Y-75497674D01*
X172609489Y-75067278D01*
X172602211Y-74636882D01*
X171920198Y-74629813D01*
X171238186Y-74622745D01*
X171238186Y-75500202D01*
X171072649Y-75492317D01*
X170907112Y-75484431D01*
X170892588Y-74597153D01*
X171185214Y-74597153D01*
X171185214Y-74305808D01*
X171529531Y-74305808D01*
X172324109Y-74305808D01*
X172324109Y-73484744D01*
X172032764Y-73484744D01*
X172032764Y-72634149D01*
X171920198Y-72642293D01*
X171807633Y-72650438D01*
X171793045Y-73484744D01*
X171529531Y-73484744D01*
X171529531Y-74305808D01*
X171185214Y-74305808D01*
X171185214Y-73461027D01*
X171463316Y-73445015D01*
X171470594Y-73014619D01*
X171477871Y-72584223D01*
X171740073Y-72584223D01*
X171747367Y-72167070D01*
X171754661Y-71749916D01*
X172085735Y-71734146D01*
X172085735Y-72581455D01*
X172224787Y-72589460D01*
X172363838Y-72597466D01*
X172371115Y-73027862D01*
X172378393Y-73458258D01*
X172640886Y-73458258D01*
X172648035Y-74021084D01*
X172651651Y-74305808D01*
X172655183Y-74583910D01*
X172794234Y-74591916D01*
G37*
G36*
X120014411Y-100154438D02*
G01*
X120338864Y-100161875D01*
X120663316Y-100169312D01*
X120679462Y-100420928D01*
X119991123Y-100420928D01*
X119982903Y-100321606D01*
X119979682Y-100287745D01*
X119966869Y-100241973D01*
X119932989Y-100222161D01*
X119862117Y-100214139D01*
X119749552Y-100205995D01*
X119749552Y-97110187D01*
X120014411Y-97110187D01*
X120014411Y-100154438D01*
G37*
G36*
X157968739Y-63283250D02*
G01*
X157968489Y-63300503D01*
X157962518Y-63366670D01*
X157951081Y-63402436D01*
X157942784Y-63404909D01*
X157889952Y-63409772D01*
X157795644Y-63413949D01*
X157667663Y-63417212D01*
X157513816Y-63419335D01*
X157341905Y-63420094D01*
X156750386Y-63420094D01*
X156750386Y-63181720D01*
X157968739Y-63181720D01*
X157968739Y-63283250D01*
G37*
G36*
X100838603Y-104658675D02*
G01*
X99275934Y-104658675D01*
X99275934Y-104393816D01*
X100573744Y-104393816D01*
X100573744Y-103334379D01*
X99487821Y-103334379D01*
X99487821Y-103096006D01*
X100573744Y-103096006D01*
X100573744Y-102036569D01*
X99275934Y-102036569D01*
X99275934Y-101771710D01*
X100838603Y-101771710D01*
X100838603Y-104658675D01*
G37*
G36*
X122212743Y-98460970D02*
G01*
X122212743Y-99070146D01*
X122424630Y-99070146D01*
X122424630Y-99732294D01*
X122636518Y-99732294D01*
X122636518Y-100156069D01*
X122848405Y-100156069D01*
X122848405Y-100420928D01*
X122610032Y-100420928D01*
X122610032Y-100209040D01*
X122371658Y-100209040D01*
X122371658Y-99758780D01*
X122159771Y-99758780D01*
X122159771Y-99123118D01*
X121338707Y-99123118D01*
X121338707Y-100156069D01*
X121974369Y-100156069D01*
X121974369Y-100420928D01*
X121285735Y-100420928D01*
X121285735Y-100209040D01*
X121073848Y-100209040D01*
X121073848Y-98858258D01*
X121947884Y-98858258D01*
X121947884Y-98460970D01*
X121073848Y-98460970D01*
X121073848Y-98196110D01*
X121338707Y-98196110D01*
X122371658Y-98196110D01*
X122371658Y-97586934D01*
X121338707Y-97586934D01*
X121338707Y-98196110D01*
X121073848Y-98196110D01*
X121073848Y-97322075D01*
X122636518Y-97322075D01*
X122636518Y-98460970D01*
X122212743Y-98460970D01*
G37*
G36*
X154552055Y-76552697D02*
G01*
X154551805Y-76569950D01*
X154545834Y-76636117D01*
X154534397Y-76671884D01*
X154526100Y-76674357D01*
X154473268Y-76679220D01*
X154378960Y-76683396D01*
X154250979Y-76686659D01*
X154097131Y-76688783D01*
X153925221Y-76689541D01*
X153333702Y-76689541D01*
X153333702Y-76451168D01*
X154552055Y-76451168D01*
X154552055Y-76552697D01*
G37*
G36*
X148221919Y-76552697D02*
G01*
X148221670Y-76569950D01*
X148215698Y-76636117D01*
X148204262Y-76671884D01*
X148195964Y-76674357D01*
X148143132Y-76679220D01*
X148048824Y-76683396D01*
X147920844Y-76686659D01*
X147766996Y-76688783D01*
X147595086Y-76689541D01*
X147003567Y-76689541D01*
X147003567Y-76451168D01*
X148221919Y-76451168D01*
X148221919Y-76552697D01*
G37*
G36*
X163742670Y-62599030D02*
G01*
X161700726Y-62599030D01*
X161708611Y-62433493D01*
X161716497Y-62267956D01*
X162570668Y-62260968D01*
X163424839Y-62253979D01*
X163424839Y-60903931D01*
X161994599Y-60903931D01*
X161994599Y-60559614D01*
X163425733Y-60559614D01*
X163418664Y-59877601D01*
X163411596Y-59195589D01*
X162557425Y-59188601D01*
X161703254Y-59181612D01*
X161703254Y-58864515D01*
X163742670Y-58864515D01*
X163742670Y-62599030D01*
G37*
G36*
X156591471Y-62599030D02*
G01*
X156035266Y-62599030D01*
X156035266Y-62727045D01*
X156034318Y-62769286D01*
X156027965Y-62837866D01*
X156017609Y-62872718D01*
X156001829Y-62876793D01*
X155940155Y-62882191D01*
X155841011Y-62886496D01*
X155713657Y-62889345D01*
X155567348Y-62890375D01*
X155134745Y-62890375D01*
X155134745Y-62546058D01*
X155982294Y-62546058D01*
X155982294Y-62254713D01*
X156591471Y-62254713D01*
X156591471Y-62599030D01*
G37*
G36*
X115511804Y-100420928D02*
G01*
X115511804Y-99998465D01*
X115081408Y-99991188D01*
X114651012Y-99983910D01*
X114649439Y-99732294D01*
X114902628Y-99732294D01*
X115511804Y-99732294D01*
X115511804Y-98884744D01*
X114902628Y-98884744D01*
X114902628Y-99732294D01*
X114649439Y-99732294D01*
X114642651Y-98646371D01*
X114902628Y-98646371D01*
X115511804Y-98646371D01*
X115511804Y-98010709D01*
X114902628Y-98010709D01*
X114902628Y-98646371D01*
X114642651Y-98646371D01*
X114637188Y-97772336D01*
X115299917Y-97772336D01*
X115299917Y-97679635D01*
X115299680Y-97652281D01*
X115291950Y-97607068D01*
X115261805Y-97589741D01*
X115193973Y-97586934D01*
X115088030Y-97586934D01*
X115088030Y-97110187D01*
X115326403Y-97110187D01*
X115326403Y-97530916D01*
X115438968Y-97539061D01*
X115483835Y-97542770D01*
X115531987Y-97555356D01*
X115551981Y-97589068D01*
X115559678Y-97659770D01*
X115563357Y-97704642D01*
X115575284Y-97752105D01*
X115606651Y-97769742D01*
X115672243Y-97772336D01*
X115776664Y-97772336D01*
X115776664Y-100420928D01*
X115511804Y-100420928D01*
G37*
G36*
X164457790Y-103387351D02*
G01*
X163928071Y-103387351D01*
X163928071Y-101268477D01*
X164457790Y-101268477D01*
X164457790Y-103387351D01*
G37*
G36*
X167026924Y-99917695D02*
G01*
X167026924Y-100556403D01*
X166914359Y-100548259D01*
X166801794Y-100540114D01*
X166794305Y-100242148D01*
X166786816Y-99944181D01*
X165861544Y-99944181D01*
X165861544Y-100553357D01*
X165623170Y-100553357D01*
X165623170Y-99917695D01*
X165835058Y-99917695D01*
X165835058Y-99732294D01*
X166046945Y-99732294D01*
X166603149Y-99732294D01*
X166603149Y-99176089D01*
X166417748Y-99176089D01*
X166417748Y-98593399D01*
X166260625Y-98593399D01*
X166253107Y-98878123D01*
X166245590Y-99162847D01*
X166146267Y-99171067D01*
X166046945Y-99179287D01*
X166046945Y-99732294D01*
X165835058Y-99732294D01*
X165835058Y-99149604D01*
X166020459Y-99149604D01*
X166020459Y-98540427D01*
X166204068Y-98540427D01*
X166211586Y-98255704D01*
X166219104Y-97970980D01*
X166331669Y-97962836D01*
X166444234Y-97954691D01*
X166444234Y-98540427D01*
X166627900Y-98540427D01*
X166642878Y-99136361D01*
X166742201Y-99144581D01*
X166841523Y-99152801D01*
X166841523Y-99917695D01*
X167026924Y-99917695D01*
G37*
G36*
X143798770Y-103387351D02*
G01*
X143480939Y-103387351D01*
X143480939Y-101268477D01*
X143798770Y-101268477D01*
X143798770Y-103387351D01*
G37*
G36*
X158842774Y-61167445D02*
G01*
X158008468Y-61182033D01*
X157993306Y-61698509D01*
X159134119Y-61698509D01*
X159134119Y-62016340D01*
X154843400Y-62016340D01*
X154843400Y-61698509D01*
X156247154Y-61698509D01*
X156591471Y-61698509D01*
X157677393Y-61698509D01*
X157677393Y-61168790D01*
X156591471Y-61168790D01*
X156591471Y-61698509D01*
X156247154Y-61698509D01*
X156247154Y-61168790D01*
X155399604Y-61168790D01*
X155399604Y-60850959D01*
X156247154Y-60850959D01*
X156591471Y-60850959D01*
X157677393Y-60850959D01*
X157677393Y-60612586D01*
X156591471Y-60612586D01*
X156591471Y-60850959D01*
X156247154Y-60850959D01*
X156247154Y-60612586D01*
X155690949Y-60612586D01*
X155690949Y-60268269D01*
X156035266Y-60268269D01*
X158233598Y-60268269D01*
X158233598Y-59765036D01*
X157439020Y-59765036D01*
X157439020Y-60268269D01*
X157094703Y-60268269D01*
X157094703Y-59765036D01*
X156035266Y-59765036D01*
X156035266Y-60268269D01*
X155690949Y-60268269D01*
X155690949Y-59420719D01*
X156035266Y-59420719D01*
X158233598Y-59420719D01*
X158233598Y-59182346D01*
X157439020Y-59182346D01*
X157439020Y-59420719D01*
X157094703Y-59420719D01*
X157094703Y-59182346D01*
X156035266Y-59182346D01*
X156035266Y-59420719D01*
X155690949Y-59420719D01*
X155690949Y-58864515D01*
X158577915Y-58864515D01*
X158577915Y-60612586D01*
X157992179Y-60612586D01*
X158000323Y-60725151D01*
X158008468Y-60837716D01*
X158765852Y-60850959D01*
X158842774Y-60852304D01*
X158842774Y-61167445D01*
G37*
G36*
X135376246Y-103387351D02*
G01*
X134873014Y-103387351D01*
X134873014Y-101268477D01*
X135376246Y-101268477D01*
X135376246Y-103387351D01*
G37*
G36*
X168351220Y-75497674D02*
G01*
X166311804Y-75497674D01*
X166311804Y-75153357D01*
X168006903Y-75153357D01*
X168006903Y-73776089D01*
X166603149Y-73776089D01*
X166603149Y-73458258D01*
X168006903Y-73458258D01*
X168006903Y-72080990D01*
X166311804Y-72080990D01*
X166311804Y-71736673D01*
X168351220Y-71736673D01*
X168351220Y-75497674D01*
G37*
G36*
X105184213Y-73060970D02*
G01*
X105176632Y-73319207D01*
X105169051Y-73577445D01*
X104910814Y-73585026D01*
X104652576Y-73592606D01*
X104652576Y-74093921D01*
X103063421Y-74093921D01*
X103063421Y-73590688D01*
X102560188Y-73590688D01*
X102560188Y-73060970D01*
X102056956Y-73060970D01*
X102056956Y-72981512D01*
X102639646Y-72981512D01*
X103142878Y-72981512D01*
X103142878Y-73484744D01*
X104571130Y-73484744D01*
X104578746Y-73239750D01*
X104586361Y-72994755D01*
X104831356Y-72987139D01*
X105076351Y-72979524D01*
X105076351Y-68505391D01*
X104573118Y-68505391D01*
X104573118Y-68002158D01*
X103142878Y-68002158D01*
X103142878Y-68505391D01*
X102639646Y-68505391D01*
X102639646Y-72981512D01*
X102056956Y-72981512D01*
X102056956Y-68427921D01*
X102301950Y-68420305D01*
X102546945Y-68412690D01*
X102554526Y-68154452D01*
X102562106Y-67896215D01*
X103063421Y-67896215D01*
X103063421Y-67392982D01*
X104652576Y-67392982D01*
X104652576Y-67894296D01*
X104910814Y-67901877D01*
X105169051Y-67909458D01*
X105176632Y-68167695D01*
X105184213Y-68425933D01*
X105685527Y-68425933D01*
X105685527Y-73060970D01*
X105184213Y-73060970D01*
G37*
G36*
X105976872Y-80424056D02*
G01*
X105976872Y-79814880D01*
X106559562Y-79814880D01*
X110029218Y-79814880D01*
X110029218Y-79391105D01*
X106559562Y-79391105D01*
X106559562Y-79814880D01*
X105976872Y-79814880D01*
X105976872Y-78384640D01*
X106557334Y-78384640D01*
X106565070Y-78589906D01*
X106572805Y-78795172D01*
X108283163Y-78801985D01*
X108381235Y-78802346D01*
X108672831Y-78803066D01*
X108947250Y-78803223D01*
X109200016Y-78802845D01*
X109426656Y-78801960D01*
X109622695Y-78800599D01*
X109783661Y-78798788D01*
X109905078Y-78796558D01*
X109982472Y-78793935D01*
X110011369Y-78790949D01*
X110012444Y-78789523D01*
X110020936Y-78750922D01*
X110026941Y-78675790D01*
X110029218Y-78578870D01*
X110029218Y-78384640D01*
X106557334Y-78384640D01*
X105976872Y-78384640D01*
X105976872Y-77775464D01*
X106559562Y-77775464D01*
X110029218Y-77775464D01*
X110029218Y-77378175D01*
X106559562Y-77378175D01*
X106559562Y-77775464D01*
X105976872Y-77775464D01*
X105976872Y-76768999D01*
X107989802Y-76768999D01*
X107989802Y-76345224D01*
X104970407Y-76345224D01*
X104970407Y-75762534D01*
X107989802Y-75762534D01*
X107989802Y-75259301D01*
X108598978Y-75259301D01*
X108598978Y-75762534D01*
X111644860Y-75762534D01*
X111644860Y-76345224D01*
X108598978Y-76345224D01*
X108598978Y-76768999D01*
X110611909Y-76768999D01*
X110611909Y-80424056D01*
X105976872Y-80424056D01*
G37*
G36*
X135535162Y-76689541D02*
G01*
X134343295Y-76689541D01*
X134343295Y-76451168D01*
X135535162Y-76451168D01*
X135535162Y-76689541D01*
G37*
G36*
X170470094Y-103387351D02*
G01*
X170152263Y-103387351D01*
X170152263Y-101268477D01*
X170470094Y-101268477D01*
X170470094Y-103387351D01*
G37*
G36*
X118743087Y-100420928D02*
G01*
X118743087Y-100209040D01*
X116809615Y-100209040D01*
X116809615Y-100420928D01*
X116544755Y-100420928D01*
X116544755Y-99944181D01*
X116809615Y-99944181D01*
X118743087Y-99944181D01*
X118743087Y-99123118D01*
X116809615Y-99123118D01*
X116809615Y-99944181D01*
X116544755Y-99944181D01*
X116544755Y-98858258D01*
X116809615Y-98858258D01*
X118743087Y-98858258D01*
X118743087Y-98460970D01*
X116809615Y-98460970D01*
X116809615Y-98858258D01*
X116544755Y-98858258D01*
X116544755Y-98196110D01*
X116809615Y-98196110D01*
X118743087Y-98196110D01*
X118743087Y-97586934D01*
X116809615Y-97586934D01*
X116809615Y-98196110D01*
X116544755Y-98196110D01*
X116544755Y-97322075D01*
X118981460Y-97322075D01*
X118981460Y-100420928D01*
X118743087Y-100420928D01*
G37*
G36*
X153889906Y-103387351D02*
G01*
X153572075Y-103387351D01*
X153572075Y-101268477D01*
X153889906Y-101268477D01*
X153889906Y-103387351D01*
G37*
G36*
X109790845Y-68505391D02*
G01*
X108281147Y-68505391D01*
X108281147Y-74093921D01*
X107671971Y-74093921D01*
X107671971Y-68505391D01*
X106162274Y-68505391D01*
X106162274Y-67896215D01*
X109790845Y-67896215D01*
X109790845Y-68505391D01*
G37*
G36*
X173171658Y-89641157D02*
G01*
X173357060Y-89641157D01*
X173357060Y-90038446D01*
X173568947Y-90038446D01*
X173568947Y-90144390D01*
X173569154Y-90175651D01*
X173575918Y-90227323D01*
X173602295Y-90247126D01*
X173661648Y-90250333D01*
X173668704Y-90250345D01*
X173727116Y-90255423D01*
X173750249Y-90280903D01*
X173754349Y-90343034D01*
X173754586Y-90370388D01*
X173762315Y-90415601D01*
X173792460Y-90432929D01*
X173860292Y-90435735D01*
X173891554Y-90435942D01*
X173943225Y-90442706D01*
X173963029Y-90469083D01*
X173966236Y-90528436D01*
X173966248Y-90535492D01*
X173971325Y-90593904D01*
X173996806Y-90617036D01*
X174058937Y-90621136D01*
X174086291Y-90621373D01*
X174131503Y-90629103D01*
X174148831Y-90659248D01*
X174151637Y-90727080D01*
X174151845Y-90758342D01*
X174158608Y-90810013D01*
X174184985Y-90829816D01*
X174244338Y-90833024D01*
X174251394Y-90833035D01*
X174309807Y-90838113D01*
X174332939Y-90863594D01*
X174337039Y-90925725D01*
X174337276Y-90953078D01*
X174345006Y-90998291D01*
X174375151Y-91015619D01*
X174442983Y-91018425D01*
X174548926Y-91018425D01*
X174548926Y-91256799D01*
X174310553Y-91256799D01*
X174310553Y-91150855D01*
X174310346Y-91119593D01*
X174303582Y-91067922D01*
X174277205Y-91048118D01*
X174217852Y-91044911D01*
X174210796Y-91044900D01*
X174152384Y-91039822D01*
X174129252Y-91014341D01*
X174125152Y-90952210D01*
X174124915Y-90924857D01*
X174117185Y-90879644D01*
X174087040Y-90862316D01*
X174019208Y-90859510D01*
X173987946Y-90859302D01*
X173936275Y-90852539D01*
X173916471Y-90826162D01*
X173913264Y-90766809D01*
X173913253Y-90759753D01*
X173908175Y-90701341D01*
X173882694Y-90678208D01*
X173820563Y-90674108D01*
X173793210Y-90673871D01*
X173747997Y-90666141D01*
X173730669Y-90635997D01*
X173727863Y-90568165D01*
X173727655Y-90536903D01*
X173720892Y-90485232D01*
X173694515Y-90465428D01*
X173635162Y-90462221D01*
X173628106Y-90462209D01*
X173569694Y-90457131D01*
X173546561Y-90431651D01*
X173542461Y-90369520D01*
X173542224Y-90342166D01*
X173534494Y-90296954D01*
X173504350Y-90279626D01*
X173436518Y-90276819D01*
X173330574Y-90276819D01*
X173330574Y-90170876D01*
X173330367Y-90139614D01*
X173323603Y-90087943D01*
X173297226Y-90068139D01*
X173237873Y-90064932D01*
X173145172Y-90064932D01*
X173145172Y-89694129D01*
X172986257Y-89694129D01*
X172986257Y-90061734D01*
X172886935Y-90069955D01*
X172787612Y-90078175D01*
X172779831Y-90270198D01*
X172772049Y-90462221D01*
X172682107Y-90462221D01*
X172669992Y-90462273D01*
X172616759Y-90468561D01*
X172593246Y-90496420D01*
X172583945Y-90561543D01*
X172583687Y-90564630D01*
X172573261Y-90629091D01*
X172546899Y-90658246D01*
X172489646Y-90669165D01*
X172434442Y-90678906D01*
X172408705Y-90706266D01*
X172403567Y-90768487D01*
X172403335Y-90794572D01*
X172395610Y-90839392D01*
X172365461Y-90856666D01*
X172297623Y-90859510D01*
X172266361Y-90859717D01*
X172214690Y-90866481D01*
X172194887Y-90892857D01*
X172191679Y-90952210D01*
X172191668Y-90959266D01*
X172186590Y-91017679D01*
X172161109Y-91040811D01*
X172098978Y-91044911D01*
X172071625Y-91045148D01*
X172026412Y-91052878D01*
X172009084Y-91083023D01*
X172006278Y-91150855D01*
X172006278Y-91256799D01*
X171582503Y-91256799D01*
X171582503Y-91018425D01*
X171979792Y-91018425D01*
X171979792Y-90925725D01*
X171979803Y-90918669D01*
X171984881Y-90860256D01*
X172010362Y-90837124D01*
X172072493Y-90833024D01*
X172099846Y-90832787D01*
X172145059Y-90825057D01*
X172162387Y-90794912D01*
X172165193Y-90727080D01*
X172165401Y-90695819D01*
X172172164Y-90644147D01*
X172198541Y-90624344D01*
X172257894Y-90621136D01*
X172264950Y-90621125D01*
X172323362Y-90616047D01*
X172346495Y-90590567D01*
X172350595Y-90528436D01*
X172350832Y-90501082D01*
X172358561Y-90455869D01*
X172388706Y-90438541D01*
X172456538Y-90435735D01*
X172562482Y-90435735D01*
X172562482Y-90038446D01*
X172747884Y-90038446D01*
X172747884Y-89641157D01*
X172933285Y-89641157D01*
X172933285Y-88290375D01*
X173171658Y-88290375D01*
X173171658Y-89641157D01*
G37*
G36*
X137389177Y-63283250D02*
G01*
X137388927Y-63300503D01*
X137382956Y-63366670D01*
X137371519Y-63402436D01*
X137363222Y-63404909D01*
X137310390Y-63409772D01*
X137216082Y-63413949D01*
X137088101Y-63417212D01*
X136934253Y-63419335D01*
X136762343Y-63420094D01*
X136170824Y-63420094D01*
X136170824Y-63181720D01*
X137389177Y-63181720D01*
X137389177Y-63283250D01*
G37*
G36*
X101288864Y-101983597D02*
G01*
X101527237Y-101983597D01*
X101527237Y-102221971D01*
X101739124Y-102221971D01*
X101739124Y-102433858D01*
X101951012Y-102433858D01*
X101951012Y-102645745D01*
X102162899Y-102645745D01*
X102162899Y-102751689D01*
X102163106Y-102782951D01*
X102169870Y-102834622D01*
X102196247Y-102854425D01*
X102255600Y-102857633D01*
X102348301Y-102857633D01*
X102348301Y-101771710D01*
X102613160Y-101771710D01*
X102613160Y-104658675D01*
X102348301Y-104658675D01*
X102348301Y-103331023D01*
X102262221Y-103339323D01*
X102240010Y-103341766D01*
X102196304Y-103354838D01*
X102176441Y-103388999D01*
X102167998Y-103460187D01*
X102164318Y-103505059D01*
X102152391Y-103552522D01*
X102121024Y-103570159D01*
X102055433Y-103572753D01*
X102019408Y-103573007D01*
X101971362Y-103580751D01*
X101953588Y-103610884D01*
X101951012Y-103678696D01*
X101951012Y-103784640D01*
X101739124Y-103784640D01*
X101739124Y-104208415D01*
X101634704Y-104208415D01*
X101593045Y-104208882D01*
X101548353Y-104218037D01*
X101529646Y-104250475D01*
X101522138Y-104320980D01*
X101518429Y-104365847D01*
X101505844Y-104413999D01*
X101472131Y-104433993D01*
X101401429Y-104441690D01*
X101356558Y-104445369D01*
X101309094Y-104457296D01*
X101291457Y-104488663D01*
X101288864Y-104554255D01*
X101288864Y-104658675D01*
X101050490Y-104658675D01*
X101050490Y-104393816D01*
X101262378Y-104393816D01*
X101262378Y-104287873D01*
X101262630Y-104251148D01*
X101270295Y-104202499D01*
X101300123Y-104184523D01*
X101367250Y-104181929D01*
X101472123Y-104181929D01*
X101479816Y-103963420D01*
X101487508Y-103744911D01*
X101600073Y-103736767D01*
X101644945Y-103733087D01*
X101692408Y-103721160D01*
X101710045Y-103689793D01*
X101712639Y-103624202D01*
X101712893Y-103588177D01*
X101720637Y-103540131D01*
X101750769Y-103522357D01*
X101818582Y-103519781D01*
X101924526Y-103519781D01*
X101924526Y-103307893D01*
X102136413Y-103307893D01*
X102136413Y-102910605D01*
X101924526Y-102910605D01*
X101924526Y-102804661D01*
X101924275Y-102768111D01*
X101916643Y-102719365D01*
X101886943Y-102701330D01*
X101820105Y-102698717D01*
X101778446Y-102698250D01*
X101733755Y-102689095D01*
X101715047Y-102656657D01*
X101707540Y-102586152D01*
X101703831Y-102541285D01*
X101691245Y-102493133D01*
X101657532Y-102473139D01*
X101586830Y-102465442D01*
X101541959Y-102461763D01*
X101494496Y-102449836D01*
X101476859Y-102418469D01*
X101474265Y-102352877D01*
X101474011Y-102316853D01*
X101466267Y-102268807D01*
X101436134Y-102251032D01*
X101368322Y-102248457D01*
X101262378Y-102248457D01*
X101262378Y-102036569D01*
X101050490Y-102036569D01*
X101050490Y-101771710D01*
X101288864Y-101771710D01*
X101288864Y-101983597D01*
G37*
G36*
X151373744Y-76689541D02*
G01*
X150181877Y-76689541D01*
X150181877Y-76451168D01*
X151373744Y-76451168D01*
X151373744Y-76689541D01*
G37*
G36*
X139455079Y-103387351D02*
G01*
X139163733Y-103387351D01*
X139163733Y-101268477D01*
X139455079Y-101268477D01*
X139455079Y-103387351D01*
G37*
G36*
X114240480Y-97984223D02*
G01*
X114452367Y-97984223D01*
X114452367Y-98460970D01*
X114213994Y-98460970D01*
X114213994Y-98010709D01*
X113975621Y-98010709D01*
X113975621Y-97798821D01*
X112942670Y-97798821D01*
X112942670Y-99944181D01*
X113154557Y-99944181D01*
X113154557Y-100156069D01*
X113790219Y-100156069D01*
X113790219Y-100420928D01*
X113101585Y-100420928D01*
X113101585Y-100209040D01*
X112889698Y-100209040D01*
X112889698Y-99997153D01*
X112677811Y-99997153D01*
X112677811Y-97533962D01*
X113975621Y-97533962D01*
X113975621Y-97110187D01*
X114240480Y-97110187D01*
X114240480Y-97984223D01*
G37*
G36*
X148235162Y-84145328D02*
G01*
X148242035Y-85436517D01*
X148248909Y-86727706D01*
X148010032Y-86727706D01*
X148010032Y-85534617D01*
X147539906Y-85541850D01*
X147069781Y-85549082D01*
X147055525Y-86727706D01*
X146844651Y-86727706D01*
X146844651Y-84132085D01*
X147055525Y-84132085D01*
X147069781Y-85310709D01*
X147539906Y-85317941D01*
X148010032Y-85325174D01*
X148010032Y-84129040D01*
X148235162Y-84145328D01*
G37*
G36*
X170946841Y-91256799D02*
G01*
X170946841Y-89482242D01*
X169966862Y-89482242D01*
X169966862Y-89270354D01*
X170205235Y-89270354D01*
X170946841Y-89270354D01*
X170946841Y-88899551D01*
X170205235Y-88899551D01*
X170205235Y-89270354D01*
X169966862Y-89270354D01*
X169966862Y-88661178D01*
X170205235Y-88661178D01*
X170946841Y-88661178D01*
X170946841Y-88502263D01*
X170205235Y-88502263D01*
X170205235Y-88661178D01*
X169966862Y-88661178D01*
X169966862Y-88290375D01*
X171185214Y-88290375D01*
X171185214Y-91256799D01*
X170946841Y-91256799D01*
G37*
G36*
X140302628Y-76552697D02*
G01*
X140302374Y-76569877D01*
X140296239Y-76636261D01*
X140284477Y-76672377D01*
X140277056Y-76674696D01*
X140225594Y-76679177D01*
X140132487Y-76682433D01*
X140005598Y-76684320D01*
X139852789Y-76684695D01*
X139681922Y-76683413D01*
X139097519Y-76676298D01*
X139089374Y-76563733D01*
X139081230Y-76451168D01*
X140302628Y-76451168D01*
X140302628Y-76552697D01*
G37*
G36*
X171661961Y-103387351D02*
G01*
X170655496Y-103387351D01*
X170655496Y-101268477D01*
X171661961Y-101268477D01*
X171661961Y-103387351D01*
G37*
G36*
X162180000Y-100156069D02*
G01*
X162148739Y-100156276D01*
X162097067Y-100163040D01*
X162077264Y-100189416D01*
X162074057Y-100248769D01*
X162074045Y-100255825D01*
X162068967Y-100314238D01*
X162043487Y-100337370D01*
X161981356Y-100341470D01*
X161954002Y-100341707D01*
X161908790Y-100349437D01*
X161891462Y-100379582D01*
X161888655Y-100447414D01*
X161888655Y-100553357D01*
X161282677Y-100553357D01*
X161274456Y-100454035D01*
X161273285Y-100440502D01*
X161262234Y-100381775D01*
X161232487Y-100356149D01*
X161166914Y-100346493D01*
X161152759Y-100345269D01*
X161094977Y-100334706D01*
X161071821Y-100307240D01*
X161067592Y-100247171D01*
X161067582Y-100241132D01*
X161062519Y-100183239D01*
X161037033Y-100160202D01*
X160974891Y-100156069D01*
X160882190Y-100156069D01*
X160882190Y-100116340D01*
X161107320Y-100116340D01*
X161206643Y-100124560D01*
X161220798Y-100125784D01*
X161278580Y-100136347D01*
X161301735Y-100163813D01*
X161305965Y-100223882D01*
X161305965Y-100314984D01*
X161862169Y-100314984D01*
X161862169Y-100222283D01*
X161862181Y-100215228D01*
X161867259Y-100156815D01*
X161892739Y-100133683D01*
X161954870Y-100129583D01*
X162047571Y-100129583D01*
X162047571Y-98381512D01*
X161954870Y-98381512D01*
X161947814Y-98381500D01*
X161889402Y-98376422D01*
X161866269Y-98350942D01*
X161862169Y-98288811D01*
X161862169Y-98196110D01*
X161305965Y-98196110D01*
X161305965Y-98287212D01*
X161305907Y-98300201D01*
X161299605Y-98353722D01*
X161271750Y-98377266D01*
X161206643Y-98386534D01*
X161107320Y-98394755D01*
X161107320Y-100116340D01*
X160882190Y-100116340D01*
X160882190Y-98355026D01*
X160974891Y-98355026D01*
X160981035Y-98355017D01*
X161039944Y-98350041D01*
X161063385Y-98324994D01*
X161067592Y-98263924D01*
X161067649Y-98250936D01*
X161073951Y-98197415D01*
X161101806Y-98173870D01*
X161166914Y-98164602D01*
X161180447Y-98163430D01*
X161239174Y-98152379D01*
X161264800Y-98122633D01*
X161274456Y-98057059D01*
X161282677Y-97957737D01*
X161888655Y-97957737D01*
X161888655Y-98063681D01*
X161888862Y-98094942D01*
X161895626Y-98146614D01*
X161922003Y-98166417D01*
X161981356Y-98169624D01*
X161988412Y-98169636D01*
X162046824Y-98174714D01*
X162069957Y-98200194D01*
X162074057Y-98262325D01*
X162074294Y-98289679D01*
X162082023Y-98334891D01*
X162112168Y-98352219D01*
X162180000Y-98355026D01*
X162285944Y-98355026D01*
X162285944Y-100156069D01*
X162180000Y-100156069D01*
G37*
G36*
X112995642Y-104658675D02*
G01*
X112995642Y-103334379D01*
X112148092Y-103334379D01*
X112148092Y-103996527D01*
X111936205Y-103996527D01*
X111936205Y-104658675D01*
X111671345Y-104658675D01*
X111671345Y-103973087D01*
X111783911Y-103964943D01*
X111896476Y-103956799D01*
X111903913Y-103632346D01*
X111911349Y-103307893D01*
X112016478Y-103307893D01*
X112046328Y-103307704D01*
X112098369Y-103301036D01*
X112118352Y-103274705D01*
X112121606Y-103215193D01*
X112121369Y-103187839D01*
X112113639Y-103142626D01*
X112083495Y-103125298D01*
X112015662Y-103122492D01*
X111909719Y-103122492D01*
X111909719Y-102910605D01*
X111671345Y-102910605D01*
X111671345Y-102857633D01*
X111936205Y-102857633D01*
X112148092Y-102857633D01*
X112148092Y-103096006D01*
X112554210Y-103096006D01*
X112630755Y-103095692D01*
X112763461Y-103093529D01*
X112871959Y-103089652D01*
X112946663Y-103084458D01*
X112977984Y-103078349D01*
X112978494Y-103077628D01*
X112983917Y-103042505D01*
X112988625Y-102963606D01*
X112992335Y-102849367D01*
X112994768Y-102708229D01*
X112995642Y-102548630D01*
X112995642Y-102036569D01*
X112148092Y-102036569D01*
X112148092Y-102248457D01*
X111936205Y-102248457D01*
X111936205Y-102857633D01*
X111671345Y-102857633D01*
X111671345Y-102225016D01*
X111783911Y-102216872D01*
X111828778Y-102213163D01*
X111876930Y-102200577D01*
X111896923Y-102166865D01*
X111904620Y-102096162D01*
X111908300Y-102051291D01*
X111920227Y-102003828D01*
X111951594Y-101986191D01*
X112017185Y-101983597D01*
X112053210Y-101983343D01*
X112101256Y-101975599D01*
X112119030Y-101945466D01*
X112121606Y-101877654D01*
X112121606Y-101771710D01*
X113260501Y-101771710D01*
X113260501Y-104658675D01*
X112995642Y-104658675D01*
G37*
G36*
X126291575Y-99123118D02*
G01*
X125602941Y-99123118D01*
X125602941Y-98858258D01*
X126291575Y-98858258D01*
X126291575Y-99123118D01*
G37*
G36*
X150049448Y-63421088D02*
G01*
X149446893Y-63413969D01*
X148844338Y-63406851D01*
X148836194Y-63294286D01*
X148828049Y-63181720D01*
X150049448Y-63181720D01*
X150049448Y-63421088D01*
G37*
G36*
X145944130Y-103387351D02*
G01*
X145652784Y-103387351D01*
X145652784Y-101268477D01*
X145944130Y-101268477D01*
X145944130Y-103387351D01*
G37*
G36*
X171794390Y-86674734D02*
G01*
X171887091Y-86674734D01*
X171894147Y-86674745D01*
X171952559Y-86679823D01*
X171975692Y-86705304D01*
X171979792Y-86767435D01*
X171979792Y-86860135D01*
X172535996Y-86860135D01*
X172535996Y-86767435D01*
X172536233Y-86740081D01*
X172543963Y-86694868D01*
X172574108Y-86677540D01*
X172641940Y-86674734D01*
X172747884Y-86674734D01*
X172747884Y-84529374D01*
X172959771Y-84529374D01*
X172959771Y-86701220D01*
X172867070Y-86701220D01*
X172839716Y-86701457D01*
X172794504Y-86709187D01*
X172777176Y-86739331D01*
X172774369Y-86807164D01*
X172774162Y-86838425D01*
X172767399Y-86890096D01*
X172741022Y-86909900D01*
X172681669Y-86913107D01*
X172674613Y-86913119D01*
X172616200Y-86918197D01*
X172593068Y-86943677D01*
X172588968Y-87005808D01*
X172588968Y-87098509D01*
X171953306Y-87098509D01*
X171953306Y-87005808D01*
X171953294Y-86998752D01*
X171948216Y-86940340D01*
X171922736Y-86917207D01*
X171860605Y-86913107D01*
X171833251Y-86912870D01*
X171788039Y-86905140D01*
X171770711Y-86874996D01*
X171767904Y-86807164D01*
X171767904Y-86701220D01*
X171556017Y-86701220D01*
X171556017Y-84529374D01*
X171794390Y-84529374D01*
X171794390Y-86674734D01*
G37*
G36*
X157142652Y-98070302D02*
G01*
X157143877Y-98084457D01*
X157154440Y-98142239D01*
X157181906Y-98165395D01*
X157241975Y-98169624D01*
X157248013Y-98169633D01*
X157305906Y-98174697D01*
X157328943Y-98200183D01*
X157333076Y-98262325D01*
X157333323Y-98290117D01*
X157341126Y-98335043D01*
X157371393Y-98352246D01*
X157439372Y-98355026D01*
X157545668Y-98355026D01*
X157538695Y-99248926D01*
X157531721Y-100142826D01*
X157432399Y-100151046D01*
X157418244Y-100152270D01*
X157360462Y-100162833D01*
X157337306Y-100190299D01*
X157333076Y-100250368D01*
X157333067Y-100256407D01*
X157328004Y-100314300D01*
X157302518Y-100337336D01*
X157240376Y-100341470D01*
X157235941Y-100341475D01*
X157176102Y-100346268D01*
X157152081Y-100370551D01*
X157147675Y-100429756D01*
X157147644Y-100435001D01*
X157142138Y-100499352D01*
X157130018Y-100535700D01*
X157103902Y-100541994D01*
X157034389Y-100547886D01*
X156933359Y-100551884D01*
X156812187Y-100553357D01*
X156512013Y-100553357D01*
X156512013Y-100447414D01*
X156511806Y-100416152D01*
X156505042Y-100364481D01*
X156478665Y-100344677D01*
X156419312Y-100341470D01*
X156412256Y-100341459D01*
X156353844Y-100336381D01*
X156330711Y-100310900D01*
X156326611Y-100248769D01*
X156326600Y-100241713D01*
X156321522Y-100183301D01*
X156296042Y-100160169D01*
X156233911Y-100156069D01*
X156141210Y-100156069D01*
X156141210Y-99520406D01*
X156353097Y-99520406D01*
X156353097Y-100129583D01*
X156444120Y-100129583D01*
X156502897Y-100133761D01*
X156532380Y-100157288D01*
X156543442Y-100215662D01*
X156551742Y-100301741D01*
X156823222Y-100309289D01*
X157094703Y-100316837D01*
X157094703Y-100224809D01*
X157094764Y-100211127D01*
X157101078Y-100157374D01*
X157128930Y-100133803D01*
X157194025Y-100124560D01*
X157293348Y-100116340D01*
X157307314Y-98381512D01*
X157201009Y-98381512D01*
X157169124Y-98381296D01*
X157117614Y-98374491D01*
X157097890Y-98348094D01*
X157094703Y-98288811D01*
X157094703Y-98196110D01*
X156538499Y-98196110D01*
X156538499Y-98288811D01*
X156538487Y-98295867D01*
X156533409Y-98354279D01*
X156507929Y-98377412D01*
X156445798Y-98381512D01*
X156353097Y-98381512D01*
X156353097Y-98778801D01*
X156141210Y-98778801D01*
X156141210Y-98355026D01*
X156233911Y-98355026D01*
X156240967Y-98355014D01*
X156299379Y-98349936D01*
X156322511Y-98324456D01*
X156326611Y-98262325D01*
X156326620Y-98256181D01*
X156331596Y-98197272D01*
X156356643Y-98173831D01*
X156417713Y-98169624D01*
X156430702Y-98169567D01*
X156484223Y-98163265D01*
X156507767Y-98135410D01*
X156517036Y-98070302D01*
X156525256Y-97970980D01*
X157134432Y-97970980D01*
X157142652Y-98070302D01*
G37*
G36*
X147983546Y-72080990D02*
G01*
X145944130Y-72080990D01*
X145944130Y-71736673D01*
X147983546Y-71736673D01*
X147983546Y-72080990D01*
G37*
G36*
X160696789Y-100553357D02*
G01*
X160458415Y-100553357D01*
X160458415Y-98778801D01*
X160299500Y-98778801D01*
X160299500Y-99176089D01*
X160114098Y-99176089D01*
X160114098Y-99573378D01*
X159902211Y-99573378D01*
X159902211Y-99944181D01*
X159716810Y-99944181D01*
X159716810Y-100341470D01*
X159625708Y-100341470D01*
X159612719Y-100341527D01*
X159559198Y-100347830D01*
X159535654Y-100375685D01*
X159526385Y-100440792D01*
X159523165Y-100474653D01*
X159510351Y-100520425D01*
X159476472Y-100540237D01*
X159405600Y-100548259D01*
X159293035Y-100556403D01*
X159293035Y-97954691D01*
X159405600Y-97962836D01*
X159518165Y-97970980D01*
X159525113Y-98944338D01*
X159532061Y-99917695D01*
X159690324Y-99917695D01*
X159690324Y-99520406D01*
X159875725Y-99520406D01*
X159875725Y-99152801D01*
X160074369Y-99136361D01*
X160089933Y-98752315D01*
X160273014Y-98752315D01*
X160273014Y-98355026D01*
X160456095Y-98355026D01*
X160463877Y-98163003D01*
X160471658Y-97970980D01*
X160584223Y-97962836D01*
X160696789Y-97954691D01*
X160696789Y-100553357D01*
G37*
G36*
X167689072Y-77828436D02*
G01*
X167980417Y-77828436D01*
X167980417Y-78090527D01*
X168119469Y-78098532D01*
X168258520Y-78106538D01*
X168258520Y-78715714D01*
X168092983Y-78723599D01*
X167927446Y-78731485D01*
X167927446Y-78146267D01*
X167636100Y-78146267D01*
X167636100Y-77854922D01*
X166841523Y-77854922D01*
X166841523Y-78146267D01*
X166550178Y-78146267D01*
X166550178Y-78967330D01*
X166841523Y-78967330D01*
X166841523Y-79232190D01*
X167689072Y-79232190D01*
X167689072Y-79576507D01*
X166844291Y-79576507D01*
X166836285Y-79715558D01*
X166828280Y-79854609D01*
X166689229Y-79862614D01*
X166550178Y-79870620D01*
X166550178Y-80662429D01*
X166841523Y-80662429D01*
X166841523Y-80953775D01*
X167636100Y-80953775D01*
X167636100Y-80662429D01*
X167927446Y-80662429D01*
X167927446Y-80077211D01*
X168092983Y-80085097D01*
X168258520Y-80092982D01*
X168258520Y-80702158D01*
X168119469Y-80710164D01*
X167980417Y-80718170D01*
X167980417Y-80980260D01*
X167689072Y-80980260D01*
X167689072Y-81271606D01*
X166788551Y-81271606D01*
X166788551Y-80980260D01*
X166497206Y-80980260D01*
X166497206Y-80715401D01*
X166232347Y-80715401D01*
X166232347Y-79814880D01*
X166497206Y-79814880D01*
X166497206Y-79523535D01*
X166788551Y-79523535D01*
X166788551Y-79285161D01*
X166497206Y-79285161D01*
X166497206Y-78993816D01*
X166232347Y-78993816D01*
X166232347Y-78093295D01*
X166497206Y-78093295D01*
X166497206Y-77828436D01*
X166788551Y-77828436D01*
X166788551Y-77537091D01*
X167689072Y-77537091D01*
X167689072Y-77828436D01*
G37*
G36*
X148539750Y-72875568D02*
G01*
X148831095Y-72875568D01*
X148831095Y-73166913D01*
X149122440Y-73166913D01*
X149122440Y-73431772D01*
X149387300Y-73431772D01*
X149387300Y-73723118D01*
X149969990Y-73723118D01*
X149969990Y-74067435D01*
X149360814Y-74067435D01*
X149360814Y-73776089D01*
X149122440Y-73776089D01*
X149122440Y-75762534D01*
X148778123Y-75762534D01*
X148778123Y-73193399D01*
X148486778Y-73193399D01*
X148486778Y-72928540D01*
X148248405Y-72928540D01*
X148248405Y-73192520D01*
X147553149Y-73199581D01*
X146857894Y-73206642D01*
X146850982Y-74312429D01*
X146844070Y-75418217D01*
X147692201Y-75418217D01*
X147692201Y-75762534D01*
X146791679Y-75762534D01*
X146791679Y-75471189D01*
X146500334Y-75471189D01*
X146500334Y-73193399D01*
X145652784Y-73193399D01*
X145652784Y-72875568D01*
X148221919Y-72875568D01*
X148221919Y-72584223D01*
X148539750Y-72584223D01*
X148539750Y-72875568D01*
G37*
G36*
X145043608Y-76690536D02*
G01*
X144441054Y-76683417D01*
X143838499Y-76676298D01*
X143830354Y-76563733D01*
X143822210Y-76451168D01*
X145043608Y-76451168D01*
X145043608Y-76690536D01*
G37*
G36*
X160617331Y-103387351D02*
G01*
X160299500Y-103387351D01*
X160299500Y-101268477D01*
X160617331Y-101268477D01*
X160617331Y-103387351D01*
G37*
G36*
X113394849Y-73060970D02*
G01*
X113387268Y-73319207D01*
X113379688Y-73577445D01*
X113121450Y-73585026D01*
X112863212Y-73592606D01*
X112863212Y-74093921D01*
X111274057Y-74093921D01*
X111274057Y-73590688D01*
X110770824Y-73590688D01*
X110770824Y-73060970D01*
X110267592Y-73060970D01*
X110267592Y-72981512D01*
X110850282Y-72981512D01*
X111353514Y-72981512D01*
X111353514Y-73484744D01*
X112781766Y-73484744D01*
X112789382Y-73239750D01*
X112796997Y-72994755D01*
X113041992Y-72987139D01*
X113286987Y-72979524D01*
X113286987Y-68505391D01*
X112783754Y-68505391D01*
X112783754Y-68002158D01*
X111353514Y-68002158D01*
X111353514Y-68505391D01*
X110850282Y-68505391D01*
X110850282Y-72981512D01*
X110267592Y-72981512D01*
X110267592Y-68425933D01*
X110770824Y-68425933D01*
X110770824Y-67896215D01*
X111274057Y-67896215D01*
X111274057Y-67392982D01*
X112863212Y-67392982D01*
X112863212Y-67894296D01*
X113379688Y-67909458D01*
X113387268Y-68167695D01*
X113394849Y-68425933D01*
X113896163Y-68425933D01*
X113896163Y-73060970D01*
X113394849Y-73060970D01*
G37*
G36*
X166629635Y-103387351D02*
G01*
X166073431Y-103387351D01*
X166073431Y-101268477D01*
X166629635Y-101268477D01*
X166629635Y-103387351D01*
G37*
G36*
X163504296Y-103387351D02*
G01*
X163186465Y-103387351D01*
X163186465Y-101268477D01*
X163504296Y-101268477D01*
X163504296Y-103387351D01*
G37*
G36*
X170629010Y-63421088D02*
G01*
X170026455Y-63413969D01*
X169423900Y-63406851D01*
X169415756Y-63294286D01*
X169407612Y-63181720D01*
X170629010Y-63181720D01*
X170629010Y-63421088D01*
G37*
G36*
X144957529Y-86722607D02*
G01*
X144844964Y-86714463D01*
X144837836Y-86125151D01*
X144830707Y-85535839D01*
X144090115Y-85535839D01*
X144090115Y-86118530D01*
X143904714Y-86118530D01*
X143904714Y-86727706D01*
X143666340Y-86727706D01*
X143666340Y-86092044D01*
X143878228Y-86092044D01*
X143878228Y-85509353D01*
X143970928Y-85509353D01*
X144032250Y-85505176D01*
X144058461Y-85483280D01*
X144063629Y-85429896D01*
X144058756Y-85377334D01*
X144033210Y-85354867D01*
X143970928Y-85350438D01*
X143964784Y-85350429D01*
X143905875Y-85345453D01*
X143882434Y-85320406D01*
X143878228Y-85259336D01*
X143878170Y-85246347D01*
X143871868Y-85192826D01*
X143844013Y-85169282D01*
X143778905Y-85160014D01*
X143679583Y-85151793D01*
X143678630Y-85112064D01*
X143904714Y-85112064D01*
X143997414Y-85112064D01*
X144024768Y-85112301D01*
X144069981Y-85120031D01*
X144087309Y-85150176D01*
X144090115Y-85218008D01*
X144090115Y-85323952D01*
X144831721Y-85323952D01*
X144831721Y-84370459D01*
X144090115Y-84370459D01*
X144090115Y-84463159D01*
X144090104Y-84470215D01*
X144085026Y-84528628D01*
X144059545Y-84551760D01*
X143997414Y-84555860D01*
X143904714Y-84555860D01*
X143904714Y-85112064D01*
X143678630Y-85112064D01*
X143672121Y-84840584D01*
X143664659Y-84529374D01*
X143771443Y-84529374D01*
X143804150Y-84529148D01*
X143855447Y-84522287D01*
X143875068Y-84495864D01*
X143878228Y-84436673D01*
X143878239Y-84429618D01*
X143883317Y-84371205D01*
X143908797Y-84348073D01*
X143970928Y-84343973D01*
X143998282Y-84343736D01*
X144043495Y-84336006D01*
X144060823Y-84305861D01*
X144063629Y-84238029D01*
X144063629Y-84132085D01*
X145070094Y-84132085D01*
X145070094Y-86730752D01*
X144957529Y-86722607D01*
G37*
G36*
X104043400Y-100209040D02*
G01*
X104043400Y-100420928D01*
X103354766Y-100420928D01*
X103354766Y-100209040D01*
X103142878Y-100209040D01*
X103142878Y-100103097D01*
X103142627Y-100066547D01*
X103134995Y-100017800D01*
X103105296Y-99999766D01*
X103038458Y-99997153D01*
X102996799Y-99996686D01*
X102952107Y-99987531D01*
X102933400Y-99955093D01*
X102932238Y-99944181D01*
X103169364Y-99944181D01*
X103273785Y-99944181D01*
X103315444Y-99944648D01*
X103360135Y-99953803D01*
X103378843Y-99986241D01*
X103386350Y-100056746D01*
X103394495Y-100169312D01*
X103705704Y-100176774D01*
X104016914Y-100184236D01*
X104016914Y-99546892D01*
X103169364Y-99546892D01*
X103169364Y-99944181D01*
X102932238Y-99944181D01*
X102925892Y-99884588D01*
X102923674Y-99856862D01*
X102912875Y-99799183D01*
X102886808Y-99773480D01*
X102833268Y-99763842D01*
X102802727Y-99761387D01*
X102764833Y-99767266D01*
X102748077Y-99798869D01*
X102740567Y-99869786D01*
X102736630Y-99917274D01*
X102723900Y-99964781D01*
X102690131Y-99984464D01*
X102619781Y-99992054D01*
X102574910Y-99995734D01*
X102527447Y-100007661D01*
X102509810Y-100039028D01*
X102507216Y-100104620D01*
X102507216Y-100209040D01*
X102268843Y-100209040D01*
X102268843Y-99944181D01*
X102480730Y-99944181D01*
X102480730Y-99732294D01*
X102586674Y-99732294D01*
X102623224Y-99732043D01*
X102671970Y-99724410D01*
X102690004Y-99694711D01*
X102692618Y-99627873D01*
X102693085Y-99586214D01*
X102702240Y-99541523D01*
X102734678Y-99522815D01*
X102805183Y-99515308D01*
X102917748Y-99507164D01*
X102932088Y-98434484D01*
X103169364Y-98434484D01*
X103169364Y-99308519D01*
X104043400Y-99308519D01*
X104043400Y-99520406D01*
X104255287Y-99520406D01*
X104255287Y-100209040D01*
X104043400Y-100209040D01*
G37*
G36*
X99514307Y-98010709D02*
G01*
X99302420Y-98010709D01*
X99302420Y-98460970D01*
X99092163Y-98460970D01*
X99084726Y-98785422D01*
X99077289Y-99109875D01*
X98852159Y-99126163D01*
X98852159Y-99758780D01*
X98613786Y-99758780D01*
X98613786Y-99070146D01*
X98825673Y-99070146D01*
X98825673Y-98434484D01*
X99037560Y-98434484D01*
X99037560Y-97984223D01*
X99275934Y-97984223D01*
X99275934Y-97533962D01*
X99514307Y-97533962D01*
X99514307Y-98010709D01*
G37*
G36*
X170893869Y-95335631D02*
G01*
X170893670Y-95366035D01*
X170887027Y-95418179D01*
X170861102Y-95438270D01*
X170802767Y-95441574D01*
X170789779Y-95441632D01*
X170736258Y-95447934D01*
X170712713Y-95475789D01*
X170703445Y-95540897D01*
X170702273Y-95554430D01*
X170691222Y-95613157D01*
X170661476Y-95638783D01*
X170595902Y-95648439D01*
X170581747Y-95649663D01*
X170523965Y-95660226D01*
X170500810Y-95687692D01*
X170496580Y-95747761D01*
X170496348Y-95773906D01*
X170488623Y-95818745D01*
X170458475Y-95836022D01*
X170390636Y-95838863D01*
X170284693Y-95838863D01*
X170284693Y-95719677D01*
X170285265Y-95666638D01*
X170293462Y-95620278D01*
X170320434Y-95603034D01*
X170377393Y-95600490D01*
X170384449Y-95600478D01*
X170442862Y-95595401D01*
X170465994Y-95569920D01*
X170470094Y-95507789D01*
X170470106Y-95500733D01*
X170475184Y-95442321D01*
X170500664Y-95419189D01*
X170562795Y-95415088D01*
X170569851Y-95415077D01*
X170628263Y-95409999D01*
X170651396Y-95384519D01*
X170655496Y-95322388D01*
X170656231Y-95281135D01*
X170666770Y-95245078D01*
X170701449Y-95231666D01*
X170774682Y-95229687D01*
X170893869Y-95229687D01*
X170893869Y-95335631D01*
G37*
G36*
X109711387Y-98249082D02*
G01*
X109499500Y-98249082D01*
X109499500Y-98460970D01*
X109261127Y-98460970D01*
X109261127Y-98672857D01*
X109022753Y-98672857D01*
X109022753Y-98434484D01*
X109234641Y-98434484D01*
X109234641Y-98196110D01*
X109446528Y-98196110D01*
X109446528Y-97984223D01*
X109711387Y-97984223D01*
X109711387Y-98249082D01*
G37*
G36*
X166868009Y-62599030D02*
G01*
X166868009Y-62307685D01*
X166576664Y-62307685D01*
X166576664Y-62042826D01*
X166311804Y-62042826D01*
X166311804Y-61989854D01*
X166629635Y-61989854D01*
X166920981Y-61989854D01*
X166920981Y-62254713D01*
X168007334Y-62254713D01*
X167993660Y-59195589D01*
X167457320Y-59188419D01*
X166920981Y-59181249D01*
X166920981Y-59473691D01*
X166629635Y-59473691D01*
X166629635Y-61989854D01*
X166311804Y-61989854D01*
X166311804Y-59420719D01*
X166576664Y-59420719D01*
X166576664Y-59155860D01*
X166868009Y-59155860D01*
X166868009Y-58864515D01*
X168351220Y-58864515D01*
X168351220Y-62599030D01*
X166868009Y-62599030D01*
G37*
G36*
X126291575Y-104658675D02*
G01*
X126291575Y-104552732D01*
X126291324Y-104516182D01*
X126283692Y-104467435D01*
X126253992Y-104449401D01*
X126187154Y-104446788D01*
X126145495Y-104446321D01*
X126100804Y-104437166D01*
X126082096Y-104404728D01*
X126074589Y-104334223D01*
X126070880Y-104289356D01*
X126058294Y-104241204D01*
X126024581Y-104221210D01*
X125953879Y-104213513D01*
X125841314Y-104205369D01*
X125841314Y-104181929D01*
X126106173Y-104181929D01*
X126318061Y-104181929D01*
X126318061Y-104393816D01*
X127165610Y-104393816D01*
X127165610Y-102036569D01*
X126318061Y-102036569D01*
X126318061Y-102248457D01*
X126106173Y-102248457D01*
X126106173Y-104181929D01*
X125841314Y-104181929D01*
X125841314Y-102225016D01*
X125953879Y-102216872D01*
X125998746Y-102213163D01*
X126046898Y-102200577D01*
X126066892Y-102166865D01*
X126074589Y-102096162D01*
X126078269Y-102051291D01*
X126090195Y-102003828D01*
X126121563Y-101986191D01*
X126187154Y-101983597D01*
X126223179Y-101983343D01*
X126271224Y-101975599D01*
X126288999Y-101945466D01*
X126291575Y-101877654D01*
X126291575Y-101771710D01*
X127430470Y-101771710D01*
X127430470Y-104658675D01*
X126291575Y-104658675D01*
G37*
G36*
X114657633Y-67398707D02*
G01*
X114942357Y-67406225D01*
X114949195Y-68922544D01*
X114956034Y-70438863D01*
X117391871Y-70438863D01*
X117398709Y-68922544D01*
X117405548Y-67406225D01*
X117703514Y-67398736D01*
X118001481Y-67391247D01*
X118001481Y-74093921D01*
X117392305Y-74093921D01*
X117392305Y-71048039D01*
X114955600Y-71048039D01*
X114955600Y-74093921D01*
X114372910Y-74093921D01*
X114372910Y-67391190D01*
X114657633Y-67398707D01*
G37*
G36*
X149784588Y-76689541D02*
G01*
X148592722Y-76689541D01*
X148592722Y-76451168D01*
X149784588Y-76451168D01*
X149784588Y-76689541D01*
G37*
G36*
X160882190Y-72028019D02*
G01*
X161173535Y-72028019D01*
X161173535Y-72319364D01*
X161464880Y-72319364D01*
X161464880Y-73219885D01*
X161173535Y-73219885D01*
X161173535Y-73481976D01*
X161034484Y-73489982D01*
X160895433Y-73497987D01*
X160887427Y-73637038D01*
X160879422Y-73776089D01*
X160034641Y-73776089D01*
X160034641Y-74067435D01*
X159743295Y-74067435D01*
X159743295Y-74862012D01*
X160034641Y-74862012D01*
X160034641Y-75154737D01*
X160438551Y-75147426D01*
X160842461Y-75140114D01*
X160850467Y-75001063D01*
X160858472Y-74862012D01*
X161120563Y-74862012D01*
X161120563Y-74305808D01*
X161464880Y-74305808D01*
X161464880Y-74914984D01*
X161173535Y-74914984D01*
X161173535Y-75206329D01*
X160882190Y-75206329D01*
X160882190Y-75498955D01*
X159994912Y-75484431D01*
X159978900Y-75206329D01*
X159716810Y-75206329D01*
X159716810Y-74914984D01*
X159425464Y-74914984D01*
X159425464Y-74014463D01*
X159716810Y-74014463D01*
X159716810Y-73723118D01*
X159981669Y-73723118D01*
X159981669Y-73459571D01*
X160842461Y-73445015D01*
X160850467Y-73305964D01*
X160858472Y-73166913D01*
X161120563Y-73166913D01*
X161120563Y-72372336D01*
X160855704Y-72372336D01*
X160855704Y-72080990D01*
X160034641Y-72080990D01*
X160034641Y-72372336D01*
X159743295Y-72372336D01*
X159743295Y-72928540D01*
X159425464Y-72928540D01*
X159425464Y-72319364D01*
X159716810Y-72319364D01*
X159716810Y-72028019D01*
X159978900Y-72028019D01*
X159986906Y-71888967D01*
X159994912Y-71749916D01*
X160438551Y-71742654D01*
X160882190Y-71735393D01*
X160882190Y-72028019D01*
G37*
G36*
X125417539Y-98672857D02*
G01*
X124093243Y-98672857D01*
X124093243Y-99546892D01*
X123987300Y-99546892D01*
X123956038Y-99547100D01*
X123904367Y-99553863D01*
X123884563Y-99580240D01*
X123881356Y-99639593D01*
X123881593Y-99666947D01*
X123889323Y-99712159D01*
X123919468Y-99729487D01*
X123987300Y-99732294D01*
X124093243Y-99732294D01*
X124093243Y-99838238D01*
X124093451Y-99869499D01*
X124100214Y-99921171D01*
X124126591Y-99940974D01*
X124185944Y-99944181D01*
X124278645Y-99944181D01*
X124278645Y-99732294D01*
X124543504Y-99732294D01*
X124940793Y-99732294D01*
X124940793Y-99546892D01*
X124543504Y-99546892D01*
X124543504Y-99732294D01*
X124278645Y-99732294D01*
X124278645Y-99282033D01*
X124543504Y-99282033D01*
X124940793Y-99282033D01*
X124940793Y-99123118D01*
X124543504Y-99123118D01*
X124543504Y-99282033D01*
X124278645Y-99282033D01*
X124278645Y-98858258D01*
X125205652Y-98858258D01*
X125205652Y-100209040D01*
X124940793Y-100209040D01*
X124940793Y-99997153D01*
X124331617Y-99997153D01*
X124331617Y-100156069D01*
X124755391Y-100156069D01*
X124755391Y-100420928D01*
X124278645Y-100420928D01*
X124278645Y-100209040D01*
X124066757Y-100209040D01*
X124066757Y-100103097D01*
X124066550Y-100071835D01*
X124059786Y-100020164D01*
X124033410Y-100000360D01*
X123974057Y-99997153D01*
X123946703Y-99997390D01*
X123901490Y-100005120D01*
X123884162Y-100035265D01*
X123881356Y-100103097D01*
X123881356Y-100209040D01*
X123669469Y-100209040D01*
X123669469Y-100420928D01*
X123192722Y-100420928D01*
X123192722Y-99732294D01*
X123457581Y-99732294D01*
X123457581Y-100156069D01*
X123616497Y-100156069D01*
X123616497Y-99546892D01*
X123404609Y-99546892D01*
X123404609Y-99123118D01*
X123192722Y-99123118D01*
X123192722Y-98858258D01*
X123457581Y-98858258D01*
X123457581Y-99070146D01*
X123669469Y-99070146D01*
X123669469Y-99520406D01*
X123854870Y-99520406D01*
X123854870Y-98672857D01*
X123192722Y-98672857D01*
X123192722Y-98407998D01*
X123854870Y-98407998D01*
X124093243Y-98407998D01*
X124490532Y-98407998D01*
X124490532Y-98315297D01*
X124490295Y-98287943D01*
X124482565Y-98242731D01*
X124452420Y-98225403D01*
X124384588Y-98222596D01*
X124278645Y-98222596D01*
X124278645Y-98196110D01*
X124543504Y-98196110D01*
X124940793Y-98196110D01*
X124940793Y-97798821D01*
X124543504Y-97798821D01*
X124543504Y-98196110D01*
X124278645Y-98196110D01*
X124278645Y-97798821D01*
X124093243Y-97798821D01*
X124093243Y-98407998D01*
X123854870Y-98407998D01*
X123854870Y-97110187D01*
X124093243Y-97110187D01*
X124093243Y-97533962D01*
X124728905Y-97533962D01*
X124728905Y-97110187D01*
X124967279Y-97110187D01*
X124967279Y-97533962D01*
X125417539Y-97533962D01*
X125417539Y-97798821D01*
X125205652Y-97798821D01*
X125205652Y-98219550D01*
X125093087Y-98227695D01*
X125064048Y-98230027D01*
X125007080Y-98240922D01*
X124981783Y-98267411D01*
X124972222Y-98321918D01*
X124963923Y-98407998D01*
X125417539Y-98407998D01*
X125417539Y-98672857D01*
G37*
G36*
X160617331Y-94354053D02*
G01*
X160617152Y-94381967D01*
X160610139Y-94435306D01*
X160581988Y-94457973D01*
X160518009Y-94466618D01*
X160504475Y-94467789D01*
X160445748Y-94478840D01*
X160420123Y-94508587D01*
X160410466Y-94574160D01*
X160409242Y-94588316D01*
X160398679Y-94646097D01*
X160371213Y-94669253D01*
X160311144Y-94673483D01*
X160305105Y-94673492D01*
X160247212Y-94678555D01*
X160224176Y-94704041D01*
X160220042Y-94766183D01*
X160219805Y-94793537D01*
X160212075Y-94838750D01*
X160181930Y-94856078D01*
X160114098Y-94858884D01*
X160008155Y-94858884D01*
X160008155Y-94752940D01*
X160008362Y-94721679D01*
X160015126Y-94670007D01*
X160041502Y-94650204D01*
X160100855Y-94646997D01*
X160128209Y-94646760D01*
X160173422Y-94639030D01*
X160190750Y-94608885D01*
X160193556Y-94541053D01*
X160193763Y-94509792D01*
X160200527Y-94458120D01*
X160226904Y-94438317D01*
X160286257Y-94435109D01*
X160293313Y-94435098D01*
X160351725Y-94430020D01*
X160374858Y-94404540D01*
X160378958Y-94342409D01*
X160379693Y-94301156D01*
X160390232Y-94265099D01*
X160424911Y-94251687D01*
X160498144Y-94249708D01*
X160617331Y-94249708D01*
X160617331Y-94354053D01*
G37*
G36*
X167053410Y-86489332D02*
G01*
X167212326Y-86489332D01*
X167212326Y-86092044D01*
X167397727Y-86092044D01*
X167397727Y-85694755D01*
X167609615Y-85694755D01*
X167609615Y-85297466D01*
X167795016Y-85297466D01*
X167795016Y-84926663D01*
X167980417Y-84926663D01*
X167980417Y-84529374D01*
X168218791Y-84529374D01*
X168218791Y-87098509D01*
X167980417Y-87098509D01*
X167980417Y-85350438D01*
X167821502Y-85350438D01*
X167821502Y-85721241D01*
X167636100Y-85721241D01*
X167636100Y-86115332D01*
X167437456Y-86131772D01*
X167421892Y-86515818D01*
X167238812Y-86515818D01*
X167238812Y-86913107D01*
X167146111Y-86913107D01*
X167139055Y-86913119D01*
X167080642Y-86918197D01*
X167057510Y-86943677D01*
X167053410Y-87005808D01*
X167052675Y-87047060D01*
X167042135Y-87083118D01*
X167007457Y-87096530D01*
X166934223Y-87098509D01*
X166815037Y-87098509D01*
X166815037Y-84529374D01*
X167053410Y-84529374D01*
X167053410Y-86489332D01*
G37*
G36*
X174310553Y-103387351D02*
G01*
X174019208Y-103387351D01*
X174019208Y-101268477D01*
X174310553Y-101268477D01*
X174310553Y-103387351D01*
G37*
G36*
X171668582Y-97962836D02*
G01*
X171781147Y-97970980D01*
X171788459Y-98374890D01*
X171795770Y-98778801D01*
X171582503Y-98778801D01*
X171582503Y-99573378D01*
X171398894Y-99573378D01*
X171391376Y-99858102D01*
X171383859Y-100142826D01*
X171284536Y-100151046D01*
X171185214Y-100159266D01*
X171185214Y-100553357D01*
X170973327Y-100553357D01*
X170973327Y-100156069D01*
X170761439Y-100156069D01*
X170761439Y-99573378D01*
X170576038Y-99573378D01*
X170576038Y-98778801D01*
X170390636Y-98778801D01*
X170390636Y-97957737D01*
X170602524Y-97957737D01*
X170602524Y-98752315D01*
X170787925Y-98752315D01*
X170787925Y-99520406D01*
X170999813Y-99520406D01*
X170999813Y-100129583D01*
X171158728Y-100129583D01*
X171158728Y-99520406D01*
X171344130Y-99520406D01*
X171344130Y-98752315D01*
X171556017Y-98752315D01*
X171556017Y-97954691D01*
X171668582Y-97962836D01*
G37*
G36*
X95250073Y-92951898D02*
G01*
X95250073Y-91998404D01*
X96230052Y-91998404D01*
X128966653Y-91998404D01*
X128966653Y-57963994D01*
X96230052Y-57963994D01*
X96230052Y-91998404D01*
X95250073Y-91998404D01*
X95250073Y-56984014D01*
X129920146Y-56984014D01*
X129920146Y-92951898D01*
X95250073Y-92951898D01*
G37*
G36*
X164272388Y-77828436D02*
G01*
X164537247Y-77828436D01*
X164537247Y-78384640D01*
X164828593Y-78384640D01*
X164828593Y-78967330D01*
X165119938Y-78967330D01*
X165119938Y-79523535D01*
X165411283Y-79523535D01*
X165411283Y-80079739D01*
X165676142Y-80079739D01*
X165676142Y-80662429D01*
X165967487Y-80662429D01*
X165967487Y-81271606D01*
X165623170Y-81271606D01*
X165623170Y-80715401D01*
X165360103Y-80715401D01*
X165352586Y-80430678D01*
X165345068Y-80145954D01*
X165206017Y-80137948D01*
X165066966Y-80129943D01*
X165066966Y-79576507D01*
X164775621Y-79576507D01*
X164775621Y-78993816D01*
X164510762Y-78993816D01*
X164510762Y-78437612D01*
X164221209Y-78437612D01*
X164213691Y-78152888D01*
X164206173Y-77868165D01*
X163928071Y-77852153D01*
X163928071Y-77245745D01*
X164272388Y-77245745D01*
X164272388Y-77828436D01*
G37*
G36*
X152777498Y-100553357D02*
G01*
X151373744Y-100553357D01*
X151373744Y-100314984D01*
X152539124Y-100314984D01*
X152539124Y-99361491D01*
X151585631Y-99361491D01*
X151585631Y-99149604D01*
X152539124Y-99149604D01*
X152539124Y-98196110D01*
X151373744Y-98196110D01*
X151373744Y-97957737D01*
X152777498Y-97957737D01*
X152777498Y-100553357D01*
G37*
G36*
X126291575Y-98672857D02*
G01*
X125602941Y-98672857D01*
X125602941Y-98407998D01*
X126291575Y-98407998D01*
X126291575Y-98672857D01*
G37*
G36*
X142103671Y-103387351D02*
G01*
X141573952Y-103387351D01*
X141573952Y-101268477D01*
X142103671Y-101268477D01*
X142103671Y-103387351D01*
G37*
G36*
X157730365Y-103387351D02*
G01*
X157439020Y-103387351D01*
X157439020Y-101268477D01*
X157730365Y-101268477D01*
X157730365Y-103387351D01*
G37*
G36*
X155161231Y-72028019D02*
G01*
X155452576Y-72028019D01*
X155452576Y-72581455D01*
X155591627Y-72589460D01*
X155730678Y-72597466D01*
X155738196Y-72882190D01*
X155745713Y-73166913D01*
X156008780Y-73166913D01*
X156008780Y-73723118D01*
X156300125Y-73723118D01*
X156300125Y-74305808D01*
X156591471Y-74305808D01*
X156591471Y-74859244D01*
X156730522Y-74867250D01*
X156869573Y-74875255D01*
X156877174Y-75151567D01*
X156878833Y-75235918D01*
X156878835Y-75342986D01*
X156876272Y-75422902D01*
X156871384Y-75462777D01*
X156861829Y-75474346D01*
X156805068Y-75491898D01*
X156698246Y-75497674D01*
X156538499Y-75497674D01*
X156538499Y-74914984D01*
X156247154Y-74914984D01*
X156247154Y-74358780D01*
X155984087Y-74358780D01*
X155969051Y-73789332D01*
X155830000Y-73781327D01*
X155690949Y-73773321D01*
X155690949Y-73222653D01*
X155551898Y-73214648D01*
X155412847Y-73206642D01*
X155405330Y-72921918D01*
X155397812Y-72637195D01*
X155134745Y-72637195D01*
X155134745Y-72080990D01*
X154843400Y-72080990D01*
X154843400Y-71471814D01*
X155161231Y-71471814D01*
X155161231Y-72028019D01*
G37*
G36*
X146659250Y-86727706D02*
G01*
X145255496Y-86727706D01*
X145255496Y-86489332D01*
X146420876Y-86489332D01*
X146420876Y-85535839D01*
X145440897Y-85535839D01*
X145440897Y-85323952D01*
X146420876Y-85323952D01*
X146420876Y-84370459D01*
X145255496Y-84370459D01*
X145255496Y-84132085D01*
X146659250Y-84132085D01*
X146659250Y-86727706D01*
G37*
G36*
X164669677Y-90912482D02*
G01*
X158207112Y-90912482D01*
X158207112Y-84423430D01*
X164669677Y-84423430D01*
X164669677Y-90912482D01*
G37*
G36*
X155849865Y-100156069D02*
G01*
X155818603Y-100156276D01*
X155766932Y-100163040D01*
X155747128Y-100189416D01*
X155743921Y-100248769D01*
X155743910Y-100255825D01*
X155738832Y-100314238D01*
X155713351Y-100337370D01*
X155651220Y-100341470D01*
X155622827Y-100341731D01*
X155578296Y-100349634D01*
X155561262Y-100380071D01*
X155558520Y-100448254D01*
X155558520Y-100555039D01*
X155247310Y-100547577D01*
X154936100Y-100540114D01*
X154927880Y-100440792D01*
X154926656Y-100426637D01*
X154916093Y-100368855D01*
X154888627Y-100345700D01*
X154828558Y-100341470D01*
X154822519Y-100341461D01*
X154764626Y-100336398D01*
X154741590Y-100310912D01*
X154737456Y-100248769D01*
X154737445Y-100241713D01*
X154732367Y-100183301D01*
X154706886Y-100160169D01*
X154644755Y-100156069D01*
X154552055Y-100156069D01*
X154552055Y-100116340D01*
X154777185Y-100116340D01*
X154876507Y-100124560D01*
X154890662Y-100125784D01*
X154948444Y-100136347D01*
X154971600Y-100163813D01*
X154975829Y-100223882D01*
X154975829Y-100314984D01*
X155532034Y-100314984D01*
X155532034Y-100222283D01*
X155532045Y-100215228D01*
X155537123Y-100156815D01*
X155562603Y-100133683D01*
X155624734Y-100129583D01*
X155717435Y-100129583D01*
X155717435Y-98381512D01*
X155624734Y-98381512D01*
X155617679Y-98381500D01*
X155559266Y-98376422D01*
X155536134Y-98350942D01*
X155532034Y-98288811D01*
X155532034Y-98196110D01*
X154975829Y-98196110D01*
X154975829Y-98287212D01*
X154975772Y-98300201D01*
X154969470Y-98353722D01*
X154941615Y-98377266D01*
X154876507Y-98386534D01*
X154777185Y-98394755D01*
X154777185Y-100116340D01*
X154552055Y-100116340D01*
X154552055Y-98355026D01*
X154644755Y-98355026D01*
X154651811Y-98355014D01*
X154710224Y-98349936D01*
X154733356Y-98324456D01*
X154737456Y-98262325D01*
X154737465Y-98256181D01*
X154742441Y-98197272D01*
X154767487Y-98173831D01*
X154828558Y-98169624D01*
X154841546Y-98169567D01*
X154895067Y-98163265D01*
X154918612Y-98135410D01*
X154927880Y-98070302D01*
X154936100Y-97970980D01*
X155558520Y-97956056D01*
X155558520Y-98062840D01*
X155558746Y-98095547D01*
X155565607Y-98146844D01*
X155592030Y-98166465D01*
X155651220Y-98169624D01*
X155658276Y-98169636D01*
X155716689Y-98174714D01*
X155739821Y-98200194D01*
X155743921Y-98262325D01*
X155744158Y-98289679D01*
X155751888Y-98334891D01*
X155782033Y-98352219D01*
X155849865Y-98355026D01*
X155955808Y-98355026D01*
X155955808Y-100156069D01*
X155849865Y-100156069D01*
G37*
G36*
X168616080Y-95070771D02*
G01*
X166470720Y-95070771D01*
X166470720Y-96792356D01*
X168616080Y-96792356D01*
X168616080Y-97030730D01*
X166470720Y-97030730D01*
X166470720Y-97123430D01*
X166469985Y-97164683D01*
X166459445Y-97200740D01*
X166424767Y-97214152D01*
X166351533Y-97216131D01*
X166232347Y-97216131D01*
X166232347Y-94832398D01*
X168616080Y-94832398D01*
X168616080Y-95070771D01*
G37*
G36*
X169754974Y-103387351D02*
G01*
X168722023Y-103387351D01*
X168722023Y-101268477D01*
X169754974Y-101268477D01*
X169754974Y-103387351D01*
G37*
G36*
X101361700Y-97539133D02*
G01*
X101487508Y-97547205D01*
X101494448Y-98547049D01*
X101501388Y-99546892D01*
X101262378Y-99546892D01*
X101262378Y-99997153D01*
X101050490Y-99997153D01*
X101050490Y-100209040D01*
X100361856Y-100209040D01*
X100361856Y-100103097D01*
X100361606Y-100066547D01*
X100353973Y-100017800D01*
X100324274Y-99999766D01*
X100257436Y-99997153D01*
X100215777Y-99996686D01*
X100171085Y-99987531D01*
X100152378Y-99955093D01*
X100144870Y-99884588D01*
X100141161Y-99839721D01*
X100128576Y-99791569D01*
X100094863Y-99771575D01*
X100024161Y-99763878D01*
X99911596Y-99755734D01*
X99911596Y-99308519D01*
X100176455Y-99308519D01*
X100176455Y-99732294D01*
X100388342Y-99732294D01*
X100388342Y-99944181D01*
X101024005Y-99944181D01*
X101024005Y-99520406D01*
X101235892Y-99520406D01*
X101235892Y-97531060D01*
X101361700Y-97539133D01*
G37*
G36*
X159749021Y-58857893D02*
G01*
X159756538Y-59142617D01*
X159895590Y-59150623D01*
X160034641Y-59158628D01*
X160034641Y-59712064D01*
X160325986Y-59712064D01*
X160325986Y-60294755D01*
X160617331Y-60294755D01*
X160617331Y-60850959D01*
X160882190Y-60850959D01*
X160882190Y-61407164D01*
X161173535Y-61407164D01*
X161173535Y-61989854D01*
X161464880Y-61989854D01*
X161464880Y-62599030D01*
X161120563Y-62599030D01*
X161120563Y-62045594D01*
X160981512Y-62037588D01*
X160842461Y-62029583D01*
X160834944Y-61744859D01*
X160827426Y-61460135D01*
X160564359Y-61460135D01*
X160564359Y-60903931D01*
X160273014Y-60903931D01*
X160273014Y-60321241D01*
X159981669Y-60321241D01*
X159981669Y-59765036D01*
X159718602Y-59765036D01*
X159711084Y-59480313D01*
X159703567Y-59195589D01*
X159564515Y-59187583D01*
X159425464Y-59179578D01*
X159425464Y-58573170D01*
X159741503Y-58573170D01*
X159749021Y-58857893D01*
G37*
G36*
X172933285Y-61698509D02*
G01*
X172933285Y-62599030D01*
X172588968Y-62599030D01*
X172588968Y-61751481D01*
X171238186Y-61751481D01*
X171238186Y-62599030D01*
X170893869Y-62599030D01*
X170893869Y-61698509D01*
X171185214Y-61698509D01*
X171185214Y-61407164D01*
X171503045Y-61407164D01*
X172324109Y-61407164D01*
X172324109Y-60612586D01*
X172032764Y-60612586D01*
X172032764Y-59765036D01*
X171794390Y-59765036D01*
X171794390Y-60612586D01*
X171503045Y-60612586D01*
X171503045Y-61407164D01*
X171185214Y-61407164D01*
X171185214Y-60559614D01*
X171450073Y-60559614D01*
X171450073Y-59712064D01*
X171741418Y-59712064D01*
X171741418Y-58864515D01*
X172085735Y-58864515D01*
X172085735Y-59712064D01*
X172350595Y-59712064D01*
X172350595Y-60559614D01*
X172641940Y-60559614D01*
X172641940Y-61698509D01*
X172933285Y-61698509D01*
G37*
G36*
X175369990Y-63420094D02*
G01*
X174178123Y-63420094D01*
X174178123Y-63181720D01*
X175369990Y-63181720D01*
X175369990Y-63420094D01*
G37*
G36*
X172218165Y-63283250D02*
G01*
X172217916Y-63300503D01*
X172211944Y-63366670D01*
X172200508Y-63402436D01*
X172192210Y-63404909D01*
X172139378Y-63409772D01*
X172045070Y-63413949D01*
X171917090Y-63417212D01*
X171763242Y-63419335D01*
X171591332Y-63420094D01*
X170999813Y-63420094D01*
X170999813Y-63181720D01*
X172218165Y-63181720D01*
X172218165Y-63283250D01*
G37*
G36*
X153916392Y-77828436D02*
G01*
X154207738Y-77828436D01*
X154207738Y-78093295D01*
X154472597Y-78093295D01*
X154472597Y-78728957D01*
X154154766Y-78728957D01*
X154154766Y-78146267D01*
X153863421Y-78146267D01*
X153863421Y-77854922D01*
X153068843Y-77854922D01*
X153068843Y-78146267D01*
X152777498Y-78146267D01*
X152777498Y-78967330D01*
X153068843Y-78967330D01*
X153068843Y-79232190D01*
X153916392Y-79232190D01*
X153916392Y-79576507D01*
X153071611Y-79576507D01*
X153063606Y-79715558D01*
X153055600Y-79854609D01*
X152916549Y-79862614D01*
X152777498Y-79870620D01*
X152777498Y-80662429D01*
X153068843Y-80662429D01*
X153068843Y-80953775D01*
X153863421Y-80953775D01*
X153863421Y-80662429D01*
X154154766Y-80662429D01*
X154154766Y-80079739D01*
X154472597Y-80079739D01*
X154472597Y-80715401D01*
X154207738Y-80715401D01*
X154207738Y-80980260D01*
X153916392Y-80980260D01*
X153916392Y-81271606D01*
X153015871Y-81271606D01*
X153015871Y-80980260D01*
X152724526Y-80980260D01*
X152724526Y-80715401D01*
X152459667Y-80715401D01*
X152459667Y-79814880D01*
X152724526Y-79814880D01*
X152724526Y-79523535D01*
X153015871Y-79523535D01*
X153015871Y-79285161D01*
X152724526Y-79285161D01*
X152724526Y-78993816D01*
X152459667Y-78993816D01*
X152459667Y-78093295D01*
X152724526Y-78093295D01*
X152724526Y-77828436D01*
X153015871Y-77828436D01*
X153015871Y-77537091D01*
X153916392Y-77537091D01*
X153916392Y-77828436D01*
G37*
G36*
X157372805Y-77258988D02*
G01*
X157380323Y-77543712D01*
X157387840Y-77828436D01*
X157650908Y-77828436D01*
X157650908Y-78384640D01*
X157942253Y-78384640D01*
X157942253Y-78967330D01*
X158233598Y-78967330D01*
X158233598Y-79523535D01*
X158524943Y-79523535D01*
X158524943Y-80079739D01*
X158789802Y-80079739D01*
X158789802Y-80662429D01*
X159081147Y-80662429D01*
X159081147Y-81271606D01*
X158736830Y-81271606D01*
X158736830Y-80715401D01*
X158473763Y-80715401D01*
X158466246Y-80430678D01*
X158458728Y-80145954D01*
X158319677Y-80137948D01*
X158180626Y-80129943D01*
X158180626Y-79576507D01*
X157889281Y-79576507D01*
X157889281Y-78993816D01*
X157624422Y-78993816D01*
X157624422Y-78437612D01*
X157334869Y-78437612D01*
X157327351Y-78152888D01*
X157319834Y-77868165D01*
X157180782Y-77860159D01*
X157041731Y-77852153D01*
X157041731Y-77243218D01*
X157372805Y-77258988D01*
G37*
G36*
X120227821Y-104208415D02*
G01*
X120186163Y-104208882D01*
X120141471Y-104218037D01*
X120122764Y-104250475D01*
X120115256Y-104320980D01*
X120111547Y-104365847D01*
X120098961Y-104413999D01*
X120065249Y-104433993D01*
X119994547Y-104441690D01*
X119949675Y-104445369D01*
X119902212Y-104457296D01*
X119884575Y-104488663D01*
X119881982Y-104554255D01*
X119881982Y-104658675D01*
X119193348Y-104658675D01*
X119193348Y-104446788D01*
X118981460Y-104446788D01*
X118981460Y-104208415D01*
X118769573Y-104208415D01*
X118769573Y-104181929D01*
X119007946Y-104181929D01*
X119246319Y-104181929D01*
X119246319Y-104393816D01*
X119855496Y-104393816D01*
X119855496Y-104181929D01*
X120067383Y-104181929D01*
X120067383Y-102248457D01*
X119855496Y-102248457D01*
X119855496Y-102036569D01*
X119246319Y-102036569D01*
X119246319Y-102248457D01*
X119007946Y-102248457D01*
X119007946Y-104181929D01*
X118769573Y-104181929D01*
X118769573Y-102221971D01*
X118981460Y-102221971D01*
X118981460Y-101983597D01*
X119193348Y-101983597D01*
X119193348Y-101771710D01*
X119881982Y-101771710D01*
X119881982Y-101983597D01*
X120120355Y-101983597D01*
X120120355Y-102221971D01*
X120332242Y-102221971D01*
X120332242Y-104208415D01*
X120227821Y-104208415D01*
G37*
G36*
X162895120Y-75497674D02*
G01*
X162577289Y-75497674D01*
X162577289Y-71736673D01*
X162895120Y-71736673D01*
X162895120Y-75497674D01*
G37*
G36*
X112333494Y-97798821D02*
G01*
X110585423Y-97798821D01*
X110585423Y-97891522D01*
X110585660Y-97918876D01*
X110593389Y-97964089D01*
X110623534Y-97981417D01*
X110691366Y-97984223D01*
X110797310Y-97984223D01*
X110797310Y-98090167D01*
X110797561Y-98126717D01*
X110805193Y-98175463D01*
X110834893Y-98193497D01*
X110901731Y-98196110D01*
X110943389Y-98196577D01*
X110988081Y-98205732D01*
X111006789Y-98238170D01*
X111014296Y-98308675D01*
X111018005Y-98353542D01*
X111030591Y-98401695D01*
X111064303Y-98421688D01*
X111135006Y-98429385D01*
X111179877Y-98433065D01*
X111227340Y-98444991D01*
X111244977Y-98476359D01*
X111247571Y-98541950D01*
X111247825Y-98577975D01*
X111255569Y-98626020D01*
X111285702Y-98643795D01*
X111353514Y-98646371D01*
X111459458Y-98646371D01*
X111459458Y-99546892D01*
X111247571Y-99546892D01*
X111247571Y-99997153D01*
X110797310Y-99997153D01*
X110797310Y-100209040D01*
X109684901Y-100209040D01*
X109684901Y-99944181D01*
X110770824Y-99944181D01*
X110770824Y-99732294D01*
X110982712Y-99732294D01*
X110982712Y-99520406D01*
X111194599Y-99520406D01*
X111194599Y-98672857D01*
X110982712Y-98672857D01*
X110982712Y-98460970D01*
X110770824Y-98460970D01*
X110770824Y-98355026D01*
X110770573Y-98318476D01*
X110762941Y-98269730D01*
X110733241Y-98251695D01*
X110666403Y-98249082D01*
X110624745Y-98248615D01*
X110580053Y-98239460D01*
X110561345Y-98207022D01*
X110553838Y-98136517D01*
X110545694Y-98023952D01*
X110327185Y-98016259D01*
X110108676Y-98008567D01*
X110108676Y-97798821D01*
X109234641Y-97798821D01*
X109234641Y-97533962D01*
X112333494Y-97533962D01*
X112333494Y-97798821D01*
G37*
G36*
X161120563Y-63420094D02*
G01*
X159928697Y-63420094D01*
X159928697Y-63181720D01*
X161120563Y-63181720D01*
X161120563Y-63420094D01*
G37*
G36*
X120676559Y-99546892D02*
G01*
X120411700Y-99546892D01*
X120411700Y-97533962D01*
X120676559Y-97533962D01*
X120676559Y-99546892D01*
G37*
G36*
X163027550Y-103387351D02*
G01*
X162709719Y-103387351D01*
X162709719Y-101268477D01*
X163027550Y-101268477D01*
X163027550Y-103387351D01*
G37*
G36*
X144490172Y-75762534D02*
G01*
X144482167Y-75623483D01*
X144474161Y-75484431D01*
X141984484Y-75484431D01*
X141976479Y-75623483D01*
X141968473Y-75762534D01*
X141653410Y-75762534D01*
X141653410Y-75153357D01*
X141971241Y-75153357D01*
X143211665Y-75153357D01*
X143448109Y-75153034D01*
X143684328Y-75152026D01*
X143899258Y-75150404D01*
X144087617Y-75148244D01*
X144244126Y-75145620D01*
X144363504Y-75142605D01*
X144440471Y-75139274D01*
X144469747Y-75135700D01*
X144473773Y-75113956D01*
X144478182Y-75045220D01*
X144481936Y-74936869D01*
X144484849Y-74796197D01*
X144486734Y-74630498D01*
X144487404Y-74447066D01*
X144487404Y-73776089D01*
X141971241Y-73776089D01*
X141971241Y-75153357D01*
X141653410Y-75153357D01*
X141653410Y-73431772D01*
X141971241Y-73431772D01*
X144487404Y-73431772D01*
X144487404Y-72080990D01*
X141971241Y-72080990D01*
X141971241Y-73431772D01*
X141653410Y-73431772D01*
X141653410Y-71736673D01*
X144805235Y-71736673D01*
X144805235Y-75762534D01*
X144490172Y-75762534D01*
G37*
G36*
X143719312Y-63283250D02*
G01*
X143719063Y-63300503D01*
X143713091Y-63366670D01*
X143701655Y-63402436D01*
X143693357Y-63404909D01*
X143640525Y-63409772D01*
X143546217Y-63413949D01*
X143418237Y-63417212D01*
X143264389Y-63419335D01*
X143092479Y-63420094D01*
X142500960Y-63420094D01*
X142500960Y-63181720D01*
X143719312Y-63181720D01*
X143719312Y-63283250D01*
G37*
G36*
X141865298Y-76689541D02*
G01*
X140673431Y-76689541D01*
X140673431Y-76451168D01*
X141865298Y-76451168D01*
X141865298Y-76689541D01*
G37*
G36*
X149069469Y-103387351D02*
G01*
X148778123Y-103387351D01*
X148778123Y-101268477D01*
X149069469Y-101268477D01*
X149069469Y-103387351D01*
G37*
G36*
X173595433Y-103387351D02*
G01*
X173277602Y-103387351D01*
X173277602Y-101268477D01*
X173595433Y-101268477D01*
X173595433Y-103387351D01*
G37*
G36*
X173357060Y-100553357D02*
G01*
X171953306Y-100553357D01*
X171953306Y-100315998D01*
X172542618Y-100308869D01*
X173131929Y-100301741D01*
X173131929Y-99374734D01*
X172165193Y-99360296D01*
X172165193Y-99150799D01*
X173131929Y-99136361D01*
X173139162Y-98666235D01*
X173146395Y-98196110D01*
X171950260Y-98196110D01*
X171958404Y-98083545D01*
X171966549Y-97970980D01*
X172661804Y-97963919D01*
X173357060Y-97956858D01*
X173357060Y-100553357D01*
G37*
G36*
X168298249Y-103387351D02*
G01*
X168006903Y-103387351D01*
X168006903Y-101268477D01*
X168298249Y-101268477D01*
X168298249Y-103387351D01*
G37*
G36*
X142580417Y-103387351D02*
G01*
X142289072Y-103387351D01*
X142289072Y-101268477D01*
X142580417Y-101268477D01*
X142580417Y-103387351D01*
G37*
G36*
X158147519Y-71742654D02*
G01*
X158591158Y-71749916D01*
X158599163Y-71888967D01*
X158607169Y-72028019D01*
X158869260Y-72028019D01*
X158869260Y-72319364D01*
X159160605Y-72319364D01*
X159160605Y-73219885D01*
X158869260Y-73219885D01*
X158869260Y-73484744D01*
X158604401Y-73484744D01*
X158604401Y-73774777D01*
X158174005Y-73782055D01*
X157743608Y-73789332D01*
X157735603Y-73928384D01*
X157727597Y-74067435D01*
X157465506Y-74067435D01*
X157465506Y-74862012D01*
X157727597Y-74862012D01*
X157735603Y-75001063D01*
X157743608Y-75140114D01*
X158147519Y-75147426D01*
X158551429Y-75154737D01*
X158551429Y-74862012D01*
X158816288Y-74862012D01*
X158816288Y-74305808D01*
X159160605Y-74305808D01*
X159160605Y-74914984D01*
X158869260Y-74914984D01*
X158869260Y-75206329D01*
X158604401Y-75206329D01*
X158604401Y-75334345D01*
X158603453Y-75376586D01*
X158597100Y-75445166D01*
X158586743Y-75480017D01*
X158570964Y-75484092D01*
X158509289Y-75489490D01*
X158410146Y-75493795D01*
X158282791Y-75496644D01*
X158136483Y-75497674D01*
X157703879Y-75497674D01*
X157703879Y-75206329D01*
X157412534Y-75206329D01*
X157412534Y-74914984D01*
X157121189Y-74914984D01*
X157121189Y-74014463D01*
X157412534Y-74014463D01*
X157412534Y-73723118D01*
X157703879Y-73723118D01*
X157703879Y-73459604D01*
X158121033Y-73452309D01*
X158538186Y-73445015D01*
X158546192Y-73305964D01*
X158554197Y-73166913D01*
X158816288Y-73166913D01*
X158816288Y-72372336D01*
X158551429Y-72372336D01*
X158551429Y-72080990D01*
X157730365Y-72080990D01*
X157730365Y-72372336D01*
X157465506Y-72372336D01*
X157465506Y-72928540D01*
X157121189Y-72928540D01*
X157121189Y-72319364D01*
X157412534Y-72319364D01*
X157412534Y-72028019D01*
X157703879Y-72028019D01*
X157703879Y-71735393D01*
X158147519Y-71742654D01*
G37*
G36*
X142262586Y-90780052D02*
G01*
X135800021Y-90780052D01*
X135800021Y-84317487D01*
X142262586Y-84317487D01*
X142262586Y-90780052D01*
G37*
G36*
X148460292Y-63420094D02*
G01*
X147268426Y-63420094D01*
X147268426Y-63181720D01*
X148460292Y-63181720D01*
X148460292Y-63420094D01*
G37*
G36*
X170218478Y-84913420D02*
G01*
X170317800Y-84921640D01*
X170417122Y-84929861D01*
X170417122Y-85509353D01*
X170602524Y-85509353D01*
X170602524Y-86277445D01*
X170761439Y-86277445D01*
X170761439Y-85512551D01*
X170860762Y-85504331D01*
X170960084Y-85496110D01*
X170975086Y-84929888D01*
X171060286Y-84921654D01*
X171145485Y-84913420D01*
X171161049Y-84529374D01*
X171397101Y-84529374D01*
X171397101Y-87098509D01*
X171158728Y-87098509D01*
X171158728Y-85535839D01*
X171001229Y-85535839D01*
X170993899Y-85926507D01*
X170986570Y-86317174D01*
X170887247Y-86325394D01*
X170787925Y-86333615D01*
X170787925Y-86913107D01*
X170576038Y-86913107D01*
X170576038Y-86333615D01*
X170476716Y-86325394D01*
X170377393Y-86317174D01*
X170370064Y-85926507D01*
X170362734Y-85535839D01*
X170205235Y-85535839D01*
X170205235Y-87098509D01*
X169993348Y-87098509D01*
X169993348Y-84529374D01*
X170202914Y-84529374D01*
X170218478Y-84913420D01*
G37*
G36*
X145229010Y-103387351D02*
G01*
X144699291Y-103387351D01*
X144699291Y-101268477D01*
X145229010Y-101268477D01*
X145229010Y-103387351D01*
G37*
G36*
X126291575Y-97586934D02*
G01*
X125602941Y-97586934D01*
X125602941Y-97322075D01*
X126291575Y-97322075D01*
X126291575Y-97586934D01*
G37*
G36*
X165623170Y-76689541D02*
G01*
X164431304Y-76689541D01*
X164431304Y-76451168D01*
X165623170Y-76451168D01*
X165623170Y-76689541D01*
G37*
G36*
X140541001Y-63420094D02*
G01*
X139349135Y-63420094D01*
X139349135Y-63181720D01*
X140541001Y-63181720D01*
X140541001Y-63420094D01*
G37*
G36*
X169993348Y-77828436D02*
G01*
X170258207Y-77828436D01*
X170258207Y-78093295D01*
X170549552Y-78093295D01*
X170549552Y-78993816D01*
X170205235Y-78993816D01*
X170205235Y-78146267D01*
X169943144Y-78146267D01*
X169935138Y-78007216D01*
X169927133Y-77868165D01*
X169132555Y-77868165D01*
X169124549Y-78007216D01*
X169116544Y-78146267D01*
X168854453Y-78146267D01*
X168854453Y-78967330D01*
X169119312Y-78967330D01*
X169119312Y-79232190D01*
X169410657Y-79232190D01*
X169410657Y-79523535D01*
X169993348Y-79523535D01*
X169993348Y-79814880D01*
X170258207Y-79814880D01*
X170258207Y-80079739D01*
X170549552Y-80079739D01*
X170549552Y-81271606D01*
X168510136Y-81271606D01*
X168510136Y-80953775D01*
X170205235Y-80953775D01*
X170205235Y-80132711D01*
X169940376Y-80132711D01*
X169940376Y-79869644D01*
X169655652Y-79862126D01*
X169370928Y-79854609D01*
X169362923Y-79715558D01*
X169354917Y-79576507D01*
X169092826Y-79576507D01*
X169092826Y-79285161D01*
X168801481Y-79285161D01*
X168801481Y-78993816D01*
X168508855Y-78993816D01*
X168523379Y-78106538D01*
X168662430Y-78098532D01*
X168801481Y-78090527D01*
X168801481Y-77831204D01*
X168940532Y-77823198D01*
X169079583Y-77815193D01*
X169087589Y-77676142D01*
X169095594Y-77537091D01*
X169993348Y-77537091D01*
X169993348Y-77828436D01*
G37*
G36*
X173860292Y-95017800D02*
G01*
X174416497Y-95017800D01*
X174416497Y-94435109D01*
X174654870Y-94435109D01*
X174654870Y-95229687D01*
X174747571Y-95229687D01*
X174754627Y-95229698D01*
X174813039Y-95234776D01*
X174836171Y-95260257D01*
X174840271Y-95322388D01*
X174840283Y-95329444D01*
X174845361Y-95387856D01*
X174870841Y-95410988D01*
X174932972Y-95415088D01*
X174974224Y-95415824D01*
X175010282Y-95426363D01*
X175023694Y-95461042D01*
X175025673Y-95534275D01*
X175025673Y-95653462D01*
X174813786Y-95653462D01*
X174813786Y-95547518D01*
X174813578Y-95516257D01*
X174806815Y-95464585D01*
X174780438Y-95444782D01*
X174721085Y-95441574D01*
X174714029Y-95441563D01*
X174655616Y-95436485D01*
X174632484Y-95411005D01*
X174628384Y-95348874D01*
X174628384Y-95256173D01*
X173860292Y-95256173D01*
X173860292Y-95812377D01*
X175237560Y-95812377D01*
X175237560Y-96050751D01*
X173860292Y-96050751D01*
X173860292Y-96130208D01*
X173860459Y-96147270D01*
X173868105Y-96189525D01*
X173898304Y-96206528D01*
X173966236Y-96209666D01*
X173997497Y-96209873D01*
X174049169Y-96216637D01*
X174068972Y-96243014D01*
X174072180Y-96302367D01*
X174072191Y-96309423D01*
X174077269Y-96367835D01*
X174102749Y-96390967D01*
X174164880Y-96395068D01*
X174192234Y-96395304D01*
X174237447Y-96403034D01*
X174254775Y-96433179D01*
X174257581Y-96501011D01*
X174257788Y-96532273D01*
X174264552Y-96583944D01*
X174290929Y-96603748D01*
X174350282Y-96606955D01*
X174357338Y-96606966D01*
X174415750Y-96612044D01*
X174438883Y-96637525D01*
X174442983Y-96699656D01*
X174442983Y-96792356D01*
X174840271Y-96792356D01*
X174840271Y-96977758D01*
X175237560Y-96977758D01*
X175237560Y-97216131D01*
X174813786Y-97216131D01*
X174813786Y-97030730D01*
X174416497Y-97030730D01*
X174416497Y-96924786D01*
X174416289Y-96893525D01*
X174409526Y-96841853D01*
X174383149Y-96822050D01*
X174323796Y-96818842D01*
X174317651Y-96818833D01*
X174258742Y-96813857D01*
X174235301Y-96788811D01*
X174231095Y-96727740D01*
X174231038Y-96714752D01*
X174224736Y-96661231D01*
X174196881Y-96637686D01*
X174131773Y-96628418D01*
X174118240Y-96627247D01*
X174059513Y-96616196D01*
X174033887Y-96586449D01*
X174024231Y-96520876D01*
X174023006Y-96506721D01*
X174012443Y-96448939D01*
X173984977Y-96425783D01*
X173924908Y-96421553D01*
X173918870Y-96421544D01*
X173860977Y-96416481D01*
X173837940Y-96390995D01*
X173833806Y-96328853D01*
X173829629Y-96267531D01*
X173807733Y-96241320D01*
X173754349Y-96236152D01*
X173702820Y-96240702D01*
X173679522Y-96265676D01*
X173674891Y-96327254D01*
X173674833Y-96340242D01*
X173668531Y-96393763D01*
X173640676Y-96417308D01*
X173575569Y-96426576D01*
X173562035Y-96427748D01*
X173503308Y-96438799D01*
X173477683Y-96468545D01*
X173468026Y-96534119D01*
X173466802Y-96548274D01*
X173456239Y-96606056D01*
X173428773Y-96629211D01*
X173368704Y-96633441D01*
X173362665Y-96633450D01*
X173304772Y-96638513D01*
X173281736Y-96663999D01*
X173277602Y-96726142D01*
X173277593Y-96732286D01*
X173272617Y-96791195D01*
X173247571Y-96814636D01*
X173186500Y-96818842D01*
X173173512Y-96818900D01*
X173119991Y-96825202D01*
X173096446Y-96853057D01*
X173087178Y-96918165D01*
X173078958Y-97017487D01*
X172886935Y-97025269D01*
X172694912Y-97033050D01*
X172694912Y-97216131D01*
X172271137Y-97216131D01*
X172271137Y-96977758D01*
X172668426Y-96977758D01*
X172668426Y-96792356D01*
X173039229Y-96792356D01*
X173039229Y-96701255D01*
X173039286Y-96688266D01*
X173045588Y-96634745D01*
X173073443Y-96611200D01*
X173138551Y-96601932D01*
X173152084Y-96600761D01*
X173210811Y-96589710D01*
X173236437Y-96559963D01*
X173246093Y-96494390D01*
X173247318Y-96480235D01*
X173257881Y-96422453D01*
X173285347Y-96399297D01*
X173345416Y-96395068D01*
X173348418Y-96395065D01*
X173408267Y-96390312D01*
X173432181Y-96365397D01*
X173436518Y-96303966D01*
X173436575Y-96290977D01*
X173442877Y-96237456D01*
X173470732Y-96213912D01*
X173535840Y-96204643D01*
X173595791Y-96195930D01*
X173630575Y-96172761D01*
X173643543Y-96123587D01*
X173651923Y-96050751D01*
X172271137Y-96050751D01*
X172271137Y-95813272D01*
X172953149Y-95806203D01*
X173635162Y-95799134D01*
X173642710Y-95527654D01*
X173650258Y-95256173D01*
X172668426Y-95256173D01*
X172668426Y-95017800D01*
X173648405Y-95017800D01*
X173648405Y-94249708D01*
X173860292Y-94249708D01*
X173860292Y-95017800D01*
G37*
G36*
X114022979Y-98651420D02*
G01*
X114030609Y-98881600D01*
X113917036Y-98889794D01*
X113803462Y-98897987D01*
X113795770Y-99116496D01*
X113788077Y-99335005D01*
X113551846Y-99335005D01*
X113551846Y-98858258D01*
X113761591Y-98858258D01*
X113769284Y-98639750D01*
X113776976Y-98421241D01*
X114015350Y-98421241D01*
X114022979Y-98651420D01*
G37*
G36*
X151241314Y-103387351D02*
G01*
X150208363Y-103387351D01*
X150208363Y-101268477D01*
X151241314Y-101268477D01*
X151241314Y-103387351D01*
G37*
G36*
X118325619Y-77782085D02*
G01*
X118332555Y-78795172D01*
X118577550Y-78802787D01*
X118822545Y-78810403D01*
X118822545Y-79894007D01*
X114783441Y-79907581D01*
X114776195Y-80364463D01*
X114768948Y-80821345D01*
X120358728Y-80821345D01*
X120358728Y-81430521D01*
X114770198Y-81430521D01*
X114770198Y-82357528D01*
X116809615Y-82357528D01*
X116809615Y-82966705D01*
X114690741Y-82966705D01*
X114690741Y-82463472D01*
X114187508Y-82463472D01*
X114187508Y-81431334D01*
X112664568Y-81417278D01*
X112664568Y-80834588D01*
X113426038Y-80827560D01*
X114187508Y-80820533D01*
X114187508Y-79311647D01*
X118239854Y-79311647D01*
X118239854Y-78887873D01*
X117736622Y-78887873D01*
X117736622Y-78384640D01*
X114187508Y-78384640D01*
X114187508Y-77775464D01*
X117736622Y-77775464D01*
X117736622Y-76768999D01*
X118318683Y-76768999D01*
X118325619Y-77782085D01*
G37*
G36*
X165888030Y-63283250D02*
G01*
X165887780Y-63300503D01*
X165881809Y-63366670D01*
X165870372Y-63402436D01*
X165862075Y-63404909D01*
X165809243Y-63409772D01*
X165714934Y-63413949D01*
X165586954Y-63417212D01*
X165433106Y-63419335D01*
X165261196Y-63420094D01*
X164669677Y-63420094D01*
X164669677Y-63181720D01*
X165888030Y-63181720D01*
X165888030Y-63283250D01*
G37*
G36*
X160882190Y-76552697D02*
G01*
X160881936Y-76569877D01*
X160875801Y-76636261D01*
X160864039Y-76672377D01*
X160856618Y-76674696D01*
X160805156Y-76679177D01*
X160712049Y-76682433D01*
X160585160Y-76684320D01*
X160432351Y-76684695D01*
X160261484Y-76683413D01*
X159677081Y-76676298D01*
X159668936Y-76563733D01*
X159660792Y-76451168D01*
X160882190Y-76451168D01*
X160882190Y-76552697D01*
G37*
G36*
X173383546Y-85694755D02*
G01*
X174310553Y-85694755D01*
X174310553Y-84529374D01*
X174548926Y-84529374D01*
X174548926Y-87098509D01*
X174310553Y-87098509D01*
X174310553Y-85933128D01*
X173383546Y-85933128D01*
X173383546Y-87098509D01*
X173145172Y-87098509D01*
X173145172Y-84529374D01*
X173383546Y-84529374D01*
X173383546Y-85694755D01*
G37*
G36*
X163166601Y-97962836D02*
G01*
X163279166Y-97970980D01*
X163286065Y-99229061D01*
X163287180Y-99479105D01*
X163287739Y-99717502D01*
X163287743Y-99934889D01*
X163287216Y-100125941D01*
X163286181Y-100285330D01*
X163284664Y-100407729D01*
X163282687Y-100487811D01*
X163280275Y-100520250D01*
X163276509Y-100526115D01*
X163233665Y-100545701D01*
X163160811Y-100553357D01*
X163054036Y-100553357D01*
X163054036Y-97954691D01*
X163166601Y-97962836D01*
G37*
G36*
X170642253Y-72359093D02*
G01*
X170211856Y-72366370D01*
X169781460Y-72373648D01*
X169781460Y-75497674D01*
X169463629Y-75497674D01*
X169463629Y-72372336D01*
X168616080Y-72372336D01*
X168616080Y-72028019D01*
X170658023Y-72028019D01*
X170642253Y-72359093D01*
G37*
G36*
X150605652Y-88290375D02*
G01*
X150817539Y-88290375D01*
X150817539Y-88687664D01*
X151002941Y-88687664D01*
X151002941Y-89084953D01*
X151188342Y-89084953D01*
X151188342Y-89455756D01*
X151400230Y-89455756D01*
X151400230Y-89694129D01*
X151281043Y-89694129D01*
X151228005Y-89693557D01*
X151181645Y-89685360D01*
X151164401Y-89658388D01*
X151161856Y-89601428D01*
X151157679Y-89540107D01*
X151135783Y-89513895D01*
X151082399Y-89508728D01*
X151002941Y-89508728D01*
X151002941Y-90885996D01*
X150791648Y-90885996D01*
X150784729Y-89806694D01*
X150777811Y-88727393D01*
X150678488Y-88719173D01*
X150579166Y-88710952D01*
X150579166Y-88316861D01*
X150393765Y-88316861D01*
X150393765Y-87893086D01*
X150605652Y-87893086D01*
X150605652Y-88290375D01*
G37*
G36*
X142130157Y-63421088D02*
G01*
X141527602Y-63413969D01*
X140925047Y-63406851D01*
X140916903Y-63294286D01*
X140908759Y-63181720D01*
X142130157Y-63181720D01*
X142130157Y-63421088D01*
G37*
G36*
X169708624Y-86484310D02*
G01*
X169807946Y-86492530D01*
X169807946Y-87098509D01*
X169569573Y-87098509D01*
X169569573Y-86515818D01*
X168616080Y-86515818D01*
X168616080Y-87098509D01*
X168404192Y-87098509D01*
X168404192Y-86489332D01*
X168589594Y-86489332D01*
X168589594Y-86277445D01*
X168827967Y-86277445D01*
X169384171Y-86277445D01*
X169384171Y-85721241D01*
X169172284Y-85721241D01*
X169172284Y-85138550D01*
X169013368Y-85138550D01*
X169013368Y-85721241D01*
X168827967Y-85721241D01*
X168827967Y-86277445D01*
X168589594Y-86277445D01*
X168589594Y-85694755D01*
X168801481Y-85694755D01*
X168801481Y-85112064D01*
X168986883Y-85112064D01*
X168986883Y-84529374D01*
X169225256Y-84529374D01*
X169225256Y-85112064D01*
X169410657Y-85112064D01*
X169410657Y-85694755D01*
X169594643Y-85694755D01*
X169601972Y-86085422D01*
X169605575Y-86277445D01*
X169609302Y-86476089D01*
X169708624Y-86484310D01*
G37*
G36*
X111247571Y-104208415D02*
G01*
X111247571Y-104446788D01*
X111035683Y-104446788D01*
X111035683Y-104658675D01*
X110347049Y-104658675D01*
X110347049Y-104552732D01*
X110346798Y-104516182D01*
X110339166Y-104467435D01*
X110309467Y-104449401D01*
X110242629Y-104446788D01*
X110200970Y-104446321D01*
X110156278Y-104437166D01*
X110137571Y-104404728D01*
X110130063Y-104334223D01*
X110126354Y-104289356D01*
X110113769Y-104241204D01*
X110080056Y-104221210D01*
X110009354Y-104213513D01*
X109896789Y-104205369D01*
X109896789Y-104181929D01*
X110161648Y-104181929D01*
X110373535Y-104181929D01*
X110373535Y-104393816D01*
X111009197Y-104393816D01*
X111009197Y-104181929D01*
X111221085Y-104181929D01*
X111221085Y-102248457D01*
X111009197Y-102248457D01*
X111009197Y-102036569D01*
X110373535Y-102036569D01*
X110373535Y-102248457D01*
X110161648Y-102248457D01*
X110161648Y-104181929D01*
X109896789Y-104181929D01*
X109896789Y-102225016D01*
X110009354Y-102216872D01*
X110054221Y-102213163D01*
X110102373Y-102200577D01*
X110122366Y-102166865D01*
X110130063Y-102096162D01*
X110133743Y-102051291D01*
X110145670Y-102003828D01*
X110177037Y-101986191D01*
X110242629Y-101983597D01*
X110278653Y-101983343D01*
X110326699Y-101975599D01*
X110344474Y-101945466D01*
X110347049Y-101877654D01*
X110347049Y-101771710D01*
X111035683Y-101771710D01*
X111035683Y-101877654D01*
X111035934Y-101914204D01*
X111043567Y-101962950D01*
X111073266Y-101980984D01*
X111140104Y-101983597D01*
X111181763Y-101984064D01*
X111226454Y-101993219D01*
X111245162Y-102025657D01*
X111252669Y-102096162D01*
X111256379Y-102141029D01*
X111268964Y-102189182D01*
X111302677Y-102209175D01*
X111373379Y-102216872D01*
X111485944Y-102225016D01*
X111485944Y-104208415D01*
X111247571Y-104208415D01*
G37*
G36*
X119855496Y-77881408D02*
G01*
X119246319Y-77881408D01*
X119246319Y-76345224D01*
X113763733Y-76345224D01*
X113763733Y-77881408D01*
X113181043Y-77881408D01*
X113181043Y-75762534D01*
X119855496Y-75762534D01*
X119855496Y-77881408D01*
G37*
G36*
X158286570Y-62546058D02*
G01*
X159134119Y-62546058D01*
X159134119Y-62890375D01*
X158233598Y-62890375D01*
X158233598Y-62599030D01*
X157677393Y-62599030D01*
X157677393Y-62254713D01*
X158286570Y-62254713D01*
X158286570Y-62546058D01*
G37*
G36*
X112148092Y-81430521D02*
G01*
X109605444Y-81430521D01*
X109605444Y-81854296D01*
X110609921Y-81854296D01*
X110617536Y-82099291D01*
X110625152Y-82344286D01*
X111644860Y-82358672D01*
X111644860Y-82645031D01*
X111643872Y-82740253D01*
X111640182Y-82843340D01*
X111634400Y-82916833D01*
X111627202Y-82949047D01*
X111624703Y-82950267D01*
X111583443Y-82955489D01*
X111499232Y-82960005D01*
X111380280Y-82963553D01*
X111234799Y-82965873D01*
X111070998Y-82966705D01*
X110532451Y-82966705D01*
X110532451Y-82463472D01*
X109525986Y-82463472D01*
X109525986Y-81933754D01*
X109022753Y-81933754D01*
X109022753Y-81430521D01*
X107566027Y-81430521D01*
X107566027Y-81933754D01*
X107062795Y-81933754D01*
X107062795Y-82463472D01*
X106056330Y-82463472D01*
X106056330Y-82966705D01*
X104970407Y-82966705D01*
X104970407Y-82357528D01*
X105976872Y-82357528D01*
X105976872Y-81854296D01*
X106983337Y-81854296D01*
X106983337Y-81430521D01*
X104438954Y-81430521D01*
X104446443Y-81132555D01*
X104453932Y-80834588D01*
X108301012Y-80827878D01*
X112148092Y-80821167D01*
X112148092Y-81430521D01*
G37*
G36*
X167821502Y-103387351D02*
G01*
X167530157Y-103387351D01*
X167530157Y-101268477D01*
X167821502Y-101268477D01*
X167821502Y-103387351D01*
G37*
G36*
X135852993Y-103387351D02*
G01*
X135561648Y-103387351D01*
X135561648Y-101268477D01*
X135852993Y-101268477D01*
X135852993Y-103387351D01*
G37*
G36*
X171291158Y-94832398D02*
G01*
X172059250Y-94832398D01*
X172059250Y-95070771D01*
X170284693Y-95070771D01*
X170284693Y-94832398D01*
X171052784Y-94832398D01*
X171052784Y-94249708D01*
X171291158Y-94249708D01*
X171291158Y-94832398D01*
G37*
G36*
X156220668Y-77853129D02*
G01*
X155651220Y-77868165D01*
X155644404Y-79569885D01*
X155637588Y-81271606D01*
X155320146Y-81271606D01*
X155320146Y-77537091D01*
X156220668Y-77537091D01*
X156220668Y-77853129D01*
G37*
G36*
X160888812Y-94440208D02*
G01*
X160933679Y-94443917D01*
X160981831Y-94456503D01*
X161001824Y-94490215D01*
X161009521Y-94560917D01*
X161017666Y-94673483D01*
X160910199Y-94673483D01*
X160876326Y-94673724D01*
X160825329Y-94680665D01*
X160805854Y-94707123D01*
X160802732Y-94766183D01*
X160802721Y-94773239D01*
X160797643Y-94831652D01*
X160772163Y-94854784D01*
X160710032Y-94858884D01*
X160682678Y-94859121D01*
X160637465Y-94866851D01*
X160620137Y-94896996D01*
X160617331Y-94964828D01*
X160617331Y-95070771D01*
X160378958Y-95070771D01*
X160378958Y-94832398D01*
X160484901Y-94832398D01*
X160516163Y-94832191D01*
X160567834Y-94825427D01*
X160587638Y-94799050D01*
X160590845Y-94739697D01*
X160590857Y-94732642D01*
X160595934Y-94674229D01*
X160621415Y-94651097D01*
X160683546Y-94646997D01*
X160712764Y-94646716D01*
X160756754Y-94638671D01*
X160773554Y-94607998D01*
X160776246Y-94539530D01*
X160776246Y-94432064D01*
X160888812Y-94440208D01*
G37*
G36*
X147930574Y-90276819D02*
G01*
X147930574Y-90382763D01*
X147930367Y-90414025D01*
X147923603Y-90465696D01*
X147897226Y-90485499D01*
X147837873Y-90488707D01*
X147830817Y-90488718D01*
X147772405Y-90493796D01*
X147749272Y-90519277D01*
X147745172Y-90581408D01*
X147745172Y-90674108D01*
X147321398Y-90674108D01*
X147321398Y-90583006D01*
X147321340Y-90570018D01*
X147315038Y-90516497D01*
X147287183Y-90492952D01*
X147222075Y-90483684D01*
X147122753Y-90475464D01*
X147114971Y-90283441D01*
X147107190Y-90091418D01*
X146924109Y-90091418D01*
X146924109Y-89694129D01*
X146738707Y-89694129D01*
X146738707Y-89111439D01*
X146526820Y-89111439D01*
X146526820Y-89084953D01*
X146765193Y-89084953D01*
X146950595Y-89084953D01*
X146950595Y-89667643D01*
X147162482Y-89667643D01*
X147162482Y-90064932D01*
X147347884Y-90064932D01*
X147347884Y-90435735D01*
X147718686Y-90435735D01*
X147718686Y-90343034D01*
X147718698Y-90335978D01*
X147723776Y-90277566D01*
X147749256Y-90254434D01*
X147811387Y-90250333D01*
X147904088Y-90250333D01*
X147904088Y-89296840D01*
X147718686Y-89296840D01*
X147718686Y-88926037D01*
X147506799Y-88926037D01*
X147506799Y-88714150D01*
X147109510Y-88714150D01*
X147109510Y-88528748D01*
X146765193Y-88528748D01*
X146765193Y-89084953D01*
X146526820Y-89084953D01*
X146526820Y-88528748D01*
X146182503Y-88528748D01*
X146182503Y-88714150D01*
X145785214Y-88714150D01*
X145785214Y-89111439D01*
X145599813Y-89111439D01*
X145599813Y-90064932D01*
X145785214Y-90064932D01*
X145785214Y-90433414D01*
X146169260Y-90448978D01*
X146177480Y-90548300D01*
X146185701Y-90647622D01*
X146765193Y-90647622D01*
X146765193Y-90885996D01*
X146159215Y-90885996D01*
X146150994Y-90786673D01*
X146142774Y-90687351D01*
X145950751Y-90679569D01*
X145758728Y-90671788D01*
X145758728Y-90581846D01*
X145758676Y-90569731D01*
X145752389Y-90516498D01*
X145724529Y-90492985D01*
X145659406Y-90483684D01*
X145560084Y-90475464D01*
X145544520Y-90091418D01*
X145361439Y-90091418D01*
X145361439Y-89084953D01*
X145546841Y-89084953D01*
X145546841Y-88687664D01*
X145652784Y-88687664D01*
X145683428Y-88687463D01*
X145735440Y-88680786D01*
X145755451Y-88654738D01*
X145758728Y-88596124D01*
X145758728Y-88504583D01*
X145950751Y-88496801D01*
X146142774Y-88489020D01*
X146150994Y-88389697D01*
X146159215Y-88290375D01*
X147162482Y-88290375D01*
X147162482Y-88502263D01*
X147533285Y-88502263D01*
X147533285Y-88594963D01*
X147533522Y-88622317D01*
X147541252Y-88667530D01*
X147571397Y-88684858D01*
X147639229Y-88687664D01*
X147670490Y-88687871D01*
X147722162Y-88694635D01*
X147741965Y-88721012D01*
X147745172Y-88780365D01*
X147745184Y-88787421D01*
X147750262Y-88845833D01*
X147775742Y-88868965D01*
X147837873Y-88873065D01*
X147930574Y-88873065D01*
X147930574Y-89270354D01*
X148142461Y-89270354D01*
X148142461Y-90276819D01*
X147930574Y-90276819D01*
G37*
G36*
X174575412Y-77828436D02*
G01*
X174866757Y-77828436D01*
X174866757Y-78090527D01*
X175005808Y-78098532D01*
X175144860Y-78106538D01*
X175152121Y-78550177D01*
X175159383Y-78993816D01*
X174813786Y-78993816D01*
X174813786Y-78146267D01*
X174522440Y-78146267D01*
X174522440Y-77854922D01*
X173727863Y-77854922D01*
X173727863Y-78146267D01*
X173436518Y-78146267D01*
X173436518Y-78967330D01*
X173727863Y-78967330D01*
X173727863Y-79229421D01*
X174005965Y-79245433D01*
X174013971Y-79384484D01*
X174021976Y-79523535D01*
X174575412Y-79523535D01*
X174575412Y-79814880D01*
X174866757Y-79814880D01*
X174866757Y-80076971D01*
X175005808Y-80084976D01*
X175144860Y-80092982D01*
X175159116Y-81271606D01*
X173118686Y-81271606D01*
X173118686Y-80954519D01*
X173959615Y-80947525D01*
X174800543Y-80940532D01*
X174807854Y-80536621D01*
X174815165Y-80132711D01*
X174522440Y-80132711D01*
X174522440Y-79867852D01*
X173966236Y-79867852D01*
X173966236Y-79576507D01*
X173674891Y-79576507D01*
X173674891Y-79285161D01*
X173383546Y-79285161D01*
X173383546Y-78993816D01*
X173118686Y-78993816D01*
X173118686Y-78093295D01*
X173383546Y-78093295D01*
X173383546Y-77828436D01*
X173674891Y-77828436D01*
X173674891Y-77537091D01*
X174575412Y-77537091D01*
X174575412Y-77828436D01*
G37*
G36*
X154260709Y-74623639D02*
G01*
X153148301Y-74623639D01*
X153148301Y-75153357D01*
X153704505Y-75153357D01*
X153704505Y-75418217D01*
X154552055Y-75418217D01*
X154552055Y-75762534D01*
X153651533Y-75762534D01*
X153651533Y-75471189D01*
X153095329Y-75471189D01*
X153095329Y-75209098D01*
X152817227Y-75193086D01*
X152809709Y-74908363D01*
X152802192Y-74623639D01*
X152009406Y-74623639D01*
X152009406Y-75471189D01*
X151718061Y-75471189D01*
X151718061Y-75762534D01*
X150817539Y-75762534D01*
X150817539Y-75471189D01*
X150552680Y-75471189D01*
X150552680Y-74862012D01*
X150870511Y-74862012D01*
X150870511Y-75418217D01*
X151665089Y-75418217D01*
X151665089Y-74623639D01*
X150552680Y-74623639D01*
X150552680Y-74305808D01*
X151665089Y-74305808D01*
X152009406Y-74305808D01*
X152803984Y-74305808D01*
X152803984Y-73776089D01*
X152009406Y-73776089D01*
X152009406Y-74305808D01*
X151665089Y-74305808D01*
X151665089Y-73776089D01*
X151402998Y-73776089D01*
X151394992Y-73637038D01*
X151386987Y-73497987D01*
X151274422Y-73489843D01*
X151161856Y-73481699D01*
X151161856Y-73776089D01*
X150261335Y-73776089D01*
X150261335Y-73431772D01*
X151108885Y-73431772D01*
X151423670Y-73431772D01*
X153360188Y-73431772D01*
X153360188Y-73193399D01*
X153095329Y-73193399D01*
X153095329Y-72928540D01*
X152803984Y-72928540D01*
X152803984Y-72637195D01*
X152512639Y-72637195D01*
X152512639Y-72342804D01*
X152400073Y-72350948D01*
X152287508Y-72359093D01*
X152279503Y-72498144D01*
X152271497Y-72637195D01*
X152009406Y-72637195D01*
X152009406Y-72928540D01*
X151718061Y-72928540D01*
X151718061Y-73190631D01*
X151579010Y-73198637D01*
X151439959Y-73206642D01*
X151431814Y-73319207D01*
X151423670Y-73431772D01*
X151108885Y-73431772D01*
X151108885Y-73169682D01*
X151386987Y-73153670D01*
X151395131Y-73041105D01*
X151403276Y-72928540D01*
X151108885Y-72928540D01*
X151108885Y-72637195D01*
X150817539Y-72637195D01*
X150817539Y-72345850D01*
X150552680Y-72345850D01*
X150552680Y-72028019D01*
X150870511Y-72028019D01*
X150870511Y-72319364D01*
X151161856Y-72319364D01*
X151161856Y-72584223D01*
X151426716Y-72584223D01*
X151426716Y-72875568D01*
X151662321Y-72875568D01*
X151670326Y-72736517D01*
X151678332Y-72597466D01*
X151817383Y-72589460D01*
X151956434Y-72581455D01*
X151956434Y-72345850D01*
X151665089Y-72345850D01*
X151665089Y-72080990D01*
X151400230Y-72080990D01*
X151400230Y-71789645D01*
X151108885Y-71789645D01*
X151108885Y-71445328D01*
X151426716Y-71445328D01*
X151426716Y-71736673D01*
X151718061Y-71736673D01*
X151718061Y-72028019D01*
X152009406Y-72028019D01*
X152009406Y-72322409D01*
X152234536Y-72306121D01*
X152242054Y-72021397D01*
X152249571Y-71736673D01*
X154260709Y-71736673D01*
X154260709Y-72080990D01*
X152562565Y-72080990D01*
X152570709Y-72193556D01*
X152578853Y-72306121D01*
X152717904Y-72314126D01*
X152856956Y-72322132D01*
X152856956Y-72581455D01*
X152996007Y-72589460D01*
X153135058Y-72597466D01*
X153143063Y-72736517D01*
X153151069Y-72875568D01*
X153357420Y-72875568D01*
X153365425Y-72736517D01*
X153373431Y-72597466D01*
X153512482Y-72589460D01*
X153651533Y-72581455D01*
X153651533Y-72319364D01*
X153995850Y-72319364D01*
X153995850Y-72637195D01*
X153704505Y-72637195D01*
X153704505Y-72928540D01*
X153413160Y-72928540D01*
X153413160Y-73166913D01*
X153995850Y-73166913D01*
X153995850Y-73431772D01*
X154552055Y-73431772D01*
X154552055Y-73776089D01*
X153942878Y-73776089D01*
X153942878Y-73484744D01*
X153704505Y-73484744D01*
X153704505Y-73776089D01*
X153148301Y-73776089D01*
X153148301Y-74305808D01*
X154260709Y-74305808D01*
X154260709Y-74623639D01*
G37*
G36*
X143322023Y-103387351D02*
G01*
X143004192Y-103387351D01*
X143004192Y-101268477D01*
X143322023Y-101268477D01*
X143322023Y-103387351D01*
G37*
G36*
X175131617Y-76552697D02*
G01*
X175131363Y-76569877D01*
X175125227Y-76636261D01*
X175113466Y-76672377D01*
X175106044Y-76674696D01*
X175054582Y-76679177D01*
X174961475Y-76682433D01*
X174834586Y-76684320D01*
X174681777Y-76684695D01*
X174510911Y-76683413D01*
X173926507Y-76676298D01*
X173918363Y-76563733D01*
X173910218Y-76451168D01*
X175131617Y-76451168D01*
X175131617Y-76552697D01*
G37*
G36*
X164034015Y-76689541D02*
G01*
X162842148Y-76689541D01*
X162842148Y-76451168D01*
X164034015Y-76451168D01*
X164034015Y-76689541D01*
G37*
G36*
X167450699Y-63420094D02*
G01*
X166258832Y-63420094D01*
X166258832Y-63181720D01*
X167450699Y-63181720D01*
X167450699Y-63420094D01*
G37*
G36*
X152962899Y-76552697D02*
G01*
X152962645Y-76569877D01*
X152956510Y-76636261D01*
X152944748Y-76672377D01*
X152937327Y-76674696D01*
X152885865Y-76679177D01*
X152792758Y-76682433D01*
X152665869Y-76684320D01*
X152513060Y-76684695D01*
X152342194Y-76683413D01*
X151757790Y-76676298D01*
X151749645Y-76563733D01*
X151741501Y-76451168D01*
X152962899Y-76451168D01*
X152962899Y-76552697D01*
G37*
G36*
X168801481Y-76552697D02*
G01*
X168801232Y-76569950D01*
X168795260Y-76636117D01*
X168783824Y-76671884D01*
X168775526Y-76674357D01*
X168722694Y-76679220D01*
X168628386Y-76683396D01*
X168500406Y-76686659D01*
X168346558Y-76688783D01*
X168174648Y-76689541D01*
X167583129Y-76689541D01*
X167583129Y-76451168D01*
X168801481Y-76451168D01*
X168801481Y-76552697D01*
G37*
G36*
X171953306Y-76689541D02*
G01*
X170761439Y-76689541D01*
X170761439Y-76451168D01*
X171953306Y-76451168D01*
X171953306Y-76689541D01*
G37*
G36*
X165649656Y-103387351D02*
G01*
X165358311Y-103387351D01*
X165358311Y-101268477D01*
X165649656Y-101268477D01*
X165649656Y-103387351D01*
G37*
G36*
X147400855Y-103387351D02*
G01*
X146844651Y-103387351D01*
X146844651Y-101268477D01*
X147400855Y-101268477D01*
X147400855Y-103387351D01*
G37*
G36*
X173542461Y-76690536D02*
G01*
X172939906Y-76683417D01*
X172337352Y-76676298D01*
X172329207Y-76563733D01*
X172321063Y-76451168D01*
X173542461Y-76451168D01*
X173542461Y-76690536D01*
G37*
G36*
X159531408Y-63420094D02*
G01*
X158339542Y-63420094D01*
X158339542Y-63181720D01*
X159531408Y-63181720D01*
X159531408Y-63420094D01*
G37*
G36*
X121497623Y-74093921D02*
G01*
X121497623Y-71551272D01*
X119484693Y-71551272D01*
X119484693Y-71048039D01*
X118981460Y-71048039D01*
X118981460Y-70544807D01*
X118478228Y-70544807D01*
X118478228Y-70438863D01*
X119060918Y-70438863D01*
X119564151Y-70438863D01*
X119564151Y-70942096D01*
X121497623Y-70942096D01*
X121497623Y-68002158D01*
X119564151Y-68002158D01*
X119564151Y-68505391D01*
X119060918Y-68505391D01*
X119060918Y-70438863D01*
X118478228Y-70438863D01*
X118478228Y-68425933D01*
X118981460Y-68425933D01*
X118981460Y-67896215D01*
X119484693Y-67896215D01*
X119484693Y-67392982D01*
X122106799Y-67392982D01*
X122106799Y-74093921D01*
X121497623Y-74093921D01*
G37*
G36*
X169913890Y-95229687D02*
G01*
X170311179Y-95229687D01*
X170311179Y-95441574D01*
X169913890Y-95441574D01*
X169913890Y-96209666D01*
X170097499Y-96209666D01*
X170105017Y-96494390D01*
X170112534Y-96779113D01*
X170211856Y-96787334D01*
X170226012Y-96788558D01*
X170283793Y-96799121D01*
X170306949Y-96826587D01*
X170311179Y-96886656D01*
X170315147Y-96945736D01*
X170336929Y-96972448D01*
X170390636Y-96977758D01*
X170470094Y-96977758D01*
X170470094Y-96606955D01*
X170562795Y-96606955D01*
X170590149Y-96606718D01*
X170635361Y-96598988D01*
X170652689Y-96568843D01*
X170655496Y-96501011D01*
X170655496Y-96395068D01*
X170761439Y-96395068D01*
X170784189Y-96394942D01*
X170840528Y-96389208D01*
X170863199Y-96366559D01*
X170867383Y-96315610D01*
X170867216Y-96298548D01*
X170859570Y-96256293D01*
X170829371Y-96239290D01*
X170761439Y-96236152D01*
X170655496Y-96236152D01*
X170655496Y-95812377D01*
X170893869Y-95812377D01*
X170893869Y-96212086D01*
X171072649Y-96204255D01*
X171251429Y-96196423D01*
X171266993Y-95812377D01*
X171476559Y-95812377D01*
X171476559Y-96236152D01*
X171291158Y-96236152D01*
X171291158Y-96606955D01*
X171383859Y-96606955D01*
X171390914Y-96606966D01*
X171449327Y-96612044D01*
X171472459Y-96637525D01*
X171476559Y-96699656D01*
X171476559Y-96792356D01*
X171873848Y-96792356D01*
X171873848Y-96885057D01*
X171873860Y-96892113D01*
X171878937Y-96950526D01*
X171904418Y-96973658D01*
X171966549Y-96977758D01*
X172007801Y-96978493D01*
X172043859Y-96989033D01*
X172057271Y-97023711D01*
X172059250Y-97096945D01*
X172059250Y-97216131D01*
X171953306Y-97216131D01*
X171922044Y-97215924D01*
X171870373Y-97209160D01*
X171850570Y-97182783D01*
X171847362Y-97123430D01*
X171847362Y-97030730D01*
X171450073Y-97030730D01*
X171450073Y-96924786D01*
X171449866Y-96893525D01*
X171443102Y-96841853D01*
X171416726Y-96822050D01*
X171357373Y-96818842D01*
X171350317Y-96818831D01*
X171291904Y-96813753D01*
X171268772Y-96788273D01*
X171264672Y-96726142D01*
X171264435Y-96698788D01*
X171256705Y-96653575D01*
X171226560Y-96636247D01*
X171158728Y-96633441D01*
X171052784Y-96633441D01*
X171052784Y-96527497D01*
X171052659Y-96504748D01*
X171046925Y-96448408D01*
X171024276Y-96425737D01*
X170973327Y-96421553D01*
X170956265Y-96421721D01*
X170914010Y-96429367D01*
X170897007Y-96459565D01*
X170893869Y-96527497D01*
X170893667Y-96558140D01*
X170886991Y-96610153D01*
X170860942Y-96630163D01*
X170802329Y-96633441D01*
X170710788Y-96633441D01*
X170703006Y-96825464D01*
X170695225Y-97017487D01*
X170595902Y-97025707D01*
X170581747Y-97026931D01*
X170523965Y-97037494D01*
X170500810Y-97064960D01*
X170496580Y-97125029D01*
X170496348Y-97151174D01*
X170488623Y-97196013D01*
X170458475Y-97213290D01*
X170390636Y-97216131D01*
X170360232Y-97215932D01*
X170308088Y-97209289D01*
X170287997Y-97183364D01*
X170284693Y-97125029D01*
X170284635Y-97112041D01*
X170278333Y-97058520D01*
X170250478Y-97034975D01*
X170185371Y-97025707D01*
X170171837Y-97024536D01*
X170113110Y-97013484D01*
X170087484Y-96983738D01*
X170077828Y-96918165D01*
X170076604Y-96904009D01*
X170066041Y-96846228D01*
X170038575Y-96823072D01*
X169978506Y-96818842D01*
X169887404Y-96818842D01*
X169887404Y-96239350D01*
X169788082Y-96231129D01*
X169688759Y-96222909D01*
X169681430Y-95832242D01*
X169674100Y-95441574D01*
X169331200Y-95441574D01*
X169331200Y-96977758D01*
X169728488Y-96977758D01*
X169728488Y-97216131D01*
X169304714Y-97216131D01*
X169304714Y-97125029D01*
X169304656Y-97112041D01*
X169298354Y-97058520D01*
X169270499Y-97034975D01*
X169205391Y-97025707D01*
X169106069Y-97017487D01*
X169099095Y-96123587D01*
X169092122Y-95229687D01*
X169675517Y-95229687D01*
X169675517Y-94249708D01*
X169913890Y-94249708D01*
X169913890Y-95229687D01*
G37*
G36*
X156379583Y-63421088D02*
G01*
X155777029Y-63413969D01*
X155174474Y-63406851D01*
X155166329Y-63294286D01*
X155158185Y-63181720D01*
X156379583Y-63181720D01*
X156379583Y-63421088D01*
G37*
G36*
X175422962Y-70226976D02*
G01*
X134581669Y-70226976D01*
X134581669Y-64135214D01*
X175422962Y-64135214D01*
X175422962Y-70226976D01*
G37*
G36*
X156538499Y-103387351D02*
G01*
X155982294Y-103387351D01*
X155982294Y-101268477D01*
X156538499Y-101268477D01*
X156538499Y-103387351D01*
G37*
G36*
X162444860Y-76689541D02*
G01*
X161252993Y-76689541D01*
X161252993Y-76451168D01*
X162444860Y-76451168D01*
X162444860Y-76689541D01*
G37*
G36*
X152909927Y-103387351D02*
G01*
X151903462Y-103387351D01*
X151903462Y-101268477D01*
X152909927Y-101268477D01*
X152909927Y-103387351D01*
G37*
G36*
X173515975Y-60559614D02*
G01*
X174893243Y-60559614D01*
X174893243Y-58864515D01*
X175237560Y-58864515D01*
X175237560Y-62599030D01*
X174893243Y-62599030D01*
X174893243Y-60903931D01*
X173515975Y-60903931D01*
X173515975Y-62599030D01*
X173198144Y-62599030D01*
X173198144Y-58864515D01*
X173515975Y-58864515D01*
X173515975Y-60559614D01*
G37*
G36*
X156114724Y-76689541D02*
G01*
X154922857Y-76689541D01*
X154922857Y-76451168D01*
X156114724Y-76451168D01*
X156114724Y-76689541D01*
G37*
G36*
X107698457Y-99997153D02*
G01*
X107698457Y-100209040D01*
X106559562Y-100209040D01*
X106559562Y-99997153D01*
X106347675Y-99997153D01*
X106347675Y-99944181D01*
X106612534Y-99944181D01*
X107671971Y-99944181D01*
X107671971Y-99546892D01*
X106612534Y-99546892D01*
X106612534Y-99944181D01*
X106347675Y-99944181D01*
X106347675Y-99876288D01*
X106347092Y-99820790D01*
X106339323Y-99775715D01*
X106314221Y-99761136D01*
X106261596Y-99763723D01*
X106239385Y-99766167D01*
X106195678Y-99779238D01*
X106175815Y-99813400D01*
X106167372Y-99884588D01*
X106163692Y-99929459D01*
X106151766Y-99976923D01*
X106120399Y-99994559D01*
X106054807Y-99997153D01*
X106018782Y-99997408D01*
X105970737Y-100005151D01*
X105952962Y-100035284D01*
X105950386Y-100103097D01*
X105950386Y-100209040D01*
X105682625Y-100209040D01*
X105690697Y-100083232D01*
X105698770Y-99957424D01*
X105811335Y-99949280D01*
X105856206Y-99945600D01*
X105903670Y-99933673D01*
X105921307Y-99902306D01*
X105923900Y-99836715D01*
X105924155Y-99800690D01*
X105931899Y-99752644D01*
X105962031Y-99734870D01*
X106029844Y-99732294D01*
X106135788Y-99732294D01*
X106135788Y-99520406D01*
X106347675Y-99520406D01*
X106347675Y-98250713D01*
X106023222Y-98243276D01*
X105698770Y-98235839D01*
X105690697Y-98110031D01*
X105682625Y-97984223D01*
X106347675Y-97984223D01*
X106347675Y-97322075D01*
X106612534Y-97322075D01*
X106612534Y-97984223D01*
X107910344Y-97984223D01*
X107910344Y-98249082D01*
X106612534Y-98249082D01*
X106612534Y-99308519D01*
X107698457Y-99308519D01*
X107698457Y-99520406D01*
X107910344Y-99520406D01*
X107910344Y-99997153D01*
X107698457Y-99997153D01*
G37*
G36*
X148831095Y-71736673D02*
G01*
X149122440Y-71736673D01*
X149122440Y-72319364D01*
X149387300Y-72319364D01*
X149387300Y-72584223D01*
X149969990Y-72584223D01*
X149969990Y-72928540D01*
X149360814Y-72928540D01*
X149360814Y-72637195D01*
X149072237Y-72637195D01*
X149064231Y-72498144D01*
X149056226Y-72359093D01*
X148917174Y-72351087D01*
X148778123Y-72343081D01*
X148778123Y-71789645D01*
X148484251Y-71789645D01*
X148500021Y-71458571D01*
X148831095Y-71442801D01*
X148831095Y-71736673D01*
G37*
G36*
X154790428Y-63420094D02*
G01*
X153598561Y-63420094D01*
X153598561Y-63181720D01*
X154790428Y-63181720D01*
X154790428Y-63420094D01*
G37*
G36*
X167106382Y-103387351D02*
G01*
X166788551Y-103387351D01*
X166788551Y-101268477D01*
X167106382Y-101268477D01*
X167106382Y-103387351D01*
G37*
G36*
X166046945Y-62599030D02*
G01*
X164007529Y-62599030D01*
X164007529Y-62254713D01*
X165702628Y-62254713D01*
X165702628Y-58864515D01*
X166046945Y-58864515D01*
X166046945Y-62599030D01*
G37*
D12*
%TO.C,AE1*%
X177870000Y-107150000D02*
X131870000Y-107150000D01*
X177870000Y-107150000D02*
X177870000Y-55150000D01*
X177070000Y-55950000D02*
X177070000Y-106350000D01*
X131870000Y-107150000D02*
X131870000Y-55950000D01*
X133470000Y-105550000D02*
X133470000Y-58050000D01*
X177070000Y-106350000D02*
X132670000Y-106350000D01*
X131870000Y-55950000D02*
X177070000Y-55950000D01*
X176270000Y-56750000D02*
X176270000Y-105550000D01*
X132670000Y-106350000D02*
X132670000Y-56750000D01*
X176270000Y-105550000D02*
X133470000Y-105550000D01*
X132670000Y-56750000D02*
X176270000Y-56750000D01*
X177870000Y-55150000D02*
X132445000Y-55150000D01*
%TD*%
D13*
%TO.P,D3,1,K*%
%TO.N,Net-(AE1-Pad2)*%
X98197500Y-55500000D03*
%TO.P,D3,2,A*%
%TO.N,Net-(AE1-Pad1)*%
X96147500Y-55500000D03*
%TD*%
D14*
%TO.P,AE1,1*%
%TO.N,Net-(AE1-Pad1)*%
X132070000Y-55150000D03*
D15*
%TO.P,AE1,2*%
%TO.N,Net-(AE1-Pad2)*%
X133470000Y-57800000D03*
%TD*%
D16*
%TO.P,C1,1*%
%TO.N,Net-(AE1-Pad1)*%
X137072500Y-58320000D03*
%TO.P,C1,2*%
%TO.N,Net-(AE1-Pad2)*%
X135347500Y-58320000D03*
%TD*%
D13*
%TO.P,D2,1,K*%
%TO.N,Net-(AE1-Pad1)*%
X129015000Y-94890000D03*
%TO.P,D2,2,A*%
%TO.N,Net-(AE1-Pad2)*%
X126965000Y-94890000D03*
%TD*%
%TO.P,D1,1,K*%
%TO.N,Net-(AE1-Pad1)*%
X129065000Y-55530000D03*
%TO.P,D1,2,A*%
%TO.N,Net-(AE1-Pad2)*%
X127015000Y-55530000D03*
%TD*%
%TO.P,D4,1,K*%
%TO.N,Net-(AE1-Pad2)*%
X98137500Y-94910000D03*
%TO.P,D4,2,A*%
%TO.N,Net-(AE1-Pad1)*%
X96087500Y-94910000D03*
%TD*%
D17*
%TO.N,Net-(AE1-Pad1)*%
X131080000Y-54660000D03*
X138790000Y-58740000D03*
X129065000Y-55530000D03*
%TO.N,Net-(AE1-Pad2)*%
X134490000Y-58810000D03*
X130780000Y-55970000D03*
%TD*%
D18*
%TO.N,Net-(AE1-Pad1)*%
X127945000Y-56650000D02*
X97297500Y-56650000D01*
X131080000Y-54660000D02*
X131080000Y-54830000D01*
X129015000Y-94890000D02*
X127990000Y-93865000D01*
X129065000Y-55530000D02*
X127945000Y-56650000D01*
X137072500Y-58320000D02*
X138370000Y-58320000D01*
X130330000Y-56795000D02*
X129065000Y-55530000D01*
X127990000Y-93865000D02*
X97132500Y-93865000D01*
X131400000Y-55150000D02*
X131870000Y-55150000D01*
X131080000Y-54830000D02*
X131400000Y-55150000D01*
X97132500Y-93865000D02*
X96087500Y-94910000D01*
X130330000Y-93575000D02*
X130330000Y-56795000D01*
X138370000Y-58320000D02*
X138790000Y-58740000D01*
X129015000Y-94890000D02*
X130330000Y-93575000D01*
X97297500Y-56650000D02*
X96147500Y-55500000D01*
%TO.N,Net-(AE1-Pad2)*%
X130780000Y-55656827D02*
X129623173Y-54500000D01*
X98137500Y-94910000D02*
X126945000Y-94910000D01*
X134980000Y-58320000D02*
X134490000Y-58810000D01*
X135347500Y-58320000D02*
X134502500Y-57475000D01*
X129623173Y-54500000D02*
X127230000Y-54500000D01*
X129578173Y-95915000D02*
X130780000Y-94713173D01*
X98860000Y-56200000D02*
X126345000Y-56200000D01*
X126345000Y-56200000D02*
X127015000Y-55530000D01*
X126965000Y-94890000D02*
X127990000Y-95915000D01*
X134502500Y-57475000D02*
X133470000Y-57475000D01*
X127990000Y-95915000D02*
X129578173Y-95915000D01*
X130780000Y-55970000D02*
X130780000Y-55656827D01*
X98197500Y-55500000D02*
X98197500Y-55537500D01*
X98197500Y-55537500D02*
X98860000Y-56200000D01*
X135347500Y-58320000D02*
X134980000Y-58320000D01*
X126945000Y-94910000D02*
X126965000Y-94890000D01*
X127015000Y-54715000D02*
X127015000Y-55530000D01*
X130780000Y-94713173D02*
X130780000Y-55970000D01*
X127230000Y-54500000D02*
X127015000Y-54715000D01*
%TD*%
M02*
