%TF.GenerationSoftware,KiCad,Pcbnew,6.0.9*%
%TF.CreationDate,2022-11-22T21:59:40-08:00*%
%TF.ProjectId,hack_license,6861636b-5f6c-4696-9365-6e73652e6b69,rev?*%
%TF.SameCoordinates,Original*%
%TF.FileFunction,Drillmap*%
%TF.FilePolarity,Positive*%
%FSLAX45Y45*%
G04 Gerber Fmt 4.5, Leading zero omitted, Abs format (unit mm)*
G04 Created by KiCad (PCBNEW 6.0.9) date 2022-11-22 21:59:40*
%MOMM*%
%LPD*%
G01*
G04 APERTURE LIST*
%ADD10C,0.100000*%
%ADD11C,0.200000*%
G04 APERTURE END LIST*
D10*
X9300000Y-10600000D02*
X9300000Y-5600000D01*
X9375000Y-10400000D02*
X9600000Y-10400000D01*
X9600000Y-10725000D02*
X9525000Y-10725000D01*
X9300000Y-10600000D02*
G75*
G03*
X9500000Y-10800000I200000J0D01*
G01*
X17700000Y-10800000D02*
X9500000Y-10800000D01*
X9500000Y-5400000D02*
X17700000Y-5400000D01*
X17700000Y-10800000D02*
G75*
G03*
X17900000Y-10600000I0J200000D01*
G01*
X9375000Y-10575000D02*
X9375000Y-10400000D01*
X9600000Y-10400000D02*
X9600000Y-10725000D01*
X17900000Y-5600000D02*
X17900000Y-10600000D01*
X9500000Y-5400000D02*
G75*
G03*
X9300000Y-5600000I0J-200000D01*
G01*
X17900000Y-5600000D02*
G75*
G03*
X17700000Y-5400000I-200000J0D01*
G01*
X9375000Y-10575000D02*
G75*
G03*
X9525000Y-10725000I150000J0D01*
G01*
D11*
X9552619Y-11115476D02*
X9552619Y-10915476D01*
X9600238Y-10915476D01*
X9628810Y-10925000D01*
X9647857Y-10944048D01*
X9657381Y-10963095D01*
X9666905Y-11001190D01*
X9666905Y-11029762D01*
X9657381Y-11067857D01*
X9647857Y-11086905D01*
X9628810Y-11105952D01*
X9600238Y-11115476D01*
X9552619Y-11115476D01*
X9752619Y-11115476D02*
X9752619Y-10982143D01*
X9752619Y-11020238D02*
X9762143Y-11001190D01*
X9771667Y-10991667D01*
X9790714Y-10982143D01*
X9809762Y-10982143D01*
X9876429Y-11115476D02*
X9876429Y-10982143D01*
X9876429Y-10915476D02*
X9866905Y-10925000D01*
X9876429Y-10934524D01*
X9885952Y-10925000D01*
X9876429Y-10915476D01*
X9876429Y-10934524D01*
X10000238Y-11115476D02*
X9981190Y-11105952D01*
X9971667Y-11086905D01*
X9971667Y-10915476D01*
X10105000Y-11115476D02*
X10085952Y-11105952D01*
X10076429Y-11086905D01*
X10076429Y-10915476D01*
X10333571Y-11115476D02*
X10333571Y-10915476D01*
X10400238Y-11058333D01*
X10466905Y-10915476D01*
X10466905Y-11115476D01*
X10647857Y-11115476D02*
X10647857Y-11010714D01*
X10638333Y-10991667D01*
X10619286Y-10982143D01*
X10581190Y-10982143D01*
X10562143Y-10991667D01*
X10647857Y-11105952D02*
X10628810Y-11115476D01*
X10581190Y-11115476D01*
X10562143Y-11105952D01*
X10552619Y-11086905D01*
X10552619Y-11067857D01*
X10562143Y-11048810D01*
X10581190Y-11039286D01*
X10628810Y-11039286D01*
X10647857Y-11029762D01*
X10743095Y-10982143D02*
X10743095Y-11182143D01*
X10743095Y-10991667D02*
X10762143Y-10982143D01*
X10800238Y-10982143D01*
X10819286Y-10991667D01*
X10828810Y-11001190D01*
X10838333Y-11020238D01*
X10838333Y-11077381D01*
X10828810Y-11096429D01*
X10819286Y-11105952D01*
X10800238Y-11115476D01*
X10762143Y-11115476D01*
X10743095Y-11105952D01*
X10924048Y-11096429D02*
X10933571Y-11105952D01*
X10924048Y-11115476D01*
X10914524Y-11105952D01*
X10924048Y-11096429D01*
X10924048Y-11115476D01*
X10924048Y-10991667D02*
X10933571Y-11001190D01*
X10924048Y-11010714D01*
X10914524Y-11001190D01*
X10924048Y-10991667D01*
X10924048Y-11010714D01*
M02*
